{"glyphs":{"0":{"ha":937,"x_min":0,"x_max":0,"o":"m 476 741 b 56 350 222 741 56 570 b 461 -20 56 126 227 -20 b 882 372 713 -20 882 150 b 476 741 882 593 714 741 z m 464 715 b 623 368 549 715 623 616 b 473 5 623 142 559 5 b 315 354 389 5 315 104 b 464 715 315 581 378 715 z "},"1":{"ha":545,"x_min":0,"x_max":0,"o":"m 419 736 b 50 665 332 686 225 668 l 50 635 b 170 485 142 635 170 618 l 170 143 b 50 29 170 53 125 29 l 50 0 b 306 5 102 1 203 5 b 497 0 380 5 460 1 l 497 29 b 419 129 440 29 419 52 z "},"2":{"ha":768,"x_min":0,"x_max":0,"o":"m 410 741 b 52 567 218 741 117 664 l 75 550 b 261 643 123 608 179 643 b 385 507 345 643 385 602 b 50 29 385 293 150 127 l 50 0 l 507 0 b 714 -7 590 0 689 -1 b 708 261 710 53 708 121 l 676 261 b 583 204 669 218 660 204 l 269 204 b 659 562 387 309 659 387 b 410 741 659 675 562 741 z "},"3":{"ha":711,"x_min":0,"x_max":0,"o":"m 359 741 b 43 567 182 741 97 657 l 68 553 b 248 652 111 616 176 652 b 372 530 325 652 372 612 b 265 354 372 469 346 407 b 216 358 248 355 232 358 b 167 326 191 358 167 350 b 195 304 167 309 178 304 b 271 328 220 304 243 315 b 415 136 361 321 415 244 b 33 -180 415 -69 196 -174 l 33 -210 b 672 138 332 -210 672 -77 b 340 351 672 271 541 351 b 290 350 324 351 307 351 b 623 579 510 380 623 476 b 359 741 623 681 510 741 z "},"4":{"ha":764,"x_min":0,"x_max":0,"o":"m 726 26 b 721 267 722 81 721 140 l 689 267 b 596 210 682 224 672 210 l 587 210 l 587 741 l 566 741 l 3 62 l 3 33 l 393 33 l 393 -196 l 587 -196 l 587 33 b 726 26 651 31 711 30 z m 393 210 l 163 210 l 393 489 z "},"5":{"ha":679,"x_min":0,"x_max":0,"o":"m 550 762 b 485 720 546 730 525 720 l 208 720 b 134 725 182 720 154 721 l 78 277 l 100 261 b 233 313 138 293 176 313 b 382 135 332 313 382 249 b 28 -180 382 -64 204 -179 l 28 -205 b 639 140 321 -205 639 -75 b 351 363 639 262 549 363 b 110 298 240 363 158 335 l 136 515 l 395 515 b 587 509 472 515 564 514 b 582 762 583 566 582 629 z "},"6":{"ha":821,"x_min":0,"x_max":0,"o":"m 498 614 b 328 536 428 614 365 591 b 673 977 368 854 522 928 l 668 1004 b 58 376 425 968 58 793 b 412 -20 58 125 192 -20 b 786 314 612 -20 786 98 b 498 614 786 498 659 614 z m 428 8 b 318 363 376 8 318 97 b 322 480 318 405 319 444 b 429 574 349 548 398 574 b 526 301 484 574 526 500 b 428 8 526 90 478 8 z "},"7":{"ha":677,"x_min":0,"x_max":0,"o":"m 684 720 l 236 720 b 29 726 153 720 54 721 b 35 458 33 667 35 599 l 66 458 b 160 515 74 501 83 515 l 556 515 b 191 -54 424 357 191 141 b 317 -205 191 -146 231 -205 b 443 -83 406 -205 443 -143 b 436 31 443 -58 436 31 b 684 690 436 317 612 538 z "},"8":{"ha":817,"x_min":0,"x_max":0,"o":"m 518 602 b 720 806 648 661 720 718 b 418 1003 720 918 600 1003 b 97 771 254 1003 97 935 b 279 473 97 649 184 558 b 52 221 150 420 52 343 b 401 -20 52 64 215 -20 b 770 240 614 -20 770 90 b 518 602 770 379 637 492 z m 410 978 b 525 799 481 978 525 914 b 498 621 525 758 519 672 b 330 885 408 706 330 790 b 410 978 330 939 355 978 z m 408 5 b 257 249 293 5 257 114 b 301 453 257 316 266 397 b 526 134 412 356 526 262 b 408 5 526 64 493 5 z "},"9":{"ha":808,"x_min":0,"x_max":0,"o":"m 406 741 b 32 407 205 741 32 623 b 319 107 32 222 160 107 b 486 180 387 107 449 128 b 158 -186 443 -80 300 -146 l 164 -214 b 760 345 401 -184 760 -24 b 406 741 760 596 627 741 z m 389 147 b 292 419 335 147 292 221 b 390 713 292 631 340 713 b 500 358 441 713 500 624 b 494 235 500 313 498 273 b 389 147 467 172 419 147 z "},"A":{"ha":961,"x_min":0,"x_max":0,"o":"m 553 983 b 480 981 531 981 505 981 b 407 983 455 981 429 981 l 98 191 b -29 28 54 75 14 35 l -29 0 b 78 4 -1 3 41 4 b 260 0 142 4 191 3 l 260 28 b 134 129 186 31 134 47 b 179 310 134 170 148 229 l 203 372 l 483 372 l 566 144 b 583 79 576 116 583 95 b 485 28 583 41 551 31 l 485 0 b 718 4 534 3 624 4 b 971 0 810 4 904 3 l 971 28 b 889 117 946 29 914 53 z m 473 400 l 214 400 l 347 747 z "},"Á":{"ha":961,"x_min":0,"x_max":0,"o":"m 675 1143 b 728 1225 708 1159 728 1192 b 720 1261 728 1237 725 1249 b 632 1314 702 1297 666 1314 b 589 1304 616 1314 602 1310 b 370 1089 521 1272 505 1203 l 379 1072 b 675 1143 542 1122 611 1109 z m 553 983 b 480 981 531 981 505 981 b 407 983 455 981 429 981 l 98 191 b -29 28 54 75 14 35 l -29 0 b 78 4 -1 3 41 4 b 260 0 142 4 191 3 l 260 28 b 134 129 186 31 134 47 b 179 310 134 170 148 229 l 203 372 l 483 372 l 566 144 b 583 79 576 116 583 95 b 485 28 583 41 551 31 l 485 0 b 718 4 534 3 624 4 b 971 0 810 4 904 3 l 971 28 b 889 117 946 29 914 53 z m 473 400 l 214 400 l 347 747 z "},"Ă":{"ha":961,"x_min":0,"x_max":0,"o":"m 468 1060 b 800 1263 657 1060 764 1169 l 783 1278 b 468 1197 729 1243 629 1197 b 153 1278 307 1197 207 1243 l 136 1263 b 468 1060 172 1169 279 1060 z m 553 983 b 480 981 531 981 505 981 b 407 983 455 981 429 981 l 98 191 b -29 28 54 75 14 35 l -29 0 b 78 4 -1 3 41 4 b 260 0 142 4 191 3 l 260 28 b 134 129 186 31 134 47 b 179 310 134 170 148 229 l 203 372 l 483 372 l 566 144 b 583 79 576 116 583 95 b 485 28 583 41 551 31 l 485 0 b 718 4 534 3 624 4 b 971 0 810 4 904 3 l 971 28 b 889 117 946 29 914 53 z m 473 400 l 214 400 l 347 747 z "},"Â":{"ha":961,"x_min":0,"x_max":0,"o":"m 454 1153 b 789 1068 527 1122 661 1088 l 796 1089 b 495 1328 674 1147 560 1240 l 470 1328 b 168 1089 401 1239 289 1146 l 176 1068 b 454 1153 281 1088 393 1122 z m 553 983 b 480 981 531 981 505 981 b 407 983 455 981 429 981 l 98 191 b -29 28 54 75 14 35 l -29 0 b 78 4 -1 3 41 4 b 260 0 142 4 191 3 l 260 28 b 134 129 186 31 134 47 b 179 310 134 170 148 229 l 203 372 l 483 372 l 566 144 b 583 79 576 116 583 95 b 485 28 583 41 551 31 l 485 0 b 718 4 534 3 624 4 b 971 0 810 4 904 3 l 971 28 b 889 117 946 29 914 53 z m 473 400 l 214 400 l 347 747 z "},"Ä":{"ha":961,"x_min":0,"x_max":0,"o":"m 303 1059 b 424 1179 367 1059 424 1112 b 303 1300 424 1243 367 1300 b 182 1179 237 1300 182 1243 b 303 1059 182 1112 237 1059 z m 661 1059 b 782 1179 725 1059 782 1112 b 661 1300 782 1243 725 1300 b 541 1179 595 1300 541 1243 b 661 1059 541 1112 595 1059 z m 553 983 b 480 981 531 981 505 981 b 407 983 455 981 429 981 l 98 191 b -29 28 54 75 14 35 l -29 0 b 78 4 -1 3 41 4 b 260 0 142 4 191 3 l 260 28 b 134 129 186 31 134 47 b 179 310 134 170 148 229 l 203 372 l 483 372 l 566 144 b 583 79 576 116 583 95 b 485 28 583 41 551 31 l 485 0 b 718 4 534 3 624 4 b 971 0 810 4 904 3 l 971 28 b 889 117 946 29 914 53 z m 473 400 l 214 400 l 347 747 z "},"À":{"ha":961,"x_min":0,"x_max":0,"o":"m 270 1143 b 566 1072 334 1109 403 1122 l 575 1089 b 356 1304 441 1203 424 1272 b 313 1314 343 1310 328 1314 b 225 1261 279 1314 243 1297 b 217 1225 220 1249 217 1237 b 270 1143 217 1192 237 1160 z m 553 983 b 480 981 531 981 505 981 b 407 983 455 981 429 981 l 98 191 b -29 28 54 75 14 35 l -29 0 b 78 4 -1 3 41 4 b 260 0 142 4 191 3 l 260 28 b 134 129 186 31 134 47 b 179 310 134 170 148 229 l 203 372 l 483 372 l 566 144 b 583 79 576 116 583 95 b 485 28 583 41 551 31 l 485 0 b 718 4 534 3 624 4 b 971 0 810 4 904 3 l 971 28 b 889 117 946 29 914 53 z m 473 400 l 214 400 l 347 747 z "},"Ā":{"ha":961,"x_min":0,"x_max":0,"o":"m 782 1137 l 782 1173 l 182 1173 l 182 1137 z m 553 983 b 480 981 531 981 505 981 b 407 983 455 981 429 981 l 98 191 b -29 28 54 75 14 35 l -29 0 b 78 4 -1 3 41 4 b 260 0 142 4 191 3 l 260 28 b 134 129 186 31 134 47 b 179 310 134 170 148 229 l 203 372 l 483 372 l 566 144 b 583 79 576 116 583 95 b 485 28 583 41 551 31 l 485 0 b 718 4 534 3 624 4 b 971 0 810 4 904 3 l 971 28 b 889 117 946 29 914 53 z m 473 400 l 214 400 l 347 747 z "},"Ą":{"ha":961,"x_min":0,"x_max":0,"o":"m 971 0 l 971 28 b 889 117 946 29 914 53 l 553 983 b 480 980 530 981 505 980 b 407 983 454 980 429 981 l 98 191 b -29 28 54 75 14 35 l -29 0 b 78 4 -1 3 41 4 b 260 0 142 4 191 3 l 260 28 b 134 129 186 31 134 47 b 179 310 134 170 148 229 l 203 372 l 483 372 l 566 144 b 583 79 576 116 583 95 b 485 28 583 41 551 31 l 485 0 b 718 4 534 3 624 4 b 892 2 778 4 838 3 b 613 -163 717 -27 613 -83 b 750 -261 613 -225 660 -261 b 963 -167 848 -261 909 -233 l 945 -146 b 853 -178 924 -164 884 -178 b 798 -125 816 -178 798 -163 b 945 1 798 -87 837 -37 z m 473 400 l 214 400 l 347 747 z "},"Å":{"ha":961,"x_min":0,"x_max":0,"o":"m 482 1031 b 645 1173 568 1031 645 1084 b 482 1312 645 1258 568 1312 b 321 1173 397 1312 321 1258 b 482 1031 321 1084 397 1031 z m 482 1283 b 606 1171 542 1283 606 1243 b 482 1060 606 1096 542 1060 b 360 1171 424 1060 360 1096 b 482 1283 360 1243 424 1283 z m 553 983 b 480 981 531 981 505 981 b 407 983 455 981 429 981 l 98 191 b -29 28 54 75 14 35 l -29 0 b 78 4 -1 3 41 4 b 260 0 142 4 191 3 l 260 28 b 134 129 186 31 134 47 b 179 310 134 170 148 229 l 203 372 l 483 372 l 566 144 b 583 79 576 116 583 95 b 485 28 583 41 551 31 l 485 0 b 718 4 534 3 624 4 b 971 0 810 4 904 3 l 971 28 b 889 117 946 29 914 53 z m 473 400 l 214 400 l 347 747 z "},"Ã":{"ha":961,"x_min":0,"x_max":0,"o":"m 300 1156 b 609 1063 420 1156 459 1063 b 814 1275 695 1063 777 1124 l 795 1284 b 661 1211 755 1232 710 1211 b 353 1303 541 1211 502 1303 b 146 1090 266 1303 184 1242 l 165 1080 b 300 1156 206 1133 250 1156 z m 553 983 b 480 981 531 981 505 981 b 407 983 455 981 429 981 l 98 191 b -29 28 54 75 14 35 l -29 0 b 78 4 -1 3 41 4 b 260 0 142 4 191 3 l 260 28 b 134 129 186 31 134 47 b 179 310 134 170 148 229 l 203 372 l 483 372 l 566 144 b 583 79 576 116 583 95 b 485 28 583 41 551 31 l 485 0 b 718 4 534 3 624 4 b 971 0 810 4 904 3 l 971 28 b 889 117 946 29 914 53 z m 473 400 l 214 400 l 347 747 z "},"Æ":{"ha":1267,"x_min":0,"x_max":0,"o":"m 1197 205 b 1202 334 1197 256 1198 300 l 1169 334 b 970 32 1145 104 1039 32 l 924 32 b 825 147 842 32 825 46 l 825 481 l 880 481 b 1018 311 977 481 1003 393 l 1050 311 b 1042 494 1043 410 1042 452 b 1041 556 1042 513 1041 532 b 1046 677 1041 586 1042 623 l 1014 677 b 880 509 999 616 977 509 l 825 509 l 825 836 b 924 951 825 937 842 951 l 942 951 b 1141 677 1028 951 1112 886 l 1174 677 b 1169 778 1171 701 1169 739 b 1179 983 1169 818 1173 901 b 889 979 1093 979 974 979 b 604 981 828 979 716 979 l 657 1072 l 624 1072 l 571 981 b 444 983 527 981 484 982 l 444 956 b 534 917 496 953 522 947 l 72 117 b -24 28 33 50 5 29 l -24 0 b 69 4 -1 3 36 4 b 196 0 119 4 168 3 l 196 28 b 100 77 133 31 100 43 b 125 144 100 94 109 115 l 318 481 l 543 481 l 543 147 b 444 28 543 46 529 32 l 444 0 b 889 4 593 4 798 4 b 1207 0 982 4 1112 4 b 1197 205 1197 81 1197 165 z m 543 509 l 334 509 l 543 872 b 543 836 543 861 543 850 z "},"B":{"ha":978,"x_min":0,"x_max":0,"o":"m 557 518 b 878 764 777 546 878 665 b 501 982 878 892 754 982 b 278 979 465 982 371 979 b 39 983 189 979 92 981 l 39 956 b 138 836 122 951 138 937 l 138 147 b 39 28 138 46 123 32 l 39 0 b 281 4 92 3 187 4 b 533 0 401 4 489 0 b 950 269 791 0 950 83 b 557 515 950 382 843 501 z m 494 956 b 591 749 566 956 591 885 b 457 522 591 628 566 522 l 419 522 l 419 836 b 494 956 419 932 432 956 z m 510 32 b 419 147 435 32 419 50 l 419 498 l 439 498 b 659 275 596 498 659 416 b 510 32 659 119 614 32 z "},"C":{"ha":996,"x_min":0,"x_max":0,"o":"m 575 1003 b 50 484 267 1003 50 794 b 574 -20 50 165 260 -20 b 831 71 693 -20 762 22 b 859 82 842 78 852 82 b 893 0 879 82 888 57 l 925 0 b 920 361 921 77 920 179 l 888 361 b 760 60 875 210 852 117 b 631 18 721 35 676 18 b 370 489 418 18 370 281 b 631 960 370 697 418 960 b 760 918 676 960 721 943 b 888 636 852 857 875 770 l 920 636 b 925 983 920 811 921 909 l 893 983 b 858 901 888 926 877 901 b 831 913 850 901 841 905 b 575 1003 770 960 697 1003 z "},"Ć":{"ha":996,"x_min":0,"x_max":0,"o":"m 648 1304 b 428 1089 579 1272 563 1203 l 437 1072 b 734 1143 600 1122 669 1109 b 786 1225 766 1159 786 1192 b 778 1261 786 1237 783 1249 b 690 1314 760 1297 724 1314 b 648 1304 675 1314 660 1310 z m 575 1003 b 50 484 267 1003 50 794 b 574 -20 50 165 260 -20 b 831 71 693 -20 762 22 b 859 82 842 78 852 82 b 893 0 879 82 888 57 l 925 0 b 920 361 921 77 920 179 l 888 361 b 760 60 875 210 852 117 b 631 18 721 35 676 18 b 370 489 418 18 370 281 b 631 960 370 697 418 960 b 760 918 676 960 721 943 b 888 636 852 857 875 770 l 920 636 b 925 983 920 811 921 909 l 893 983 b 858 901 888 926 877 901 b 831 913 850 901 841 905 b 575 1003 770 960 697 1003 z "},"Č":{"ha":996,"x_min":0,"x_max":0,"o":"m 844 1314 b 564 1229 738 1295 625 1260 b 230 1314 492 1260 357 1295 l 222 1293 b 524 1054 345 1235 458 1141 l 549 1054 b 850 1293 617 1143 730 1236 z m 575 1003 b 50 484 267 1003 50 794 b 574 -20 50 165 260 -20 b 831 71 693 -20 762 22 b 859 82 842 78 852 82 b 893 0 879 82 888 57 l 925 0 b 920 361 921 77 920 179 l 888 361 b 760 60 875 210 852 117 b 631 18 721 35 676 18 b 370 489 418 18 370 281 b 631 960 370 697 418 960 b 760 918 676 960 721 943 b 888 636 852 857 875 770 l 920 636 b 925 983 920 811 921 909 l 893 983 b 858 901 888 926 877 901 b 831 913 850 901 841 905 b 575 1003 770 960 697 1003 z "},"Ç":{"ha":996,"x_min":0,"x_max":0,"o":"m 888 361 b 760 60 875 210 852 117 b 631 18 721 35 676 18 b 370 489 418 18 370 281 b 631 960 370 697 418 960 b 760 918 676 960 721 943 b 888 636 852 857 875 770 l 920 636 b 925 983 920 811 921 909 l 893 983 b 858 901 888 926 877 901 b 831 913 850 901 841 905 b 575 1003 770 960 697 1003 b 50 484 267 1003 50 794 b 554 -20 50 172 251 -12 l 517 -147 b 563 -138 529 -140 547 -138 b 629 -172 603 -138 629 -147 b 502 -225 629 -210 563 -225 b 421 -218 468 -225 436 -221 l 412 -243 b 551 -261 446 -254 496 -261 b 812 -143 703 -261 812 -224 b 696 -62 812 -97 775 -62 b 572 -83 649 -62 610 -69 l 591 -20 b 831 71 700 -16 766 25 b 859 82 842 78 852 82 b 893 0 879 82 888 57 l 925 0 b 920 361 921 77 920 179 z "},"Ĉ":{"ha":996,"x_min":0,"x_max":0,"o":"m 528 1328 b 227 1089 460 1239 347 1146 l 234 1068 b 513 1153 339 1088 452 1122 b 848 1068 585 1122 720 1088 l 854 1089 b 553 1328 732 1147 618 1240 z m 575 1003 b 50 484 267 1003 50 794 b 574 -20 50 165 260 -20 b 831 71 693 -20 762 22 b 859 82 842 78 852 82 b 893 0 879 82 888 57 l 925 0 b 920 361 921 77 920 179 l 888 361 b 760 60 875 210 852 117 b 631 18 721 35 676 18 b 370 489 418 18 370 281 b 631 960 370 697 418 960 b 760 918 676 960 721 943 b 888 636 852 857 875 770 l 920 636 b 925 983 920 811 921 909 l 893 983 b 858 901 888 926 877 901 b 831 913 850 901 841 905 b 575 1003 770 960 697 1003 z "},"Ċ":{"ha":996,"x_min":0,"x_max":0,"o":"m 542 1295 b 404 1175 453 1295 404 1254 b 542 1055 404 1096 453 1055 b 679 1175 629 1055 679 1096 b 542 1295 679 1254 629 1295 z m 575 1003 b 50 484 267 1003 50 794 b 574 -20 50 165 260 -20 b 831 71 693 -20 762 22 b 859 82 842 78 852 82 b 893 0 879 82 888 57 l 925 0 b 920 361 921 77 920 179 l 888 361 b 760 60 875 210 852 117 b 631 18 721 35 676 18 b 370 489 418 18 370 281 b 631 960 370 697 418 960 b 760 918 676 960 721 943 b 888 636 852 857 875 770 l 920 636 b 925 983 920 811 921 909 l 893 983 b 858 901 888 926 877 901 b 831 913 850 901 841 905 b 575 1003 770 960 697 1003 z "},"D":{"ha":1126,"x_min":0,"x_max":0,"o":"m 501 983 b 278 979 444 983 346 981 b 229 979 262 979 245 979 b 39 983 155 979 82 981 l 39 956 b 138 836 122 951 138 937 l 138 147 b 39 28 138 46 123 32 l 39 0 b 281 4 92 3 187 4 b 489 0 345 4 444 0 b 1075 503 859 0 1075 200 b 501 983 1075 812 890 983 z m 522 958 b 783 497 704 958 783 808 b 524 25 783 195 713 25 b 419 144 437 25 419 47 l 419 839 b 522 958 419 935 437 958 z "},"Ð":{"ha":1126,"x_min":0,"x_max":0,"o":"m 501 983 b 278 979 444 983 346 981 b 229 979 262 979 245 979 b 39 983 155 979 82 981 l 39 956 b 138 836 122 951 138 937 l 138 509 l 39 509 l 39 481 l 138 481 l 138 147 b 39 28 138 46 123 32 l 39 0 b 281 4 92 3 187 4 b 489 0 345 4 444 0 b 1075 503 859 0 1075 200 b 501 983 1075 812 890 983 z m 524 25 b 419 144 437 25 419 47 l 419 481 l 578 481 l 578 509 l 419 509 l 419 839 b 522 958 419 935 437 958 b 783 497 704 958 783 808 b 524 25 783 195 713 25 z "},"Ď":{"ha":1126,"x_min":0,"x_max":0,"o":"m 804 1314 b 525 1229 699 1295 586 1260 b 191 1314 453 1260 318 1295 l 183 1293 b 485 1054 306 1235 419 1141 l 510 1054 b 811 1293 578 1143 690 1236 z m 501 983 b 278 979 444 983 346 981 b 229 979 262 979 245 979 b 39 983 155 979 82 981 l 39 956 b 138 836 122 951 138 937 l 138 147 b 39 28 138 46 123 32 l 39 0 b 281 4 92 3 187 4 b 489 0 345 4 444 0 b 1075 503 859 0 1075 200 b 501 983 1075 812 890 983 z m 522 958 b 783 497 704 958 783 808 b 524 25 783 195 713 25 b 419 144 437 25 419 47 l 419 839 b 522 958 419 935 437 958 z "},"Đ":{"ha":1126,"x_min":0,"x_max":0,"o":"m 501 983 b 278 979 444 983 346 981 b 229 979 262 979 245 979 b 39 983 155 979 82 981 l 39 956 b 138 836 122 951 138 937 l 138 509 l 39 509 l 39 481 l 138 481 l 138 147 b 39 28 138 46 123 32 l 39 0 b 281 4 92 3 187 4 b 489 0 345 4 444 0 b 1075 503 859 0 1075 200 b 501 983 1075 812 890 983 z m 524 25 b 419 144 437 25 419 47 l 419 481 l 578 481 l 578 509 l 419 509 l 419 839 b 522 958 419 935 437 958 b 783 497 704 958 783 808 b 524 25 783 195 713 25 z "},"E":{"ha":903,"x_min":0,"x_max":0,"o":"m 833 233 b 838 361 833 283 835 328 l 806 361 b 550 32 761 110 642 32 l 504 32 b 419 119 432 32 419 43 l 419 481 l 433 481 b 627 297 538 481 610 400 l 659 297 b 650 494 652 403 650 449 b 649 557 650 514 649 533 b 654 692 649 589 650 631 l 623 692 b 433 509 606 611 538 509 l 419 509 l 419 864 b 504 951 419 940 432 951 l 522 951 b 778 650 636 951 743 880 l 810 650 b 806 750 807 673 806 711 b 815 983 806 796 808 890 b 525 979 729 979 610 979 b 39 983 425 979 200 979 l 39 956 b 138 836 122 951 138 937 l 138 147 b 39 28 138 46 123 32 l 39 0 b 525 4 200 4 425 4 b 843 0 618 4 749 4 b 833 233 833 92 833 187 z "},"É":{"ha":903,"x_min":0,"x_max":0,"o":"m 637 1143 b 690 1225 670 1159 690 1192 b 682 1261 690 1237 687 1249 b 594 1314 664 1297 628 1314 b 551 1304 578 1314 564 1310 b 332 1089 483 1272 467 1203 l 341 1072 b 637 1143 504 1122 573 1109 z m 833 233 b 838 361 833 283 835 328 l 806 361 b 550 32 761 110 642 32 l 504 32 b 419 119 432 32 419 43 l 419 481 l 433 481 b 627 297 538 481 610 400 l 659 297 b 650 494 652 403 650 449 b 649 557 650 514 649 533 b 654 692 649 589 650 631 l 623 692 b 433 509 606 611 538 509 l 419 509 l 419 864 b 504 951 419 940 432 951 l 522 951 b 778 650 636 951 743 880 l 810 650 b 806 750 807 673 806 711 b 815 983 806 796 808 890 b 525 979 729 979 610 979 b 39 983 425 979 200 979 l 39 956 b 138 836 122 951 138 937 l 138 147 b 39 28 138 46 123 32 l 39 0 b 525 4 200 4 425 4 b 843 0 618 4 749 4 b 833 233 833 92 833 187 z "},"Ĕ":{"ha":903,"x_min":0,"x_max":0,"o":"m 430 1060 b 762 1263 619 1060 726 1169 l 745 1278 b 430 1197 691 1243 591 1197 b 115 1278 269 1197 169 1243 l 98 1263 b 430 1060 134 1169 241 1060 z m 833 233 b 838 361 833 283 835 328 l 806 361 b 550 32 761 110 642 32 l 504 32 b 419 119 432 32 419 43 l 419 481 l 433 481 b 627 297 538 481 610 400 l 659 297 b 650 494 652 403 650 449 b 649 557 650 514 649 533 b 654 692 649 589 650 631 l 623 692 b 433 509 606 611 538 509 l 419 509 l 419 864 b 504 951 419 940 432 951 l 522 951 b 778 650 636 951 743 880 l 810 650 b 806 750 807 673 806 711 b 815 983 806 796 808 890 b 525 979 729 979 610 979 b 39 983 425 979 200 979 l 39 956 b 138 836 122 951 138 937 l 138 147 b 39 28 138 46 123 32 l 39 0 b 525 4 200 4 425 4 b 843 0 618 4 749 4 b 833 233 833 92 833 187 z "},"Ě":{"ha":903,"x_min":0,"x_max":0,"o":"m 453 1054 b 754 1293 521 1143 633 1236 l 747 1314 b 468 1229 642 1295 529 1260 b 134 1314 396 1260 261 1295 l 126 1293 b 428 1054 249 1235 362 1141 z m 833 233 b 838 361 833 283 835 328 l 806 361 b 550 32 761 110 642 32 l 504 32 b 419 119 432 32 419 43 l 419 481 l 433 481 b 627 297 538 481 610 400 l 659 297 b 650 494 652 403 650 449 b 649 557 650 514 649 533 b 654 692 649 589 650 631 l 623 692 b 433 509 606 611 538 509 l 419 509 l 419 864 b 504 951 419 940 432 951 l 522 951 b 778 650 636 951 743 880 l 810 650 b 806 750 807 673 806 711 b 815 983 806 796 808 890 b 525 979 729 979 610 979 b 39 983 425 979 200 979 l 39 956 b 138 836 122 951 138 937 l 138 147 b 39 28 138 46 123 32 l 39 0 b 525 4 200 4 425 4 b 843 0 618 4 749 4 b 833 233 833 92 833 187 z "},"Ê":{"ha":903,"x_min":0,"x_max":0,"o":"m 416 1153 b 751 1068 489 1122 623 1088 l 758 1089 b 457 1328 636 1147 522 1240 l 432 1328 b 130 1089 363 1239 251 1146 l 138 1068 b 416 1153 243 1088 355 1122 z m 833 233 b 838 361 833 283 835 328 l 806 361 b 550 32 761 110 642 32 l 504 32 b 419 119 432 32 419 43 l 419 481 l 433 481 b 627 297 538 481 610 400 l 659 297 b 650 494 652 403 650 449 b 649 557 650 514 649 533 b 654 692 649 589 650 631 l 623 692 b 433 509 606 611 538 509 l 419 509 l 419 864 b 504 951 419 940 432 951 l 522 951 b 778 650 636 951 743 880 l 810 650 b 806 750 807 673 806 711 b 815 983 806 796 808 890 b 525 979 729 979 610 979 b 39 983 425 979 200 979 l 39 956 b 138 836 122 951 138 937 l 138 147 b 39 28 138 46 123 32 l 39 0 b 525 4 200 4 425 4 b 843 0 618 4 749 4 b 833 233 833 92 833 187 z "},"Ë":{"ha":903,"x_min":0,"x_max":0,"o":"m 265 1059 b 386 1179 329 1059 386 1112 b 265 1300 386 1243 329 1300 b 144 1179 199 1300 144 1243 b 265 1059 144 1112 199 1059 z m 623 1059 b 744 1179 687 1059 744 1112 b 623 1300 744 1243 687 1300 b 503 1179 557 1300 503 1243 b 623 1059 503 1112 557 1059 z m 833 233 b 838 361 833 283 835 328 l 806 361 b 550 32 761 110 642 32 l 504 32 b 419 119 432 32 419 43 l 419 481 l 433 481 b 627 297 538 481 610 400 l 659 297 b 650 494 652 403 650 449 b 649 557 650 514 649 533 b 654 692 649 589 650 631 l 623 692 b 433 509 606 611 538 509 l 419 509 l 419 864 b 504 951 419 940 432 951 l 522 951 b 778 650 636 951 743 880 l 810 650 b 806 750 807 673 806 711 b 815 983 806 796 808 890 b 525 979 729 979 610 979 b 39 983 425 979 200 979 l 39 956 b 138 836 122 951 138 937 l 138 147 b 39 28 138 46 123 32 l 39 0 b 525 4 200 4 425 4 b 843 0 618 4 749 4 b 833 233 833 92 833 187 z "},"Ė":{"ha":903,"x_min":0,"x_max":0,"o":"m 446 1055 b 583 1175 533 1055 583 1096 b 446 1295 583 1254 533 1295 b 308 1175 357 1295 308 1254 b 446 1055 308 1096 357 1055 z m 833 233 b 838 361 833 283 835 328 l 806 361 b 550 32 761 110 642 32 l 504 32 b 419 119 432 32 419 43 l 419 481 l 433 481 b 627 297 538 481 610 400 l 659 297 b 650 494 652 403 650 449 b 649 557 650 514 649 533 b 654 692 649 589 650 631 l 623 692 b 433 509 606 611 538 509 l 419 509 l 419 864 b 504 951 419 940 432 951 l 522 951 b 778 650 636 951 743 880 l 810 650 b 806 750 807 673 806 711 b 815 983 806 796 808 890 b 525 979 729 979 610 979 b 39 983 425 979 200 979 l 39 956 b 138 836 122 951 138 937 l 138 147 b 39 28 138 46 123 32 l 39 0 b 525 4 200 4 425 4 b 843 0 618 4 749 4 b 833 233 833 92 833 187 z "},"È":{"ha":903,"x_min":0,"x_max":0,"o":"m 232 1143 b 528 1072 296 1109 365 1122 l 537 1089 b 318 1304 403 1203 386 1272 b 275 1314 305 1310 290 1314 b 187 1261 241 1314 205 1297 b 179 1225 182 1249 179 1237 b 232 1143 179 1192 199 1160 z m 833 233 b 838 361 833 283 835 328 l 806 361 b 550 32 761 110 642 32 l 504 32 b 419 119 432 32 419 43 l 419 481 l 433 481 b 627 297 538 481 610 400 l 659 297 b 650 494 652 403 650 449 b 649 557 650 514 649 533 b 654 692 649 589 650 631 l 623 692 b 433 509 606 611 538 509 l 419 509 l 419 864 b 504 951 419 940 432 951 l 522 951 b 778 650 636 951 743 880 l 810 650 b 806 750 807 673 806 711 b 815 983 806 796 808 890 b 525 979 729 979 610 979 b 39 983 425 979 200 979 l 39 956 b 138 836 122 951 138 937 l 138 147 b 39 28 138 46 123 32 l 39 0 b 525 4 200 4 425 4 b 843 0 618 4 749 4 b 833 233 833 92 833 187 z "},"Ē":{"ha":903,"x_min":0,"x_max":0,"o":"m 744 1137 l 744 1173 l 144 1173 l 144 1137 z m 833 233 b 838 361 833 283 835 328 l 806 361 b 550 32 761 110 642 32 l 504 32 b 419 119 432 32 419 43 l 419 481 l 433 481 b 627 297 538 481 610 400 l 659 297 b 650 494 652 403 650 449 b 649 557 650 514 649 533 b 654 692 649 589 650 631 l 623 692 b 433 509 606 611 538 509 l 419 509 l 419 864 b 504 951 419 940 432 951 l 522 951 b 778 650 636 951 743 880 l 810 650 b 806 750 807 673 806 711 b 815 983 806 796 808 890 b 525 979 729 979 610 979 b 39 983 425 979 200 979 l 39 956 b 138 836 122 951 138 937 l 138 147 b 39 28 138 46 123 32 l 39 0 b 525 4 200 4 425 4 b 843 0 618 4 749 4 b 833 233 833 92 833 187 z "},"Ę":{"ha":903,"x_min":0,"x_max":0,"o":"m 828 -146 b 736 -178 807 -164 767 -178 b 681 -125 699 -178 681 -163 b 827 1 681 -87 720 -37 l 843 0 b 833 233 833 92 833 187 b 838 361 833 283 835 328 l 806 361 b 550 32 761 110 642 32 l 504 32 b 419 119 432 32 419 43 l 419 481 l 433 481 b 627 297 538 481 610 400 l 659 297 b 650 494 652 403 650 449 b 649 557 650 514 649 533 b 654 692 649 589 650 631 l 623 692 b 433 509 606 611 538 509 l 419 509 l 419 864 b 504 951 419 940 432 951 l 522 951 b 778 650 636 951 743 880 l 810 650 b 806 750 807 673 806 711 b 815 983 806 796 808 890 b 525 979 729 979 610 979 b 39 983 425 979 200 979 l 39 956 b 138 836 122 951 138 937 l 138 147 b 39 28 138 46 123 32 l 39 0 b 525 4 200 4 425 4 b 774 2 597 4 691 4 b 496 -163 600 -28 496 -84 b 633 -261 496 -225 543 -261 b 846 -167 731 -261 792 -233 z "},"F":{"ha":844,"x_min":0,"x_max":0,"o":"m 815 983 b 525 979 729 979 610 979 b 39 983 425 979 200 979 l 39 956 b 138 836 122 951 138 937 l 138 147 b 39 28 138 46 123 32 l 39 0 b 288 4 114 1 203 4 b 574 0 403 4 511 1 l 574 32 b 419 161 446 32 419 47 l 419 481 l 433 481 b 627 297 538 481 610 400 l 659 297 b 650 494 652 403 650 449 b 649 557 650 514 649 533 b 654 692 649 589 650 631 l 623 692 b 433 509 606 611 538 509 l 419 509 l 419 864 b 504 951 419 940 432 951 l 522 951 b 778 650 623 951 729 880 l 810 650 b 806 750 807 673 806 711 b 815 983 806 796 808 890 z "},"G":{"ha":1050,"x_min":0,"x_max":0,"o":"m 589 1003 b 50 484 272 1003 50 794 b 572 -20 50 167 224 -20 b 807 47 652 -20 734 12 b 901 79 864 75 886 79 b 945 0 930 79 943 32 l 972 0 l 972 275 b 1029 395 972 378 982 390 l 1029 422 b 815 418 982 419 904 418 b 550 422 732 418 612 419 l 550 395 b 690 233 667 390 690 368 l 690 94 b 661 25 690 61 681 39 b 593 8 644 14 623 8 b 370 489 458 8 370 155 b 644 960 370 697 431 960 b 787 918 693 960 749 945 b 916 636 879 856 903 770 l 947 636 b 953 983 947 811 949 909 l 921 983 b 886 900 916 926 905 900 b 859 913 878 900 868 904 b 589 1003 796 962 718 1003 z "},"Ǵ":{"ha":1050,"x_min":0,"x_max":0,"o":"m 667 1304 b 447 1089 598 1272 582 1203 l 456 1072 b 753 1143 619 1122 688 1109 b 805 1225 785 1159 805 1192 b 797 1261 805 1237 802 1249 b 709 1314 779 1297 743 1314 b 667 1304 694 1314 679 1310 z m 589 1003 b 50 484 272 1003 50 794 b 572 -20 50 167 224 -20 b 807 47 652 -20 734 12 b 901 79 864 75 886 79 b 945 0 930 79 943 32 l 972 0 l 972 275 b 1029 395 972 378 982 390 l 1029 422 b 815 418 982 419 904 418 b 550 422 732 418 612 419 l 550 395 b 690 233 667 390 690 368 l 690 94 b 661 25 690 61 681 39 b 593 8 644 14 623 8 b 370 489 458 8 370 155 b 644 960 370 697 431 960 b 787 918 693 960 749 945 b 916 636 879 856 903 770 l 947 636 b 953 983 947 811 949 909 l 921 983 b 886 900 916 926 905 900 b 859 913 878 900 868 904 b 589 1003 796 962 718 1003 z "},"Ğ":{"ha":1050,"x_min":0,"x_max":0,"o":"m 861 1278 b 545 1197 806 1243 707 1197 b 230 1278 385 1197 284 1243 l 214 1263 b 545 1060 250 1169 357 1060 b 878 1263 734 1060 841 1169 z m 589 1003 b 50 484 272 1003 50 794 b 572 -20 50 167 224 -20 b 807 47 652 -20 734 12 b 901 79 864 75 886 79 b 945 0 930 79 943 32 l 972 0 l 972 275 b 1029 395 972 378 982 390 l 1029 422 b 815 418 982 419 904 418 b 550 422 732 418 612 419 l 550 395 b 690 233 667 390 690 368 l 690 94 b 661 25 690 61 681 39 b 593 8 644 14 623 8 b 370 489 458 8 370 155 b 644 960 370 697 431 960 b 787 918 693 960 749 945 b 916 636 879 856 903 770 l 947 636 b 953 983 947 811 949 909 l 921 983 b 886 900 916 926 905 900 b 859 913 878 900 868 904 b 589 1003 796 962 718 1003 z "},"Ĝ":{"ha":1050,"x_min":0,"x_max":0,"o":"m 547 1328 b 245 1089 479 1239 366 1146 l 253 1068 b 532 1153 358 1088 471 1122 b 867 1068 604 1122 739 1088 l 873 1089 b 572 1328 751 1147 637 1240 z m 589 1003 b 50 484 272 1003 50 794 b 572 -20 50 167 224 -20 b 807 47 652 -20 734 12 b 901 79 864 75 886 79 b 945 0 930 79 943 32 l 972 0 l 972 275 b 1029 395 972 378 982 390 l 1029 422 b 815 418 982 419 904 418 b 550 422 732 418 612 419 l 550 395 b 690 233 667 390 690 368 l 690 94 b 661 25 690 61 681 39 b 593 8 644 14 623 8 b 370 489 458 8 370 155 b 644 960 370 697 431 960 b 787 918 693 960 749 945 b 916 636 879 856 903 770 l 947 636 b 953 983 947 811 949 909 l 921 983 b 886 900 916 926 905 900 b 859 913 878 900 868 904 b 589 1003 796 962 718 1003 z "},"Ģ":{"ha":1050,"x_min":0,"x_max":0,"o":"m 589 1003 b 50 484 272 1003 50 794 b 572 -20 50 167 224 -20 b 807 47 652 -20 734 12 b 901 79 864 75 886 79 b 945 0 930 79 943 32 l 972 0 l 972 275 b 1029 395 972 378 982 390 l 1029 422 b 815 418 982 419 904 418 b 550 422 732 418 612 419 l 550 395 b 690 233 667 390 690 368 l 690 94 b 661 25 690 61 681 39 b 593 8 644 14 623 8 b 370 489 458 8 370 155 b 644 960 370 697 431 960 b 787 918 693 960 749 945 b 916 636 879 856 903 770 l 947 636 b 953 983 947 811 949 909 l 921 983 b 886 900 916 926 905 900 b 859 913 878 900 868 904 b 589 1003 796 962 718 1003 z m 581 -64 b 457 -165 500 -64 457 -100 b 574 -261 457 -229 500 -261 b 647 -240 612 -261 633 -253 b 519 -310 636 -281 599 -300 l 522 -340 b 709 -178 646 -338 709 -271 b 581 -64 709 -103 657 -64 z "},"Ġ":{"ha":1050,"x_min":0,"x_max":0,"o":"m 579 1295 b 441 1175 490 1295 441 1254 b 579 1055 441 1096 490 1055 b 716 1175 667 1055 716 1096 b 579 1295 716 1254 667 1295 z m 589 1003 b 50 484 272 1003 50 794 b 572 -20 50 167 224 -20 b 807 47 652 -20 734 12 b 901 79 864 75 886 79 b 945 0 930 79 943 32 l 972 0 l 972 275 b 1029 395 972 378 982 390 l 1029 422 b 815 418 982 419 904 418 b 550 422 732 418 612 419 l 550 395 b 690 233 667 390 690 368 l 690 94 b 661 25 690 61 681 39 b 593 8 644 14 623 8 b 370 489 458 8 370 155 b 644 960 370 697 431 960 b 787 918 693 960 749 945 b 916 636 879 856 903 770 l 947 636 b 953 983 947 811 949 909 l 921 983 b 886 900 916 926 905 900 b 859 913 878 900 868 904 b 589 1003 796 962 718 1003 z "},"H":{"ha":1152,"x_min":0,"x_max":0,"o":"m 1112 983 b 879 979 1063 981 974 979 b 633 983 787 979 690 981 l 633 956 b 732 836 717 951 732 937 l 732 509 l 419 509 l 419 836 b 518 956 419 937 433 951 l 518 983 b 286 979 464 981 372 979 b 39 983 186 979 92 981 l 39 956 b 138 836 122 951 138 937 l 138 147 b 39 28 138 46 123 32 l 39 0 b 286 4 92 3 186 4 b 518 0 372 4 464 3 l 518 28 b 419 147 435 32 419 46 l 419 481 l 732 481 l 732 147 b 633 28 732 46 718 32 l 633 0 b 879 4 690 3 787 4 b 1112 0 974 4 1063 3 l 1112 28 b 1014 147 1029 32 1014 46 l 1014 836 b 1112 956 1014 937 1028 951 z "},"Ħ":{"ha":1152,"x_min":0,"x_max":0,"o":"m 1112 983 b 879 979 1063 981 974 979 b 633 983 787 979 690 981 l 633 956 b 732 836 717 951 732 937 l 732 741 l 419 741 l 419 836 b 518 956 419 937 433 951 l 518 983 b 286 979 464 981 372 979 b 39 983 186 979 92 981 l 39 956 b 138 836 122 951 138 937 l 138 741 l 39 741 l 39 713 l 138 713 l 138 147 b 39 28 138 46 123 32 l 39 0 b 286 4 92 3 186 4 b 518 0 372 4 464 3 l 518 28 b 419 147 435 32 419 46 l 419 481 l 732 481 l 732 147 b 633 28 732 46 718 32 l 633 0 b 879 4 690 3 787 4 b 1112 0 974 4 1063 3 l 1112 28 b 1014 147 1029 32 1014 46 l 1014 713 l 1112 713 l 1112 741 l 1014 741 l 1014 836 b 1112 956 1014 937 1028 951 z m 732 713 l 732 509 l 419 509 l 419 713 z "},"Ĥ":{"ha":1152,"x_min":0,"x_max":0,"o":"m 567 1328 b 265 1089 498 1239 386 1146 l 273 1068 b 551 1153 378 1088 490 1122 b 886 1068 624 1122 758 1088 l 893 1089 b 592 1328 771 1147 657 1240 z m 1112 983 b 879 979 1063 981 974 979 b 633 983 787 979 690 981 l 633 956 b 732 836 717 951 732 937 l 732 509 l 419 509 l 419 836 b 518 956 419 937 433 951 l 518 983 b 286 979 464 981 372 979 b 39 983 186 979 92 981 l 39 956 b 138 836 122 951 138 937 l 138 147 b 39 28 138 46 123 32 l 39 0 b 286 4 92 3 186 4 b 518 0 372 4 464 3 l 518 28 b 419 147 435 32 419 46 l 419 481 l 732 481 l 732 147 b 633 28 732 46 718 32 l 633 0 b 879 4 690 3 787 4 b 1112 0 974 4 1063 3 l 1112 28 b 1014 147 1029 32 1014 46 l 1014 836 b 1112 956 1014 937 1028 951 z "},"I":{"ha":557,"x_min":0,"x_max":0,"o":"m 518 983 b 286 979 464 981 372 979 b 39 983 186 979 92 981 l 39 956 b 138 836 122 951 138 937 l 138 147 b 39 28 138 46 123 32 l 39 0 b 286 4 92 3 186 4 b 518 0 372 4 464 3 l 518 28 b 419 147 435 32 419 46 l 419 836 b 518 956 419 937 433 951 z "},"Ĳ":{"ha":1108,"x_min":0,"x_max":0,"o":"m 518 983 b 286 979 464 981 372 979 b 39 983 186 979 92 981 l 39 956 b 138 836 122 951 138 937 l 138 147 b 39 28 138 46 123 32 l 39 0 b 286 4 92 3 186 4 b 518 0 372 4 464 3 l 518 28 b 419 147 435 32 419 46 l 419 836 b 518 956 419 937 433 951 z m 1078 983 b 832 979 1021 981 924 979 b 599 983 738 979 649 981 l 599 956 b 698 836 682 951 698 937 l 698 201 b 669 -144 698 9 698 -64 b 546 -232 650 -192 608 -232 b 521 -231 538 -232 530 -232 b 602 -126 578 -210 602 -167 b 477 -24 602 -58 553 -24 b 340 -131 395 -24 340 -65 b 410 -235 340 -175 360 -210 b 566 -261 453 -256 517 -261 b 956 -35 772 -261 914 -163 b 980 214 977 32 980 125 b 979 328 980 253 979 292 l 979 836 b 1078 956 979 937 994 951 z "},"Í":{"ha":557,"x_min":0,"x_max":0,"o":"m 393 1304 b 174 1089 325 1272 309 1203 l 183 1072 b 479 1143 346 1122 415 1109 b 532 1225 512 1159 532 1192 b 524 1261 532 1237 529 1249 b 436 1314 506 1297 470 1314 b 393 1304 420 1314 406 1310 z m 518 983 b 286 979 464 981 372 979 b 39 983 186 979 92 981 l 39 956 b 138 836 122 951 138 937 l 138 147 b 39 28 138 46 123 32 l 39 0 b 286 4 92 3 186 4 b 518 0 372 4 464 3 l 518 28 b 419 147 435 32 419 46 l 419 836 b 518 956 419 937 433 951 z "},"Ĭ":{"ha":557,"x_min":0,"x_max":0,"o":"m 587 1278 b 272 1197 533 1243 433 1197 b -43 1278 111 1197 11 1243 l -60 1263 b 272 1060 -24 1169 83 1060 b 604 1263 461 1060 568 1169 z m 518 983 b 286 979 464 981 372 979 b 39 983 186 979 92 981 l 39 956 b 138 836 122 951 138 937 l 138 147 b 39 28 138 46 123 32 l 39 0 b 286 4 92 3 186 4 b 518 0 372 4 464 3 l 518 28 b 419 147 435 32 419 46 l 419 836 b 518 956 419 937 433 951 z "},"Î":{"ha":557,"x_min":0,"x_max":0,"o":"m 274 1328 b -28 1089 205 1239 93 1146 l -20 1068 b 258 1153 85 1088 197 1122 b 593 1068 331 1122 465 1088 l 600 1089 b 299 1328 478 1147 364 1240 z m 518 983 b 286 979 464 981 372 979 b 39 983 186 979 92 981 l 39 956 b 138 836 122 951 138 937 l 138 147 b 39 28 138 46 123 32 l 39 0 b 286 4 92 3 186 4 b 518 0 372 4 464 3 l 518 28 b 419 147 435 32 419 46 l 419 836 b 518 956 419 937 433 951 z "},"Ï":{"ha":557,"x_min":0,"x_max":0,"o":"m 107 1300 b -14 1179 41 1300 -14 1243 b 107 1059 -14 1112 41 1059 b 228 1179 171 1059 228 1112 b 107 1300 228 1243 171 1300 z m 465 1300 b 345 1179 399 1300 345 1243 b 465 1059 345 1112 399 1059 b 586 1179 529 1059 586 1112 b 465 1300 586 1243 529 1300 z m 518 983 b 286 979 464 981 372 979 b 39 983 186 979 92 981 l 39 956 b 138 836 122 951 138 937 l 138 147 b 39 28 138 46 123 32 l 39 0 b 286 4 92 3 186 4 b 518 0 372 4 464 3 l 518 28 b 419 147 435 32 419 46 l 419 836 b 518 956 419 937 433 951 z "},"İ":{"ha":557,"x_min":0,"x_max":0,"o":"m 286 1356 b 135 1236 189 1356 135 1315 b 286 1116 135 1157 189 1116 b 437 1236 382 1116 437 1157 b 286 1356 437 1315 382 1356 z m 518 983 b 286 979 464 981 372 979 b 39 983 186 979 92 981 l 39 956 b 138 836 122 951 138 937 l 138 147 b 39 28 138 46 123 32 l 39 0 b 286 4 92 3 186 4 b 518 0 372 4 464 3 l 518 28 b 419 147 435 32 419 46 l 419 836 b 518 956 419 937 433 951 z "},"Ì":{"ha":557,"x_min":0,"x_max":0,"o":"m 160 1304 b 117 1314 147 1310 132 1314 b 29 1261 83 1314 47 1297 b 21 1225 24 1249 21 1237 b 74 1143 21 1192 41 1160 b 370 1072 138 1109 207 1122 l 379 1089 b 160 1304 245 1203 228 1272 z m 518 983 b 286 979 464 981 372 979 b 39 983 186 979 92 981 l 39 956 b 138 836 122 951 138 937 l 138 147 b 39 28 138 46 123 32 l 39 0 b 286 4 92 3 186 4 b 518 0 372 4 464 3 l 518 28 b 419 147 435 32 419 46 l 419 836 b 518 956 419 937 433 951 z "},"Ī":{"ha":557,"x_min":0,"x_max":0,"o":"m 586 1137 l 586 1173 l -14 1173 l -14 1137 z m 518 983 b 286 979 464 981 372 979 b 39 983 186 979 92 981 l 39 956 b 138 836 122 951 138 937 l 138 147 b 39 28 138 46 123 32 l 39 0 b 286 4 92 3 186 4 b 518 0 372 4 464 3 l 518 28 b 419 147 435 32 419 46 l 419 836 b 518 956 419 937 433 951 z "},"Į":{"ha":557,"x_min":0,"x_max":0,"o":"m 518 983 b 286 979 464 981 372 979 b 39 983 186 979 92 981 l 39 956 b 138 836 122 951 138 937 l 138 147 b 39 28 138 46 123 32 l 39 0 b 286 4 92 3 186 4 b 431 3 336 4 387 3 b 151 -163 255 -27 151 -83 b 288 -261 151 -225 197 -261 b 500 -167 385 -261 446 -233 l 482 -146 b 391 -178 461 -164 421 -178 b 335 -125 353 -178 335 -163 b 484 1 335 -87 374 -37 l 518 0 l 518 28 b 419 147 435 32 419 46 l 419 836 b 518 956 419 937 433 951 z "},"Ĩ":{"ha":557,"x_min":0,"x_max":0,"o":"m 157 1303 b -50 1090 70 1303 -12 1242 l -31 1080 b 104 1156 10 1133 54 1156 b 413 1063 224 1156 263 1063 b 618 1275 499 1063 581 1124 l 599 1284 b 465 1211 559 1232 514 1211 b 157 1303 345 1211 306 1303 z m 518 983 b 286 979 464 981 372 979 b 39 983 186 979 92 981 l 39 956 b 138 836 122 951 138 937 l 138 147 b 39 28 138 46 123 32 l 39 0 b 286 4 92 3 186 4 b 518 0 372 4 464 3 l 518 28 b 419 147 435 32 419 46 l 419 836 b 518 956 419 937 433 951 z "},"J":{"ha":542,"x_min":0,"x_max":0,"o":"m 511 983 b 265 979 454 981 357 979 b 32 983 171 979 82 981 l 32 956 b 131 836 115 951 131 937 l 131 201 b 102 -144 131 9 131 -64 b -21 -232 83 -192 41 -232 b -46 -231 -29 -232 -37 -232 b 35 -126 11 -210 35 -167 b -90 -24 35 -58 -14 -24 b -227 -131 -172 -24 -227 -65 b -157 -235 -227 -175 -207 -210 b -1 -261 -114 -256 -50 -261 b 389 -35 205 -261 347 -163 b 413 214 410 32 413 125 b 412 328 413 253 412 292 l 412 836 b 511 956 412 937 427 951 z "},"Ĵ":{"ha":542,"x_min":0,"x_max":0,"o":"m 253 1328 b -49 1089 184 1239 72 1146 l -41 1068 b 237 1153 64 1088 176 1122 b 572 1068 310 1122 444 1088 l 579 1089 b 278 1328 457 1147 343 1240 z m 511 983 b 265 979 454 981 357 979 b 32 983 171 979 82 981 l 32 956 b 131 836 115 951 131 937 l 131 201 b 102 -144 131 9 131 -64 b -21 -232 83 -192 41 -232 b -46 -231 -29 -232 -37 -232 b 35 -126 11 -210 35 -167 b -90 -24 35 -58 -14 -24 b -227 -131 -172 -24 -227 -65 b -157 -235 -227 -175 -207 -210 b -1 -261 -114 -256 -50 -261 b 389 -35 205 -261 347 -163 b 413 214 410 32 413 125 b 412 328 413 253 412 292 l 412 836 b 511 956 412 937 427 951 z "},"K":{"ha":1047,"x_min":0,"x_max":0,"o":"m 663 650 l 799 804 b 1026 957 886 903 964 940 l 1026 983 b 886 979 989 981 946 979 b 652 983 782 979 729 981 l 652 957 b 766 865 716 954 766 921 b 704 741 766 831 747 789 l 657 688 b 419 523 557 576 496 528 l 419 836 b 518 956 419 937 433 951 l 518 983 b 286 979 464 981 372 979 b 39 983 186 979 92 981 l 39 956 b 138 836 122 951 138 937 l 138 147 b 39 28 138 46 123 32 l 39 0 b 286 4 92 3 186 4 b 518 0 372 4 464 3 l 518 28 b 419 147 435 32 419 46 l 419 492 b 485 431 446 488 458 475 l 686 90 b 701 54 695 75 701 63 b 621 28 701 37 678 31 l 621 0 b 819 4 717 4 777 4 b 1069 0 899 4 991 3 l 1069 28 b 985 113 1028 50 1008 74 z "},"Ķ":{"ha":1047,"x_min":0,"x_max":0,"o":"m 663 650 l 799 804 b 1026 957 886 903 964 940 l 1026 983 b 886 979 989 981 946 979 b 652 983 782 979 729 981 l 652 957 b 766 865 716 954 766 921 b 704 741 766 831 747 789 l 657 688 b 419 523 557 576 496 528 l 419 836 b 518 956 419 937 433 951 l 518 983 b 286 979 464 981 372 979 b 39 983 186 979 92 981 l 39 956 b 138 836 122 951 138 937 l 138 147 b 39 28 138 46 123 32 l 39 0 b 286 4 92 3 186 4 b 518 0 372 4 464 3 l 518 28 b 419 147 435 32 419 46 l 419 492 b 485 431 446 488 458 475 l 686 90 b 701 54 695 75 701 63 b 621 28 701 37 678 31 l 621 0 b 819 4 717 4 777 4 b 1069 0 899 4 991 3 l 1069 28 b 985 113 1028 50 1008 74 z m 599 -64 b 475 -165 518 -64 475 -100 b 592 -261 475 -229 518 -261 b 665 -240 631 -261 652 -253 b 538 -310 654 -281 617 -300 l 541 -340 b 728 -178 664 -338 728 -271 b 599 -64 728 -103 675 -64 z "},"L":{"ha":869,"x_min":0,"x_max":0,"o":"m 532 983 b 286 979 475 981 378 979 b 39 983 186 979 92 981 l 39 956 b 138 836 122 951 138 937 l 138 147 b 39 28 138 46 123 32 l 39 0 b 525 4 200 4 425 4 b 843 0 618 4 749 4 b 833 248 833 97 833 199 b 838 375 833 297 835 342 l 806 375 b 536 32 774 196 633 32 l 490 32 b 419 119 431 32 419 43 l 419 836 b 532 956 419 937 437 951 z "},"Ĺ":{"ha":869,"x_min":0,"x_max":0,"o":"m 393 1304 b 174 1089 325 1272 309 1203 l 183 1072 b 479 1143 346 1122 415 1109 b 532 1225 512 1159 532 1192 b 524 1261 532 1237 529 1249 b 436 1314 506 1297 470 1314 b 393 1304 420 1314 406 1310 z m 532 983 b 286 979 475 981 378 979 b 39 983 186 979 92 981 l 39 956 b 138 836 122 951 138 937 l 138 147 b 39 28 138 46 123 32 l 39 0 b 525 4 200 4 425 4 b 843 0 618 4 749 4 b 833 248 833 97 833 199 b 838 375 833 297 835 342 l 806 375 b 536 32 774 196 633 32 l 490 32 b 419 119 431 32 419 43 l 419 836 b 532 956 419 937 437 951 z "},"Ľ":{"ha":869,"x_min":0,"x_max":0,"o":"m 797 991 b 665 981 755 985 718 981 b 581 983 640 981 613 981 l 581 954 b 622 899 615 954 622 935 b 594 669 622 871 616 811 l 614 664 b 804 942 729 798 804 882 b 797 991 804 958 801 982 z m 532 983 b 286 979 475 981 378 979 b 39 983 186 979 92 981 l 39 956 b 138 836 122 951 138 937 l 138 147 b 39 28 138 46 123 32 l 39 0 b 525 4 200 4 425 4 b 843 0 618 4 749 4 b 833 248 833 97 833 199 b 838 375 833 297 835 342 l 806 375 b 536 32 774 196 633 32 l 490 32 b 419 119 431 32 419 43 l 419 836 b 532 956 419 937 437 951 z "},"Ļ":{"ha":869,"x_min":0,"x_max":0,"o":"m 532 983 b 286 979 475 981 378 979 b 39 983 186 979 92 981 l 39 956 b 138 836 122 951 138 937 l 138 147 b 39 28 138 46 123 32 l 39 0 b 525 4 200 4 425 4 b 843 0 618 4 749 4 b 833 248 833 97 833 199 b 838 375 833 297 835 342 l 806 375 b 536 32 774 196 633 32 l 490 32 b 419 119 431 32 419 43 l 419 836 b 532 956 419 937 437 951 z m 510 -64 b 387 -165 429 -64 387 -100 b 503 -261 387 -229 429 -261 b 576 -240 542 -261 563 -253 b 449 -310 566 -281 528 -300 l 452 -340 b 639 -178 575 -338 639 -271 b 510 -64 639 -103 587 -64 z "},"Ŀ":{"ha":949,"x_min":0,"x_max":0,"o":"m 532 983 b 286 979 475 981 378 979 b 39 983 186 979 92 981 l 39 956 b 138 836 122 951 138 937 l 138 147 b 39 28 138 46 123 32 l 39 0 b 525 4 200 4 425 4 b 843 0 618 4 749 4 b 833 248 833 97 833 199 b 838 375 833 297 835 342 l 806 375 b 536 32 774 196 633 32 l 490 32 b 419 119 431 32 419 43 l 419 836 b 532 956 419 937 437 951 z m 785 645 b 647 525 696 645 647 604 b 785 406 647 446 696 406 b 922 525 872 406 922 446 b 785 645 922 604 872 645 z "},"Ł":{"ha":869,"x_min":0,"x_max":0,"o":"m 833 248 b 838 375 833 297 835 342 l 806 375 b 536 32 774 196 633 32 l 490 32 b 419 119 431 32 419 43 l 419 487 l 657 625 l 657 657 l 419 519 l 419 836 b 532 956 419 937 437 951 l 532 983 b 286 979 475 981 378 979 b 39 983 186 979 92 981 l 39 956 b 138 836 122 951 138 937 l 138 370 l 39 313 l 39 281 l 138 338 l 138 147 b 39 28 138 46 123 32 l 39 0 b 525 4 200 4 425 4 b 843 0 618 4 749 4 b 833 248 833 97 833 199 z "},"M":{"ha":1340,"x_min":0,"x_max":0,"o":"m 1301 983 b 1055 979 1244 981 1147 979 l 935 979 l 707 393 l 444 983 b 157 979 364 981 264 979 b 41 983 115 979 69 981 l 41 956 b 140 836 125 951 140 937 l 140 244 b 41 28 140 87 126 46 l 41 0 b 157 4 69 3 115 4 b 313 0 208 4 275 3 l 313 28 b 172 272 180 46 172 86 l 172 893 l 564 1 l 586 1 l 921 859 l 921 147 b 808 28 921 46 903 32 l 808 0 b 1055 4 861 3 956 4 b 1301 0 1147 4 1244 3 l 1301 28 b 1203 147 1218 32 1203 46 l 1203 836 b 1301 956 1203 937 1217 951 z "},"N":{"ha":1017,"x_min":0,"x_max":0,"o":"m 983 983 b 868 979 956 981 909 979 b 713 983 817 979 750 981 l 713 956 b 852 711 844 937 852 897 l 852 383 l 285 983 b 157 979 250 981 203 979 b 41 983 115 979 69 981 l 41 956 b 140 836 125 951 140 937 l 140 244 b 41 28 140 87 126 46 l 41 0 b 157 4 69 3 115 4 b 313 0 208 4 275 3 l 313 28 b 172 272 180 46 172 86 l 172 672 l 787 0 b 840 2 806 1 823 2 b 885 0 856 2 871 1 l 885 739 b 983 956 885 896 899 937 z "},"Ń":{"ha":1017,"x_min":0,"x_max":0,"o":"m 637 1304 b 418 1089 569 1272 553 1203 l 427 1072 b 724 1143 590 1122 659 1109 b 776 1225 756 1159 776 1192 b 768 1261 776 1237 773 1249 b 680 1314 750 1297 714 1314 b 637 1304 665 1314 650 1310 z m 983 983 b 868 979 956 981 909 979 b 713 983 817 979 750 981 l 713 956 b 852 711 844 937 852 897 l 852 383 l 285 983 b 157 979 250 981 203 979 b 41 983 115 979 69 981 l 41 956 b 140 836 125 951 140 937 l 140 244 b 41 28 140 87 126 46 l 41 0 b 157 4 69 3 115 4 b 313 0 208 4 275 3 l 313 28 b 172 272 180 46 172 86 l 172 672 l 787 0 b 840 2 806 1 823 2 b 885 0 856 2 871 1 l 885 739 b 983 956 885 896 899 937 z "},"Ň":{"ha":1017,"x_min":0,"x_max":0,"o":"m 833 1314 b 554 1229 728 1295 615 1260 b 220 1314 482 1260 347 1295 l 212 1293 b 514 1054 335 1235 448 1141 l 539 1054 b 840 1293 607 1143 720 1236 z m 983 983 b 868 979 956 981 909 979 b 713 983 817 979 750 981 l 713 956 b 852 711 844 937 852 897 l 852 383 l 285 983 b 157 979 250 981 203 979 b 41 983 115 979 69 981 l 41 956 b 140 836 125 951 140 937 l 140 244 b 41 28 140 87 126 46 l 41 0 b 157 4 69 3 115 4 b 313 0 208 4 275 3 l 313 28 b 172 272 180 46 172 86 l 172 672 l 787 0 b 840 2 806 1 823 2 b 885 0 856 2 871 1 l 885 739 b 983 956 885 896 899 937 z "},"Ņ":{"ha":1017,"x_min":0,"x_max":0,"o":"m 983 983 b 868 979 956 981 909 979 b 713 983 817 979 750 981 l 713 956 b 852 711 844 937 852 897 l 852 383 l 285 983 b 157 979 250 981 203 979 b 41 983 115 979 69 981 l 41 956 b 140 836 125 951 140 937 l 140 244 b 41 28 140 87 126 46 l 41 0 b 157 4 69 3 115 4 b 313 0 208 4 275 3 l 313 28 b 172 272 180 46 172 86 l 172 672 l 787 0 b 840 2 806 1 823 2 b 885 0 856 2 871 1 l 885 739 b 983 956 885 896 899 937 z m 519 -64 b 396 -165 439 -64 396 -100 b 513 -261 396 -229 439 -261 b 586 -240 551 -261 572 -253 b 458 -310 575 -281 538 -300 l 461 -340 b 648 -178 585 -338 648 -271 b 519 -64 648 -103 596 -64 z "},"Ŋ":{"ha":1013,"x_min":0,"x_max":0,"o":"m 865 979 b 737 983 818 979 771 981 l 737 956 b 850 836 832 951 850 937 l 850 383 l 282 983 b 154 979 248 981 200 979 b 39 983 113 979 66 981 l 39 956 b 138 836 122 951 138 937 l 138 147 b 39 28 138 46 122 32 l 39 0 b 154 4 66 3 113 4 b 282 0 201 4 249 3 l 282 28 b 170 147 187 32 170 46 l 170 672 l 785 0 b 849 2 808 2 829 3 b 699 -233 843 -161 797 -233 b 673 -232 690 -233 682 -233 b 754 -123 730 -211 754 -168 b 629 -24 754 -60 705 -24 b 493 -134 547 -24 493 -64 b 677 -261 493 -222 572 -261 b 882 64 810 -261 882 -201 l 882 836 b 981 956 882 937 897 951 l 981 983 b 865 979 953 981 907 979 z "},"Ñ":{"ha":1017,"x_min":0,"x_max":0,"o":"m 401 1303 b 195 1090 314 1303 232 1242 l 214 1080 b 349 1156 254 1133 298 1156 b 657 1063 468 1156 507 1063 b 863 1275 743 1063 825 1124 l 843 1284 b 709 1211 803 1232 758 1211 b 401 1303 589 1211 550 1303 z m 983 983 b 868 979 956 981 909 979 b 713 983 817 979 750 981 l 713 956 b 852 711 844 937 852 897 l 852 383 l 285 983 b 157 979 250 981 203 979 b 41 983 115 979 69 981 l 41 956 b 140 836 125 951 140 937 l 140 244 b 41 28 140 87 126 46 l 41 0 b 157 4 69 3 115 4 b 313 0 208 4 275 3 l 313 28 b 172 272 180 46 172 86 l 172 672 l 787 0 b 840 2 806 1 823 2 b 885 0 856 2 871 1 l 885 739 b 983 956 885 896 899 937 z "},"O":{"ha":1149,"x_min":0,"x_max":0,"o":"m 575 1003 b 50 484 267 1003 50 794 b 574 -20 50 165 260 -20 b 1099 500 882 -20 1099 189 b 575 1003 1099 818 889 1003 z m 570 978 b 807 494 700 978 807 790 b 579 5 807 207 718 5 b 342 489 449 5 342 193 b 570 978 342 777 431 978 z "},"Ó":{"ha":1149,"x_min":0,"x_max":0,"o":"m 680 1304 b 460 1089 611 1272 595 1203 l 469 1072 b 766 1143 632 1122 701 1109 b 818 1225 798 1159 818 1192 b 810 1261 818 1237 815 1249 b 722 1314 792 1297 756 1314 b 680 1304 707 1314 692 1310 z m 575 1003 b 50 484 267 1003 50 794 b 574 -20 50 165 260 -20 b 1099 500 882 -20 1099 189 b 575 1003 1099 818 889 1003 z m 570 978 b 807 494 700 978 807 790 b 579 5 807 207 718 5 b 342 489 449 5 342 193 b 570 978 342 777 431 978 z "},"Ŏ":{"ha":1149,"x_min":0,"x_max":0,"o":"m 873 1278 b 558 1197 819 1243 720 1197 b 243 1278 397 1197 297 1243 l 227 1263 b 558 1060 262 1169 370 1060 b 890 1263 747 1060 854 1169 z m 575 1003 b 50 484 267 1003 50 794 b 574 -20 50 165 260 -20 b 1099 500 882 -20 1099 189 b 575 1003 1099 818 889 1003 z m 570 978 b 807 494 700 978 807 790 b 579 5 807 207 718 5 b 342 489 449 5 342 193 b 570 978 342 777 431 978 z "},"Ô":{"ha":1149,"x_min":0,"x_max":0,"o":"m 560 1328 b 258 1089 492 1239 379 1146 l 266 1068 b 545 1153 371 1088 484 1122 b 880 1068 617 1122 751 1088 l 886 1089 b 585 1328 764 1147 650 1240 z m 575 1003 b 50 484 267 1003 50 794 b 574 -20 50 165 260 -20 b 1099 500 882 -20 1099 189 b 575 1003 1099 818 889 1003 z m 570 978 b 807 494 700 978 807 790 b 579 5 807 207 718 5 b 342 489 449 5 342 193 b 570 978 342 777 431 978 z "},"Ö":{"ha":1149,"x_min":0,"x_max":0,"o":"m 393 1300 b 273 1179 327 1300 273 1243 b 393 1059 273 1112 327 1059 b 514 1179 457 1059 514 1112 b 393 1300 514 1243 457 1300 z m 751 1300 b 631 1179 685 1300 631 1243 b 751 1059 631 1112 685 1059 b 872 1179 815 1059 872 1112 b 751 1300 872 1243 815 1300 z m 575 1003 b 50 484 267 1003 50 794 b 574 -20 50 165 260 -20 b 1099 500 882 -20 1099 189 b 575 1003 1099 818 889 1003 z m 570 978 b 807 494 700 978 807 790 b 579 5 807 207 718 5 b 342 489 449 5 342 193 b 570 978 342 777 431 978 z "},"Ò":{"ha":1149,"x_min":0,"x_max":0,"o":"m 446 1304 b 404 1314 433 1310 418 1314 b 315 1261 369 1314 333 1297 b 307 1225 310 1249 307 1237 b 360 1143 307 1192 328 1160 b 656 1072 424 1109 493 1122 l 665 1089 b 446 1304 531 1203 514 1272 z m 575 1003 b 50 484 267 1003 50 794 b 574 -20 50 165 260 -20 b 1099 500 882 -20 1099 189 b 575 1003 1099 818 889 1003 z m 570 978 b 807 494 700 978 807 790 b 579 5 807 207 718 5 b 342 489 449 5 342 193 b 570 978 342 777 431 978 z "},"Ő":{"ha":1149,"x_min":0,"x_max":0,"o":"m 500 1310 b 338 1088 452 1274 431 1202 l 351 1072 b 604 1160 484 1124 555 1128 b 648 1235 633 1179 648 1206 b 633 1283 648 1251 644 1267 b 553 1326 614 1312 584 1326 b 500 1310 534 1326 516 1320 z m 815 1310 b 653 1088 766 1274 746 1202 l 667 1072 b 920 1160 799 1124 871 1128 b 964 1235 948 1179 964 1206 b 949 1283 964 1251 959 1267 b 869 1326 930 1312 899 1326 b 815 1310 850 1326 831 1320 z m 575 1003 b 50 484 267 1003 50 794 b 574 -20 50 165 260 -20 b 1099 500 882 -20 1099 189 b 575 1003 1099 818 889 1003 z m 570 978 b 807 494 700 978 807 790 b 579 5 807 207 718 5 b 342 489 449 5 342 193 b 570 978 342 777 431 978 z "},"Ō":{"ha":1149,"x_min":0,"x_max":0,"o":"m 872 1137 l 872 1173 l 272 1173 l 272 1137 z m 575 1003 b 50 484 267 1003 50 794 b 574 -20 50 165 260 -20 b 1099 500 882 -20 1099 189 b 575 1003 1099 818 889 1003 z m 570 978 b 807 494 700 978 807 790 b 579 5 807 207 718 5 b 342 489 449 5 342 193 b 570 978 342 777 431 978 z "},"Ø":{"ha":1149,"x_min":0,"x_max":0,"o":"m 965 1069 l 939 1088 l 843 947 b 575 1003 767 983 677 1003 b 50 484 267 1003 50 794 b 254 66 50 292 125 149 l 138 -96 l 167 -115 l 284 47 b 574 -20 364 3 463 -20 b 1099 500 882 -20 1099 189 b 872 931 1099 702 1015 850 z m 570 978 b 751 819 642 978 707 920 l 378 220 b 342 489 355 294 342 385 b 570 978 342 777 431 978 z m 579 5 b 392 179 504 5 436 68 l 765 781 b 807 494 791 704 807 607 b 579 5 807 207 718 5 z "},"Õ":{"ha":1149,"x_min":0,"x_max":0,"o":"m 444 1303 b 237 1090 356 1303 274 1242 l 256 1080 b 391 1156 296 1133 340 1156 b 699 1063 510 1156 549 1063 b 905 1275 785 1063 867 1124 l 885 1284 b 751 1211 845 1232 800 1211 b 444 1303 631 1211 592 1303 z m 575 1003 b 50 484 267 1003 50 794 b 574 -20 50 165 260 -20 b 1099 500 882 -20 1099 189 b 575 1003 1099 818 889 1003 z m 570 978 b 807 494 700 978 807 790 b 579 5 807 207 718 5 b 342 489 449 5 342 193 b 570 978 342 777 431 978 z "},"Œ":{"ha":1444,"x_min":0,"x_max":0,"o":"m 1375 205 b 1379 334 1375 256 1377 300 l 1348 334 b 1147 32 1322 104 1217 32 l 1101 32 b 1003 147 1019 32 1003 46 l 1003 481 l 1059 481 b 1196 311 1154 481 1181 393 l 1227 311 b 1219 494 1221 410 1219 452 b 1219 556 1219 513 1219 532 b 1223 677 1219 586 1219 623 l 1192 677 b 1059 509 1177 616 1154 509 l 1003 509 l 1003 836 b 1101 951 1003 937 1019 951 l 1120 951 b 1320 677 1206 951 1291 886 l 1352 677 b 1348 778 1349 701 1348 739 b 1357 983 1348 818 1350 901 b 1067 979 1271 979 1152 979 b 682 981 986 979 831 979 b 561 1003 644 994 603 1003 b 50 484 261 1003 50 794 b 559 -20 50 165 254 -20 b 682 3 603 -20 647 -9 b 1067 4 829 4 986 4 b 1385 0 1160 4 1291 4 b 1375 205 1375 81 1375 165 z m 721 119 b 566 5 721 39 628 5 b 342 489 441 5 342 193 b 555 978 342 777 425 978 b 721 850 614 978 721 957 z "},"P":{"ha":942,"x_min":0,"x_max":0,"o":"m 419 397 l 471 397 b 920 708 825 397 920 574 b 501 982 920 869 783 982 b 278 979 465 982 371 979 b 39 983 189 979 92 981 l 39 956 b 138 836 122 951 138 937 l 138 147 b 39 28 138 46 123 32 l 39 0 b 288 4 114 1 203 4 b 574 0 403 4 511 1 l 574 32 b 419 161 446 32 419 47 z m 494 956 b 628 693 593 956 628 868 b 457 425 628 551 599 425 l 419 425 l 419 836 b 494 956 419 932 432 956 z "},"Þ":{"ha":900,"x_min":0,"x_max":0,"o":"m 419 211 l 433 211 b 882 532 787 211 882 364 b 464 796 882 713 746 796 l 419 795 l 419 836 b 518 956 419 937 433 951 l 518 983 b 286 979 464 981 372 979 b 39 983 186 979 92 981 l 39 956 b 138 836 122 951 138 937 l 138 147 b 39 28 138 46 123 32 l 39 0 b 286 4 92 3 186 4 b 518 0 372 4 464 3 l 518 28 b 419 147 435 32 419 46 z m 429 770 b 590 517 549 770 590 682 b 419 239 590 368 561 239 l 419 770 z "},"Q":{"ha":1149,"x_min":0,"x_max":0,"o":"m 1076 50 b 875 -72 1029 -21 977 -50 b 636 -92 803 -87 730 -92 b 382 -86 566 -92 484 -89 b 592 -20 466 -63 509 -31 b 1099 500 890 -12 1099 195 b 575 1003 1099 818 889 1003 b 50 484 267 1003 50 794 b 502 -16 50 191 228 10 b 334 -79 446 -35 402 -62 b 228 -54 298 -64 258 -54 b 151 -97 176 -54 151 -71 b 216 -139 151 -126 179 -139 b 334 -104 253 -139 297 -125 b 367 -114 340 -104 355 -110 b 828 -261 526 -180 671 -261 b 1002 -212 893 -261 960 -244 b 1103 43 1060 -168 1093 -77 z m 342 489 b 570 978 342 777 431 978 b 807 494 700 978 807 790 b 579 5 807 207 718 5 b 342 489 449 5 342 193 z "},"R":{"ha":1002,"x_min":0,"x_max":0,"o":"m 1018 74 b 975 56 1006 61 993 56 b 913 146 943 56 926 77 l 884 290 b 580 471 862 404 770 460 b 920 741 845 497 920 618 b 501 982 920 904 783 982 b 278 979 465 982 371 979 b 39 983 189 979 92 981 l 39 956 b 138 836 122 951 138 937 l 138 147 b 39 28 138 46 123 32 l 39 0 b 286 4 92 3 186 4 b 518 0 372 4 464 3 l 518 28 b 419 147 435 32 419 46 l 419 467 l 482 467 b 593 269 553 467 576 383 l 614 131 b 828 -20 631 17 707 -20 b 1036 56 913 -20 979 -1 z m 494 956 b 628 725 593 956 628 871 b 457 494 628 597 599 494 l 419 494 l 419 836 b 494 956 419 932 432 956 z "},"Ŕ":{"ha":1002,"x_min":0,"x_max":0,"o":"m 668 1143 b 720 1225 701 1159 720 1192 b 712 1261 720 1237 718 1249 b 625 1314 694 1297 659 1314 b 582 1304 609 1314 594 1310 b 362 1089 513 1272 497 1203 l 372 1072 b 668 1143 534 1122 604 1109 z m 1018 74 b 975 56 1006 61 993 56 b 913 146 943 56 926 77 l 884 290 b 580 471 862 404 770 460 b 920 741 845 497 920 618 b 501 982 920 904 783 982 b 278 979 465 982 371 979 b 39 983 189 979 92 981 l 39 956 b 138 836 122 951 138 937 l 138 147 b 39 28 138 46 123 32 l 39 0 b 286 4 92 3 186 4 b 518 0 372 4 464 3 l 518 28 b 419 147 435 32 419 46 l 419 467 l 482 467 b 593 269 553 467 576 383 l 614 131 b 828 -20 631 17 707 -20 b 1036 56 913 -20 979 -1 z m 494 956 b 628 725 593 956 628 871 b 457 494 628 597 599 494 l 419 494 l 419 836 b 494 956 419 932 432 956 z "},"Ř":{"ha":1002,"x_min":0,"x_max":0,"o":"m 484 1054 b 785 1293 551 1143 664 1236 l 778 1314 b 498 1229 672 1295 559 1260 b 164 1314 427 1260 292 1295 l 157 1293 b 458 1054 279 1235 393 1141 z m 1018 74 b 975 56 1006 61 993 56 b 913 146 943 56 926 77 l 884 290 b 580 471 862 404 770 460 b 920 741 845 497 920 618 b 501 982 920 904 783 982 b 278 979 465 982 371 979 b 39 983 189 979 92 981 l 39 956 b 138 836 122 951 138 937 l 138 147 b 39 28 138 46 123 32 l 39 0 b 286 4 92 3 186 4 b 518 0 372 4 464 3 l 518 28 b 419 147 435 32 419 46 l 419 467 l 482 467 b 593 269 553 467 576 383 l 614 131 b 828 -20 631 17 707 -20 b 1036 56 913 -20 979 -1 z m 494 956 b 628 725 593 956 628 871 b 457 494 628 597 599 494 l 419 494 l 419 836 b 494 956 419 932 432 956 z "},"Ŗ":{"ha":1002,"x_min":0,"x_max":0,"o":"m 1018 74 b 975 56 1006 61 993 56 b 913 146 943 56 926 77 l 884 290 b 580 471 862 404 770 460 b 920 741 845 497 920 618 b 501 982 920 904 783 982 b 278 979 465 982 371 979 b 39 983 189 979 92 981 l 39 956 b 138 836 122 951 138 937 l 138 147 b 39 28 138 46 123 32 l 39 0 b 286 4 92 3 186 4 b 518 0 372 4 464 3 l 518 28 b 419 147 435 32 419 46 l 419 467 l 482 467 b 593 269 553 467 576 383 l 614 131 b 828 -20 631 17 707 -20 b 1036 56 913 -20 979 -1 z m 494 956 b 628 725 593 956 628 871 b 457 494 628 597 599 494 l 419 494 l 419 836 b 494 956 419 932 432 956 z m 530 -64 b 407 -165 450 -64 407 -100 b 524 -261 407 -229 450 -261 b 597 -240 562 -261 583 -253 b 469 -310 586 -281 549 -300 l 472 -340 b 659 -178 595 -338 659 -271 b 530 -64 659 -103 607 -64 z "},"S":{"ha":851,"x_min":0,"x_max":0,"o":"m 419 1003 b 75 741 240 1003 75 922 b 322 419 75 587 191 507 b 525 158 440 340 525 273 b 358 22 525 72 460 22 b 106 393 180 22 117 197 l 74 393 b 68 -9 74 155 72 61 l 100 -9 b 131 52 106 31 113 52 b 178 32 142 52 155 46 b 424 -20 229 7 297 -20 b 802 256 627 -20 802 68 b 576 570 802 407 700 484 b 332 836 401 692 332 733 b 473 965 332 920 392 965 b 715 650 618 965 705 803 l 747 650 b 754 989 747 859 750 929 l 722 989 b 692 928 717 949 710 928 b 644 947 679 928 667 935 b 419 1003 597 974 539 1003 z "},"Ś":{"ha":851,"x_min":0,"x_max":0,"o":"m 542 1304 b 322 1089 473 1272 457 1203 l 332 1072 b 628 1143 494 1122 564 1109 b 680 1225 661 1159 680 1192 b 672 1261 680 1237 677 1249 b 585 1314 654 1297 618 1314 b 542 1304 569 1314 554 1310 z m 419 1003 b 75 741 240 1003 75 922 b 322 419 75 587 191 507 b 525 158 440 340 525 273 b 358 22 525 72 460 22 b 106 393 180 22 117 197 l 74 393 b 68 -9 74 155 72 61 l 100 -9 b 131 52 106 31 113 52 b 178 32 142 52 155 46 b 424 -20 229 7 297 -20 b 802 256 627 -20 802 68 b 576 570 802 407 700 484 b 332 836 401 692 332 733 b 473 965 332 920 392 965 b 715 650 618 965 705 803 l 747 650 b 754 989 747 859 750 929 l 722 989 b 692 928 717 949 710 928 b 644 947 679 928 667 935 b 419 1003 597 974 539 1003 z "},"Š":{"ha":851,"x_min":0,"x_max":0,"o":"m 738 1314 b 458 1229 632 1295 519 1260 b 124 1314 387 1260 252 1295 l 117 1293 b 418 1054 239 1235 353 1141 l 444 1054 b 745 1293 511 1143 624 1236 z m 419 1003 b 75 741 240 1003 75 922 b 322 419 75 587 191 507 b 525 158 440 340 525 273 b 358 22 525 72 460 22 b 106 393 180 22 117 197 l 74 393 b 68 -9 74 155 72 61 l 100 -9 b 131 52 106 31 113 52 b 178 32 142 52 155 46 b 424 -20 229 7 297 -20 b 802 256 627 -20 802 68 b 576 570 802 407 700 484 b 332 836 401 692 332 733 b 473 965 332 920 392 965 b 715 650 618 965 705 803 l 747 650 b 754 989 747 859 750 929 l 722 989 b 692 928 717 949 710 928 b 644 947 679 928 667 935 b 419 1003 597 974 539 1003 z "},"Ş":{"ha":851,"x_min":0,"x_max":0,"o":"m 802 256 b 576 570 802 407 700 484 b 332 836 401 692 332 733 b 473 965 332 920 392 965 b 715 650 618 965 705 803 l 747 650 b 754 989 747 859 750 929 l 722 989 b 692 928 717 949 710 928 b 644 947 679 928 667 935 b 419 1003 597 974 539 1003 b 75 741 240 1003 75 922 b 322 419 75 587 191 507 b 525 158 440 340 525 273 b 358 22 525 72 460 22 b 106 393 180 22 117 197 l 74 393 b 68 -9 74 155 72 61 l 100 -9 b 131 52 106 31 113 52 b 178 32 142 52 155 46 b 394 -19 225 9 286 -16 l 357 -147 b 403 -138 369 -140 387 -138 b 469 -172 443 -138 469 -147 b 342 -225 469 -210 403 -225 b 261 -218 308 -225 276 -221 l 252 -243 b 391 -261 286 -254 336 -261 b 652 -143 543 -261 652 -224 b 536 -62 652 -97 615 -62 b 412 -83 489 -62 450 -69 l 431 -20 b 802 256 631 -18 802 70 z "},"Ŝ":{"ha":851,"x_min":0,"x_max":0,"o":"m 422 1328 b 121 1089 354 1239 241 1146 l 128 1068 b 407 1153 233 1088 346 1122 b 742 1068 479 1122 614 1088 l 749 1089 b 448 1328 627 1147 513 1240 z m 419 1003 b 75 741 240 1003 75 922 b 322 419 75 587 191 507 b 525 158 440 340 525 273 b 358 22 525 72 460 22 b 106 393 180 22 117 197 l 74 393 b 68 -9 74 155 72 61 l 100 -9 b 131 52 106 31 113 52 b 178 32 142 52 155 46 b 424 -20 229 7 297 -20 b 802 256 627 -20 802 68 b 576 570 802 407 700 484 b 332 836 401 692 332 733 b 473 965 332 920 392 965 b 715 650 618 965 705 803 l 747 650 b 754 989 747 859 750 929 l 722 989 b 692 928 717 949 710 928 b 644 947 679 928 667 935 b 419 1003 597 974 539 1003 z "},"Ș":{"ha":851,"x_min":0,"x_max":0,"o":"m 419 1003 b 75 741 240 1003 75 922 b 322 419 75 587 191 507 b 525 158 440 340 525 273 b 358 22 525 72 460 22 b 106 393 180 22 117 197 l 74 393 b 68 -9 74 155 72 61 l 100 -9 b 131 52 106 31 113 52 b 178 32 142 52 155 46 b 424 -20 229 7 297 -20 b 802 256 627 -20 802 68 b 576 570 802 407 700 484 b 332 836 401 692 332 733 b 473 965 332 920 392 965 b 715 650 618 965 705 803 l 747 650 b 754 989 747 859 750 929 l 722 989 b 692 928 717 949 710 928 b 644 947 679 928 667 935 b 419 1003 597 974 539 1003 z m 432 -64 b 309 -165 351 -64 309 -100 b 425 -261 309 -229 351 -261 b 498 -240 464 -261 485 -253 b 371 -310 488 -281 450 -300 l 374 -340 b 561 -178 497 -338 561 -271 b 432 -64 561 -103 509 -64 z "},"ẞ":{"ha":1120,"x_min":0,"x_max":0,"o":"m 615 1003 b 104 504 296 1003 104 850 l 104 147 b 5 28 104 46 89 32 l 5 0 b 231 4 58 3 167 4 b 435 0 343 4 379 0 l 435 28 b 386 147 393 29 386 54 l 386 589 b 650 978 386 900 492 978 b 750 964 679 978 724 974 l 492 610 b 806 240 707 534 806 422 b 636 12 806 71 717 12 b 597 21 624 12 608 16 b 697 176 648 47 697 98 b 579 310 697 254 650 310 b 452 163 509 310 452 254 b 541 8 452 93 481 36 b 701 -20 582 -11 627 -20 b 1097 272 917 -20 1097 89 b 772 558 1097 401 1004 504 l 1035 890 b 615 1003 936 951 790 1003 z "},"T":{"ha":971,"x_min":0,"x_max":0,"o":"m 939 983 b 486 979 807 979 616 979 b 32 983 355 979 164 979 b 41 708 39 873 41 762 b 37 608 41 669 40 632 l 69 608 b 343 951 135 871 241 951 l 345 951 l 345 157 b 191 28 345 43 318 28 l 191 0 b 476 4 253 1 361 4 b 781 0 597 4 715 1 l 781 28 b 627 157 653 28 627 43 l 627 951 l 628 951 b 901 608 728 951 836 869 l 933 608 b 929 708 930 632 929 669 b 939 983 929 762 932 873 z "},"Ŧ":{"ha":971,"x_min":0,"x_max":0,"o":"m 939 983 b 486 979 807 979 616 979 b 32 983 355 979 164 979 b 41 708 39 873 41 762 b 37 608 41 669 40 632 l 69 608 b 343 951 135 871 241 951 l 345 951 l 345 509 l 168 509 l 168 481 l 345 481 l 345 157 b 191 28 345 43 318 28 l 191 0 b 476 4 253 1 361 4 b 781 0 597 4 715 1 l 781 28 b 627 157 653 28 627 43 l 627 481 l 785 481 l 785 509 l 627 509 l 627 951 l 628 951 b 901 608 728 951 836 869 l 933 608 b 929 708 930 632 929 669 b 939 983 929 762 932 873 z "},"Ť":{"ha":971,"x_min":0,"x_max":0,"o":"m 789 1314 b 510 1229 684 1295 571 1260 b 176 1314 438 1260 303 1295 l 168 1293 b 470 1054 291 1235 404 1141 l 495 1054 b 796 1293 563 1143 675 1236 z m 939 983 b 486 979 807 979 616 979 b 32 983 355 979 164 979 b 41 708 39 873 41 762 b 37 608 41 669 40 632 l 69 608 b 343 951 135 871 241 951 l 345 951 l 345 157 b 191 28 345 43 318 28 l 191 0 b 476 4 253 1 361 4 b 781 0 597 4 715 1 l 781 28 b 627 157 653 28 627 43 l 627 951 l 628 951 b 901 608 728 951 836 869 l 933 608 b 929 708 930 632 929 669 b 939 983 929 762 932 873 z "},"Ţ":{"ha":971,"x_min":0,"x_max":0,"o":"m 939 983 b 486 979 807 979 616 979 b 32 983 355 979 164 979 b 41 708 39 873 41 762 b 37 608 41 669 40 632 l 69 608 b 343 951 135 871 241 951 l 345 951 l 345 157 b 191 28 345 43 318 28 l 191 0 b 463 4 250 1 352 4 l 418 -147 b 465 -138 431 -140 449 -138 b 531 -172 505 -138 531 -147 b 404 -225 531 -210 465 -225 b 323 -218 370 -225 338 -221 l 314 -243 b 453 -261 348 -254 397 -261 b 714 -143 604 -261 714 -224 b 597 -62 714 -97 677 -62 b 474 -83 551 -62 511 -69 l 500 4 b 781 0 612 3 720 1 l 781 28 b 627 157 653 28 627 43 l 627 951 l 628 951 b 901 608 728 951 836 869 l 933 608 b 929 708 930 632 929 669 b 939 983 929 762 932 873 z "},"Ț":{"ha":971,"x_min":0,"x_max":0,"o":"m 939 983 b 486 979 807 979 616 979 b 32 983 355 979 164 979 b 41 708 39 873 41 762 b 37 608 41 669 40 632 l 69 608 b 343 951 135 871 241 951 l 345 951 l 345 157 b 191 28 345 43 318 28 l 191 0 b 476 4 253 1 361 4 b 781 0 597 4 715 1 l 781 28 b 627 157 653 28 627 43 l 627 951 l 628 951 b 901 608 728 951 836 869 l 933 608 b 929 708 930 632 929 669 b 939 983 929 762 932 873 z m 479 -64 b 356 -165 399 -64 356 -100 b 473 -261 356 -229 399 -261 b 546 -240 511 -261 532 -253 b 418 -310 535 -281 498 -300 l 421 -340 b 608 -178 545 -338 608 -271 b 479 -64 608 -103 556 -64 z "},"U":{"ha":962,"x_min":0,"x_max":0,"o":"m 946 983 b 831 979 918 981 872 979 b 675 983 779 979 713 981 l 675 956 b 815 711 807 937 815 897 l 815 389 b 572 29 815 175 758 29 b 399 269 457 29 399 86 l 399 836 b 511 956 399 937 416 951 l 511 983 b 262 979 454 981 358 979 b 18 983 167 979 71 981 l 18 956 b 117 836 103 951 117 937 l 117 400 b 231 47 117 229 135 117 b 492 -20 304 -5 407 -20 b 790 110 652 -20 742 29 b 847 404 835 183 847 289 l 847 739 b 946 956 847 896 861 937 z "},"Ú":{"ha":962,"x_min":0,"x_max":0,"o":"m 608 1304 b 389 1089 540 1272 524 1203 l 398 1072 b 694 1143 561 1122 630 1109 b 747 1225 727 1159 747 1192 b 739 1261 747 1237 744 1249 b 651 1314 721 1297 685 1314 b 608 1304 635 1314 621 1310 z m 946 983 b 831 979 918 981 872 979 b 675 983 779 979 713 981 l 675 956 b 815 711 807 937 815 897 l 815 389 b 572 29 815 175 758 29 b 399 269 457 29 399 86 l 399 836 b 511 956 399 937 416 951 l 511 983 b 262 979 454 981 358 979 b 18 983 167 979 71 981 l 18 956 b 117 836 103 951 117 937 l 117 400 b 231 47 117 229 135 117 b 492 -20 304 -5 407 -20 b 790 110 652 -20 742 29 b 847 404 835 183 847 289 l 847 739 b 946 956 847 896 861 937 z "},"Ŭ":{"ha":962,"x_min":0,"x_max":0,"o":"m 802 1278 b 487 1197 748 1243 648 1197 b 172 1278 326 1197 226 1243 l 155 1263 b 487 1060 191 1169 298 1060 b 819 1263 676 1060 783 1169 z m 946 983 b 831 979 918 981 872 979 b 675 983 779 979 713 981 l 675 956 b 815 711 807 937 815 897 l 815 389 b 572 29 815 175 758 29 b 399 269 457 29 399 86 l 399 836 b 511 956 399 937 416 951 l 511 983 b 262 979 454 981 358 979 b 18 983 167 979 71 981 l 18 956 b 117 836 103 951 117 937 l 117 400 b 231 47 117 229 135 117 b 492 -20 304 -5 407 -20 b 790 110 652 -20 742 29 b 847 404 835 183 847 289 l 847 739 b 946 956 847 896 861 937 z "},"Û":{"ha":962,"x_min":0,"x_max":0,"o":"m 489 1328 b 187 1089 420 1239 308 1146 l 195 1068 b 473 1153 300 1088 412 1122 b 808 1068 546 1122 680 1088 l 815 1089 b 514 1328 693 1147 579 1240 z m 946 983 b 831 979 918 981 872 979 b 675 983 779 979 713 981 l 675 956 b 815 711 807 937 815 897 l 815 389 b 572 29 815 175 758 29 b 399 269 457 29 399 86 l 399 836 b 511 956 399 937 416 951 l 511 983 b 262 979 454 981 358 979 b 18 983 167 979 71 981 l 18 956 b 117 836 103 951 117 937 l 117 400 b 231 47 117 229 135 117 b 492 -20 304 -5 407 -20 b 790 110 652 -20 742 29 b 847 404 835 183 847 289 l 847 739 b 946 956 847 896 861 937 z "},"Ü":{"ha":962,"x_min":0,"x_max":0,"o":"m 322 1300 b 201 1179 256 1300 201 1243 b 322 1059 201 1112 256 1059 b 443 1179 386 1059 443 1112 b 322 1300 443 1243 386 1300 z m 680 1300 b 559 1179 614 1300 559 1243 b 680 1059 559 1112 614 1059 b 801 1179 744 1059 801 1112 b 680 1300 801 1243 744 1300 z m 946 983 b 831 979 918 981 872 979 b 675 983 779 979 713 981 l 675 956 b 815 711 807 937 815 897 l 815 389 b 572 29 815 175 758 29 b 399 269 457 29 399 86 l 399 836 b 511 956 399 937 416 951 l 511 983 b 262 979 454 981 358 979 b 18 983 167 979 71 981 l 18 956 b 117 836 103 951 117 937 l 117 400 b 231 47 117 229 135 117 b 492 -20 304 -5 407 -20 b 790 110 652 -20 742 29 b 847 404 835 183 847 289 l 847 739 b 946 956 847 896 861 937 z "},"Ù":{"ha":962,"x_min":0,"x_max":0,"o":"m 375 1304 b 332 1314 362 1310 347 1314 b 244 1261 298 1314 262 1297 b 236 1225 239 1249 236 1237 b 289 1143 236 1192 256 1160 b 585 1072 353 1109 422 1122 l 594 1089 b 375 1304 460 1203 443 1272 z m 946 983 b 831 979 918 981 872 979 b 675 983 779 979 713 981 l 675 956 b 815 711 807 937 815 897 l 815 389 b 572 29 815 175 758 29 b 399 269 457 29 399 86 l 399 836 b 511 956 399 937 416 951 l 511 983 b 262 979 454 981 358 979 b 18 983 167 979 71 981 l 18 956 b 117 836 103 951 117 937 l 117 400 b 231 47 117 229 135 117 b 492 -20 304 -5 407 -20 b 790 110 652 -20 742 29 b 847 404 835 183 847 289 l 847 739 b 946 956 847 896 861 937 z "},"Ű":{"ha":962,"x_min":0,"x_max":0,"o":"m 429 1310 b 267 1088 380 1274 359 1202 l 280 1072 b 533 1160 412 1124 484 1128 b 577 1235 562 1179 577 1206 b 562 1283 577 1251 572 1267 b 482 1326 543 1312 513 1326 b 429 1310 463 1326 445 1320 z m 744 1310 b 582 1088 695 1274 675 1202 l 595 1072 b 848 1160 728 1124 800 1128 b 892 1235 877 1179 892 1206 b 878 1283 892 1251 888 1267 b 798 1326 859 1312 828 1326 b 744 1310 779 1326 760 1320 z m 946 983 b 831 979 918 981 872 979 b 675 983 779 979 713 981 l 675 956 b 815 711 807 937 815 897 l 815 389 b 572 29 815 175 758 29 b 399 269 457 29 399 86 l 399 836 b 511 956 399 937 416 951 l 511 983 b 262 979 454 981 358 979 b 18 983 167 979 71 981 l 18 956 b 117 836 103 951 117 937 l 117 400 b 231 47 117 229 135 117 b 492 -20 304 -5 407 -20 b 790 110 652 -20 742 29 b 847 404 835 183 847 289 l 847 739 b 946 956 847 896 861 937 z "},"Ū":{"ha":962,"x_min":0,"x_max":0,"o":"m 801 1137 l 801 1173 l 201 1173 l 201 1137 z m 946 983 b 831 979 918 981 872 979 b 675 983 779 979 713 981 l 675 956 b 815 711 807 937 815 897 l 815 389 b 572 29 815 175 758 29 b 399 269 457 29 399 86 l 399 836 b 511 956 399 937 416 951 l 511 983 b 262 979 454 981 358 979 b 18 983 167 979 71 981 l 18 956 b 117 836 103 951 117 937 l 117 400 b 231 47 117 229 135 117 b 492 -20 304 -5 407 -20 b 790 110 652 -20 742 29 b 847 404 835 183 847 289 l 847 739 b 946 956 847 896 861 937 z "},"Ų":{"ha":962,"x_min":0,"x_max":0,"o":"m 831 979 b 675 983 779 979 713 981 l 675 956 b 815 711 807 937 815 897 l 815 389 b 572 29 815 175 758 29 b 399 269 457 29 399 86 l 399 836 b 511 956 399 937 416 951 l 511 983 b 262 979 454 981 358 979 b 18 983 167 979 71 981 l 18 956 b 117 836 103 951 117 937 l 117 400 b 231 47 117 229 135 117 b 492 -20 304 -5 407 -20 l 492 -20 b 314 -163 379 -52 314 -100 b 451 -261 314 -225 361 -261 b 664 -167 549 -261 610 -233 l 646 -146 b 554 -178 625 -164 585 -178 b 498 -125 517 -178 498 -163 b 642 -1 498 -87 536 -39 b 790 110 713 21 760 59 b 847 404 835 183 847 289 l 847 739 b 946 956 847 896 861 937 l 946 983 b 831 979 918 981 872 979 z "},"Ů":{"ha":962,"x_min":0,"x_max":0,"o":"m 501 1381 b 340 1242 416 1381 340 1328 b 501 1100 340 1154 416 1100 b 664 1242 587 1100 664 1154 b 501 1381 664 1328 587 1381 z m 501 1352 b 625 1240 561 1352 625 1312 b 501 1129 625 1165 561 1129 b 379 1240 443 1129 379 1165 b 501 1352 379 1312 443 1352 z m 946 983 b 831 979 918 981 872 979 b 675 983 779 979 713 981 l 675 956 b 815 711 807 937 815 897 l 815 389 b 572 29 815 175 758 29 b 399 269 457 29 399 86 l 399 836 b 511 956 399 937 416 951 l 511 983 b 262 979 454 981 358 979 b 18 983 167 979 71 981 l 18 956 b 117 836 103 951 117 937 l 117 400 b 231 47 117 229 135 117 b 492 -20 304 -5 407 -20 b 790 110 652 -20 742 29 b 847 404 835 183 847 289 l 847 739 b 946 956 847 896 861 937 z "},"Ũ":{"ha":962,"x_min":0,"x_max":0,"o":"m 372 1303 b 165 1090 285 1303 203 1242 l 184 1080 b 319 1156 225 1133 269 1156 b 628 1063 439 1156 478 1063 b 833 1275 714 1063 796 1124 l 814 1284 b 680 1211 774 1232 729 1211 b 372 1303 559 1211 521 1303 z m 946 983 b 831 979 918 981 872 979 b 675 983 779 979 713 981 l 675 956 b 815 711 807 937 815 897 l 815 389 b 572 29 815 175 758 29 b 399 269 457 29 399 86 l 399 836 b 511 956 399 937 416 951 l 511 983 b 262 979 454 981 358 979 b 18 983 167 979 71 981 l 18 956 b 117 836 103 951 117 937 l 117 400 b 231 47 117 229 135 117 b 492 -20 304 -5 407 -20 b 790 110 652 -20 742 29 b 847 404 835 183 847 289 l 847 739 b 946 956 847 896 861 937 z "},"V":{"ha":962,"x_min":0,"x_max":0,"o":"m 872 979 b 690 983 808 979 760 981 l 690 956 b 804 831 761 953 804 918 b 758 625 804 781 789 714 l 624 247 l 383 839 b 366 905 372 867 366 888 b 464 956 366 945 401 953 l 464 983 b 231 979 414 981 325 979 b -22 983 139 979 45 981 l -22 956 b 60 867 3 954 33 930 l 424 0 b 496 3 446 1 471 3 b 570 0 521 3 547 1 l 840 761 b 979 956 882 879 936 935 l 979 983 b 872 979 951 981 908 979 z "},"W":{"ha":1402,"x_min":0,"x_max":0,"o":"m 1307 979 b 1125 983 1243 979 1194 981 l 1125 956 b 1245 819 1199 953 1245 916 b 1208 625 1245 770 1234 707 l 1101 282 l 918 839 b 904 903 909 866 904 887 b 999 956 904 944 935 954 l 999 983 b 783 979 951 981 871 979 b 543 983 696 979 606 981 l 543 956 b 614 890 575 953 599 939 l 708 602 l 587 273 l 385 839 b 373 900 378 857 373 879 b 410 956 373 926 382 950 l 410 983 b 225 979 371 981 307 979 b -21 983 143 979 46 981 l -21 956 b 61 867 4 954 37 930 l 383 0 b 456 3 406 1 431 3 b 529 0 481 3 507 1 l 725 551 l 905 0 b 978 3 928 1 953 3 b 1051 0 1003 3 1029 1 l 1284 761 b 1414 956 1321 880 1371 935 l 1414 983 b 1307 979 1386 981 1343 979 z "},"Ẃ":{"ha":1402,"x_min":0,"x_max":0,"o":"m 922 1143 b 975 1225 955 1159 975 1192 b 966 1261 975 1237 972 1249 b 879 1314 949 1297 913 1314 b 836 1304 863 1314 848 1310 b 616 1089 768 1272 751 1203 l 626 1072 b 922 1143 789 1122 858 1109 z m 1307 979 b 1125 983 1243 979 1194 981 l 1125 956 b 1245 819 1199 953 1245 916 b 1208 625 1245 770 1234 707 l 1101 282 l 918 839 b 904 903 909 866 904 887 b 999 956 904 944 935 954 l 999 983 b 783 979 951 981 871 979 b 543 983 696 979 606 981 l 543 956 b 614 890 575 953 599 939 l 708 602 l 587 273 l 385 839 b 373 900 378 857 373 879 b 410 956 373 926 382 950 l 410 983 b 225 979 371 981 307 979 b -21 983 143 979 46 981 l -21 956 b 61 867 4 954 37 930 l 383 0 b 456 3 406 1 431 3 b 529 0 481 3 507 1 l 725 551 l 905 0 b 978 3 928 1 953 3 b 1051 0 1003 3 1029 1 l 1284 761 b 1414 956 1321 880 1371 935 l 1414 983 b 1307 979 1386 981 1343 979 z "},"Ŵ":{"ha":1402,"x_min":0,"x_max":0,"o":"m 701 1153 b 1036 1068 774 1122 908 1088 l 1043 1089 b 742 1328 921 1147 807 1240 l 717 1328 b 415 1089 648 1239 536 1146 l 422 1068 b 701 1153 528 1088 640 1122 z m 1307 979 b 1125 983 1243 979 1194 981 l 1125 956 b 1245 819 1199 953 1245 916 b 1208 625 1245 770 1234 707 l 1101 282 l 918 839 b 904 903 909 866 904 887 b 999 956 904 944 935 954 l 999 983 b 783 979 951 981 871 979 b 543 983 696 979 606 981 l 543 956 b 614 890 575 953 599 939 l 708 602 l 587 273 l 385 839 b 373 900 378 857 373 879 b 410 956 373 926 382 950 l 410 983 b 225 979 371 981 307 979 b -21 983 143 979 46 981 l -21 956 b 61 867 4 954 37 930 l 383 0 b 456 3 406 1 431 3 b 529 0 481 3 507 1 l 725 551 l 905 0 b 978 3 928 1 953 3 b 1051 0 1003 3 1029 1 l 1284 761 b 1414 956 1321 880 1371 935 l 1414 983 b 1307 979 1386 981 1343 979 z "},"Ẅ":{"ha":1402,"x_min":0,"x_max":0,"o":"m 550 1059 b 671 1179 614 1059 671 1112 b 550 1300 671 1243 614 1300 b 429 1179 484 1300 429 1243 b 550 1059 429 1112 484 1059 z m 908 1059 b 1029 1179 972 1059 1029 1112 b 908 1300 1029 1243 972 1300 b 787 1179 842 1300 787 1243 b 908 1059 787 1112 842 1059 z m 1307 979 b 1125 983 1243 979 1194 981 l 1125 956 b 1245 819 1199 953 1245 916 b 1208 625 1245 770 1234 707 l 1101 282 l 918 839 b 904 903 909 866 904 887 b 999 956 904 944 935 954 l 999 983 b 783 979 951 981 871 979 b 543 983 696 979 606 981 l 543 956 b 614 890 575 953 599 939 l 708 602 l 587 273 l 385 839 b 373 900 378 857 373 879 b 410 956 373 926 382 950 l 410 983 b 225 979 371 981 307 979 b -21 983 143 979 46 981 l -21 956 b 61 867 4 954 37 930 l 383 0 b 456 3 406 1 431 3 b 529 0 481 3 507 1 l 725 551 l 905 0 b 978 3 928 1 953 3 b 1051 0 1003 3 1029 1 l 1284 761 b 1414 956 1321 880 1371 935 l 1414 983 b 1307 979 1386 981 1343 979 z "},"Ẁ":{"ha":1402,"x_min":0,"x_max":0,"o":"m 517 1143 b 812 1072 581 1109 650 1122 l 822 1089 b 603 1304 688 1203 671 1272 b 560 1314 590 1310 575 1314 b 472 1261 526 1314 490 1297 b 464 1225 467 1249 464 1237 b 517 1143 464 1192 484 1160 z m 1307 979 b 1125 983 1243 979 1194 981 l 1125 956 b 1245 819 1199 953 1245 916 b 1208 625 1245 770 1234 707 l 1101 282 l 918 839 b 904 903 909 866 904 887 b 999 956 904 944 935 954 l 999 983 b 783 979 951 981 871 979 b 543 983 696 979 606 981 l 543 956 b 614 890 575 953 599 939 l 708 602 l 587 273 l 385 839 b 373 900 378 857 373 879 b 410 956 373 926 382 950 l 410 983 b 225 979 371 981 307 979 b -21 983 143 979 46 981 l -21 956 b 61 867 4 954 37 930 l 383 0 b 456 3 406 1 431 3 b 529 0 481 3 507 1 l 725 551 l 905 0 b 978 3 928 1 953 3 b 1051 0 1003 3 1029 1 l 1284 761 b 1414 956 1321 880 1371 935 l 1414 983 b 1307 979 1386 981 1343 979 z "},"X":{"ha":1013,"x_min":0,"x_max":0,"o":"m 610 596 l 775 799 b 962 956 827 863 899 932 l 962 983 b 828 979 932 981 885 979 b 643 983 783 979 696 981 l 643 956 b 741 865 705 950 741 916 b 671 720 741 825 718 774 l 591 622 l 390 908 b 380 932 383 918 380 926 b 467 956 380 950 408 956 l 467 985 b 243 979 424 983 329 979 b -8 985 146 979 40 983 l -8 956 b 78 886 28 953 40 939 l 395 434 l 228 225 b -3 28 146 123 66 57 l -3 0 b 132 4 28 3 75 4 b 372 0 176 4 319 3 l 372 28 b 256 138 300 33 256 75 b 328 301 256 184 278 240 l 413 408 l 644 77 b 654 53 651 67 654 59 b 568 29 654 35 626 29 l 568 0 b 810 5 614 1 718 5 b 1047 0 901 5 1002 1 l 1047 29 b 961 98 1011 32 999 46 z "},"Y":{"ha":895,"x_min":0,"x_max":0,"o":"m 777 981 b 595 985 713 981 664 982 l 595 957 b 706 854 661 954 706 926 b 640 647 706 806 686 739 l 577 522 l 379 903 b 373 924 375 911 373 918 b 485 956 373 955 427 956 l 485 985 b 179 977 392 981 273 977 b -12 985 104 977 45 979 l -12 956 b 68 878 7 956 36 936 l 325 403 l 325 147 b 227 28 325 46 311 32 l 227 0 b 467 4 277 3 372 4 b 705 0 553 4 652 3 l 705 28 b 607 147 623 32 607 46 l 607 517 l 736 772 b 884 957 793 885 840 936 l 884 985 b 777 981 856 982 812 981 z "},"Ý":{"ha":895,"x_min":0,"x_max":0,"o":"m 677 1143 b 729 1225 709 1159 729 1192 b 721 1261 729 1237 726 1249 b 633 1314 703 1297 667 1314 b 591 1304 618 1314 603 1310 b 371 1089 522 1272 506 1203 l 380 1072 b 677 1143 543 1122 612 1109 z m 777 981 b 595 985 713 981 664 982 l 595 957 b 706 854 661 954 706 926 b 640 647 706 806 686 739 l 577 522 l 379 903 b 373 924 375 911 373 918 b 485 956 373 955 427 956 l 485 985 b 179 977 392 981 273 977 b -12 985 104 977 45 979 l -12 956 b 68 878 7 956 36 936 l 325 403 l 325 147 b 227 28 325 46 311 32 l 227 0 b 467 4 277 3 372 4 b 705 0 553 4 652 3 l 705 28 b 607 147 623 32 607 46 l 607 517 l 736 772 b 884 957 793 885 840 936 l 884 985 b 777 981 856 982 812 981 z "},"Ŷ":{"ha":895,"x_min":0,"x_max":0,"o":"m 456 1153 b 791 1068 528 1122 663 1088 l 798 1089 b 496 1328 675 1147 562 1240 l 471 1328 b 170 1089 403 1239 290 1146 l 177 1068 b 456 1153 282 1088 395 1122 z m 777 981 b 595 985 713 981 664 982 l 595 957 b 706 854 661 954 706 926 b 640 647 706 806 686 739 l 577 522 l 379 903 b 373 924 375 911 373 918 b 485 956 373 955 427 956 l 485 985 b 179 977 392 981 273 977 b -12 985 104 977 45 979 l -12 956 b 68 878 7 956 36 936 l 325 403 l 325 147 b 227 28 325 46 311 32 l 227 0 b 467 4 277 3 372 4 b 705 0 553 4 652 3 l 705 28 b 607 147 623 32 607 46 l 607 517 l 736 772 b 884 957 793 885 840 936 l 884 985 b 777 981 856 982 812 981 z "},"Ÿ":{"ha":895,"x_min":0,"x_max":0,"o":"m 304 1059 b 425 1179 368 1059 425 1112 b 304 1300 425 1243 368 1300 b 184 1179 238 1300 184 1243 b 304 1059 184 1112 238 1059 z m 663 1059 b 783 1179 726 1059 783 1112 b 663 1300 783 1243 726 1300 b 542 1179 596 1300 542 1243 b 663 1059 542 1112 596 1059 z m 777 981 b 595 985 713 981 664 982 l 595 957 b 706 854 661 954 706 926 b 640 647 706 806 686 739 l 577 522 l 379 903 b 373 924 375 911 373 918 b 485 956 373 955 427 956 l 485 985 b 179 977 392 981 273 977 b -12 985 104 977 45 979 l -12 956 b 68 878 7 956 36 936 l 325 403 l 325 147 b 227 28 325 46 311 32 l 227 0 b 467 4 277 3 372 4 b 705 0 553 4 652 3 l 705 28 b 607 147 623 32 607 46 l 607 517 l 736 772 b 884 957 793 885 840 936 l 884 985 b 777 981 856 982 812 981 z "},"Ỳ":{"ha":895,"x_min":0,"x_max":0,"o":"m 271 1143 b 567 1072 335 1109 404 1122 l 576 1089 b 357 1304 442 1203 425 1272 b 315 1314 345 1310 330 1314 b 227 1261 280 1314 244 1297 b 218 1225 221 1249 218 1237 b 271 1143 218 1192 239 1160 z m 777 981 b 595 985 713 981 664 982 l 595 957 b 706 854 661 954 706 926 b 640 647 706 806 686 739 l 577 522 l 379 903 b 373 924 375 911 373 918 b 485 956 373 955 427 956 l 485 985 b 179 977 392 981 273 977 b -12 985 104 977 45 979 l -12 956 b 68 878 7 956 36 936 l 325 403 l 325 147 b 227 28 325 46 311 32 l 227 0 b 467 4 277 3 372 4 b 705 0 553 4 652 3 l 705 28 b 607 147 623 32 607 46 l 607 517 l 736 772 b 884 957 793 885 840 936 l 884 985 b 777 981 856 982 812 981 z "},"Z":{"ha":843,"x_min":0,"x_max":0,"o":"m 779 956 l 779 983 b 345 979 644 979 484 979 b 54 983 260 979 140 979 b 64 750 61 890 64 796 b 60 650 64 711 62 673 l 92 650 b 403 951 123 886 289 951 l 472 951 l 52 28 l 52 0 b 444 4 174 4 318 4 b 790 0 546 4 688 4 b 781 233 781 92 781 187 b 785 361 781 283 782 328 l 753 361 b 416 32 725 110 511 32 l 358 32 z "},"Ź":{"ha":843,"x_min":0,"x_max":0,"o":"m 532 1304 b 313 1089 464 1272 448 1203 l 322 1072 b 618 1143 485 1122 554 1109 b 671 1225 651 1159 671 1192 b 663 1261 671 1237 668 1249 b 575 1314 645 1297 609 1314 b 532 1304 559 1314 545 1310 z m 779 956 l 779 983 b 345 979 644 979 484 979 b 54 983 260 979 140 979 b 64 750 61 890 64 796 b 60 650 64 711 62 673 l 92 650 b 403 951 123 886 289 951 l 472 951 l 52 28 l 52 0 b 444 4 174 4 318 4 b 790 0 546 4 688 4 b 781 233 781 92 781 187 b 785 361 781 283 782 328 l 753 361 b 416 32 725 110 511 32 l 358 32 z "},"Ž":{"ha":843,"x_min":0,"x_max":0,"o":"m 728 1314 b 449 1229 623 1295 510 1260 b 115 1314 377 1260 242 1295 l 107 1293 b 409 1054 230 1235 343 1141 l 434 1054 b 735 1293 502 1143 614 1236 z m 779 956 l 779 983 b 345 979 644 979 484 979 b 54 983 260 979 140 979 b 64 750 61 890 64 796 b 60 650 64 711 62 673 l 92 650 b 403 951 123 886 289 951 l 472 951 l 52 28 l 52 0 b 444 4 174 4 318 4 b 790 0 546 4 688 4 b 781 233 781 92 781 187 b 785 361 781 283 782 328 l 753 361 b 416 32 725 110 511 32 l 358 32 z "},"Ż":{"ha":843,"x_min":0,"x_max":0,"o":"m 425 1356 b 274 1236 328 1356 274 1315 b 425 1116 274 1157 328 1116 b 576 1236 521 1116 576 1157 b 425 1356 576 1315 521 1356 z m 779 956 l 779 983 b 345 979 644 979 484 979 b 54 983 260 979 140 979 b 64 750 61 890 64 796 b 60 650 64 711 62 673 l 92 650 b 403 951 123 886 289 951 l 472 951 l 52 28 l 52 0 b 444 4 174 4 318 4 b 790 0 546 4 688 4 b 781 233 781 92 781 187 b 785 361 781 283 782 328 l 753 361 b 416 32 725 110 511 32 l 358 32 z "},"a":{"ha":737,"x_min":0,"x_max":0,"o":"m 378 741 b 155 696 281 741 212 725 b 69 568 106 669 69 627 b 183 447 69 500 114 447 b 317 564 264 447 317 498 b 224 689 317 627 283 667 b 297 713 244 703 273 713 b 400 599 386 713 400 642 l 400 475 b 207 346 400 412 315 385 b 31 150 85 306 31 244 b 205 -9 31 54 94 -9 b 404 96 292 -9 366 32 b 547 -9 406 40 443 -9 b 728 41 627 -9 684 4 l 714 65 b 671 45 701 56 688 45 b 650 104 656 45 650 60 l 650 476 b 604 671 650 572 643 631 b 378 741 551 726 475 741 z m 400 125 b 349 102 383 107 368 102 b 278 200 309 102 278 127 b 346 357 278 268 304 317 b 400 418 366 376 389 399 z "},"á":{"ha":737,"x_min":0,"x_max":0,"o":"m 528 1139 b 467 1161 510 1154 488 1161 b 392 1128 438 1161 409 1148 b 274 844 342 1072 353 1002 l 289 832 b 534 1013 420 942 488 957 b 557 1076 549 1031 557 1054 b 528 1139 557 1100 548 1123 z m 378 741 b 155 696 281 741 212 725 b 69 568 106 669 69 627 b 183 447 69 500 114 447 b 317 564 264 447 317 498 b 224 689 317 627 283 667 b 297 713 244 703 273 713 b 400 599 386 713 400 642 l 400 475 b 207 346 400 412 315 385 b 31 150 85 306 31 244 b 205 -9 31 54 94 -9 b 404 96 292 -9 366 32 b 547 -9 406 40 443 -9 b 728 41 627 -9 684 4 l 714 65 b 671 45 701 56 688 45 b 650 104 656 45 650 60 l 650 476 b 604 671 650 572 643 631 b 378 741 551 726 475 741 z m 400 125 b 349 102 383 107 368 102 b 278 200 309 102 278 127 b 346 357 278 268 304 317 b 400 418 366 376 389 399 z "},"ă":{"ha":737,"x_min":0,"x_max":0,"o":"m 625 1095 b 372 1017 583 1060 506 1017 b 120 1095 239 1017 163 1060 l 96 1082 b 372 851 127 975 203 851 b 649 1082 542 851 618 975 z m 378 741 b 155 696 281 741 212 725 b 69 568 106 669 69 627 b 183 447 69 500 114 447 b 317 564 264 447 317 498 b 224 689 317 627 283 667 b 297 713 244 703 273 713 b 400 599 386 713 400 642 l 400 475 b 207 346 400 412 315 385 b 31 150 85 306 31 244 b 205 -9 31 54 94 -9 b 404 96 292 -9 366 32 b 547 -9 406 40 443 -9 b 728 41 627 -9 684 4 l 714 65 b 671 45 701 56 688 45 b 650 104 656 45 650 60 l 650 476 b 604 671 650 572 643 631 b 378 741 551 726 475 741 z m 400 125 b 349 102 383 107 368 102 b 278 200 309 102 278 127 b 346 357 278 268 304 317 b 400 418 366 376 389 399 z "},"â":{"ha":737,"x_min":0,"x_max":0,"o":"m 361 1156 b 101 861 301 1044 205 929 l 113 842 b 346 925 201 861 293 895 b 635 842 410 895 524 861 l 646 861 b 386 1156 540 930 443 1046 z m 378 741 b 155 696 281 741 212 725 b 69 568 106 669 69 627 b 183 447 69 500 114 447 b 317 564 264 447 317 498 b 224 689 317 627 283 667 b 297 713 244 703 273 713 b 400 599 386 713 400 642 l 400 475 b 207 346 400 412 315 385 b 31 150 85 306 31 244 b 205 -9 31 54 94 -9 b 404 96 292 -9 366 32 b 547 -9 406 40 443 -9 b 728 41 627 -9 684 4 l 714 65 b 671 45 701 56 688 45 b 650 104 656 45 650 60 l 650 476 b 604 671 650 572 643 631 b 378 741 551 726 475 741 z m 400 125 b 349 102 383 107 368 102 b 278 200 309 102 278 127 b 346 357 278 268 304 317 b 400 418 366 376 389 399 z "},"ä":{"ha":737,"x_min":0,"x_max":0,"o":"m 210 1072 b 89 951 143 1072 89 1015 b 210 831 89 885 143 831 b 331 951 274 831 331 885 b 210 1072 331 1015 274 1072 z m 541 1072 b 420 951 474 1072 420 1015 b 541 831 420 885 474 831 b 661 951 604 831 661 885 b 541 1072 661 1015 604 1072 z m 378 741 b 155 696 281 741 212 725 b 69 568 106 669 69 627 b 183 447 69 500 114 447 b 317 564 264 447 317 498 b 224 689 317 627 283 667 b 297 713 244 703 273 713 b 400 599 386 713 400 642 l 400 475 b 207 346 400 412 315 385 b 31 150 85 306 31 244 b 205 -9 31 54 94 -9 b 404 96 292 -9 366 32 b 547 -9 406 40 443 -9 b 728 41 627 -9 684 4 l 714 65 b 671 45 701 56 688 45 b 650 104 656 45 650 60 l 650 476 b 604 671 650 572 643 631 b 378 741 551 726 475 741 z m 400 125 b 349 102 383 107 368 102 b 278 200 309 102 278 127 b 346 357 278 268 304 317 b 400 418 366 376 389 399 z "},"à":{"ha":737,"x_min":0,"x_max":0,"o":"m 197 1139 b 169 1076 178 1122 169 1099 b 192 1013 169 1054 176 1031 b 436 832 237 957 306 942 l 452 844 b 334 1128 372 1002 383 1072 b 257 1162 317 1147 287 1162 b 197 1139 236 1162 215 1155 z m 378 741 b 155 696 281 741 212 725 b 69 568 106 669 69 627 b 183 447 69 500 114 447 b 317 564 264 447 317 498 b 224 689 317 627 283 667 b 297 713 244 703 273 713 b 400 599 386 713 400 642 l 400 475 b 207 346 400 412 315 385 b 31 150 85 306 31 244 b 205 -9 31 54 94 -9 b 404 96 292 -9 366 32 b 547 -9 406 40 443 -9 b 728 41 627 -9 684 4 l 714 65 b 671 45 701 56 688 45 b 650 104 656 45 650 60 l 650 476 b 604 671 650 572 643 631 b 378 741 551 726 475 741 z m 400 125 b 349 102 383 107 368 102 b 278 200 309 102 278 127 b 346 357 278 268 304 317 b 400 418 366 376 389 399 z "},"ā":{"ha":737,"x_min":0,"x_max":0,"o":"m 614 954 l 614 989 l 125 989 l 125 954 z m 378 741 b 155 696 281 741 212 725 b 69 568 106 669 69 627 b 183 447 69 500 114 447 b 317 564 264 447 317 498 b 224 689 317 627 283 667 b 297 713 244 703 273 713 b 400 599 386 713 400 642 l 400 475 b 207 346 400 412 315 385 b 31 150 85 306 31 244 b 205 -9 31 54 94 -9 b 404 96 292 -9 366 32 b 547 -9 406 40 443 -9 b 728 41 627 -9 684 4 l 714 65 b 671 45 701 56 688 45 b 650 104 656 45 650 60 l 650 476 b 604 671 650 572 643 631 b 378 741 551 726 475 741 z m 400 125 b 349 102 383 107 368 102 b 278 200 309 102 278 127 b 346 357 278 268 304 317 b 400 418 366 376 389 399 z "},"ą":{"ha":737,"x_min":0,"x_max":0,"o":"m 605 -178 b 549 -125 568 -178 549 -163 b 644 -5 549 -89 571 -41 b 665 6 653 -1 660 3 b 728 41 689 14 709 26 l 714 65 b 671 45 701 56 688 45 b 650 104 656 45 650 60 l 650 476 b 604 671 650 572 643 631 b 378 741 551 726 475 741 b 155 696 281 741 212 725 b 69 568 106 669 69 627 b 183 447 69 500 114 447 b 317 564 264 447 317 498 b 224 689 317 627 283 667 b 297 713 244 703 273 713 b 400 599 386 713 400 642 l 400 475 b 207 346 400 412 315 385 b 31 150 85 306 31 244 b 205 -9 31 54 94 -9 b 404 96 292 -9 366 32 b 547 -9 406 40 443 -9 l 551 -9 b 364 -163 433 -41 364 -93 b 502 -261 364 -225 412 -261 b 714 -167 599 -261 661 -233 l 696 -146 b 605 -178 675 -164 635 -178 z m 400 125 b 349 102 383 107 368 102 b 278 200 309 102 278 127 b 346 357 278 268 304 317 b 400 418 366 376 389 399 z "},"å":{"ha":737,"x_min":0,"x_max":0,"o":"m 374 1112 b 213 972 289 1112 213 1059 b 374 831 213 885 289 831 b 536 972 460 831 536 885 b 374 1112 536 1059 460 1112 z m 374 1083 b 498 971 433 1083 498 1043 b 374 860 498 896 433 860 b 252 971 315 860 252 896 b 374 1083 252 1043 315 1083 z m 378 741 b 155 696 281 741 212 725 b 69 568 106 669 69 627 b 183 447 69 500 114 447 b 317 564 264 447 317 498 b 224 689 317 627 283 667 b 297 713 244 703 273 713 b 400 599 386 713 400 642 l 400 475 b 207 346 400 412 315 385 b 31 150 85 306 31 244 b 205 -9 31 54 94 -9 b 404 96 292 -9 366 32 b 547 -9 406 40 443 -9 b 728 41 627 -9 684 4 l 714 65 b 671 45 701 56 688 45 b 650 104 656 45 650 60 l 650 476 b 604 671 650 572 643 631 b 378 741 551 726 475 741 z m 400 125 b 349 102 383 107 368 102 b 278 200 309 102 278 127 b 346 357 278 268 304 317 b 400 418 366 376 389 399 z "},"ã":{"ha":737,"x_min":0,"x_max":0,"o":"m 255 1108 b 76 882 179 1108 108 1043 l 96 872 b 203 947 127 925 163 947 b 455 854 300 947 333 854 b 633 1080 530 854 601 920 l 614 1090 b 507 1017 582 1038 545 1017 b 255 1108 410 1017 376 1108 z m 378 741 b 155 696 281 741 212 725 b 69 568 106 669 69 627 b 183 447 69 500 114 447 b 317 564 264 447 317 498 b 224 689 317 627 283 667 b 297 713 244 703 273 713 b 400 599 386 713 400 642 l 400 475 b 207 346 400 412 315 385 b 31 150 85 306 31 244 b 205 -9 31 54 94 -9 b 404 96 292 -9 366 32 b 547 -9 406 40 443 -9 b 728 41 627 -9 684 4 l 714 65 b 671 45 701 56 688 45 b 650 104 656 45 650 60 l 650 476 b 604 671 650 572 643 631 b 378 741 551 726 475 741 z m 400 125 b 349 102 383 107 368 102 b 278 200 309 102 278 127 b 346 357 278 268 304 317 b 400 418 366 376 389 399 z "},"æ":{"ha":1015,"x_min":0,"x_max":0,"o":"m 793 132 b 647 379 725 132 647 183 b 648 429 647 396 647 413 l 979 429 b 730 741 979 653 885 741 b 522 675 646 741 576 717 b 335 741 476 723 425 741 b 146 696 262 741 199 724 b 60 568 96 669 60 627 b 174 447 60 500 104 447 b 307 564 254 447 307 498 b 214 689 307 627 273 667 b 288 713 235 703 264 713 b 390 599 376 713 390 642 l 390 475 b 211 346 390 412 311 383 b 35 150 89 304 35 244 b 210 -9 35 54 98 -9 b 437 120 323 -9 387 41 b 694 -20 492 20 587 -20 b 971 216 851 -20 937 104 l 947 225 b 793 132 892 140 828 132 z m 721 708 b 777 456 762 708 778 591 l 643 456 b 721 708 650 640 678 708 z m 353 123 b 282 210 300 123 282 160 b 350 357 282 273 315 317 b 390 418 367 376 382 399 l 390 416 b 387 359 388 398 387 379 b 425 146 387 271 401 201 b 353 123 403 128 381 123 z "},"b":{"ha":835,"x_min":0,"x_max":0,"o":"m 549 741 b 338 636 454 741 380 707 l 338 1086 b 96 1067 268 1072 189 1067 b 9 1071 68 1067 39 1068 l 9 1042 b 87 920 68 1042 87 1003 l 87 68 b 78 -8 87 41 86 17 l 97 -22 b 231 18 122 1 174 18 b 330 0 263 18 298 12 b 467 -20 370 -18 414 -20 b 790 392 640 -20 790 77 b 549 741 790 628 686 741 z m 403 8 b 338 24 382 8 359 14 l 338 568 b 437 668 338 627 386 668 b 530 359 489 668 530 606 b 403 8 530 125 489 8 z "},"c":{"ha":699,"x_min":0,"x_max":0,"o":"m 399 741 b 41 359 197 741 41 627 b 376 -20 41 79 191 -20 b 667 216 542 -20 632 104 l 643 225 b 475 132 582 140 513 132 b 301 379 393 132 301 183 b 463 700 301 518 330 700 b 518 684 488 700 505 693 b 404 545 457 667 404 614 b 532 419 404 471 450 419 b 665 554 610 419 665 478 b 582 699 665 618 632 669 b 399 741 545 721 479 741 z "},"ć":{"ha":699,"x_min":0,"x_max":0,"o":"m 531 1139 b 470 1161 513 1154 491 1161 b 395 1128 441 1161 412 1148 b 277 844 345 1072 356 1002 l 292 832 b 536 1013 422 942 490 957 b 559 1076 552 1031 559 1054 b 531 1139 559 1100 551 1123 z m 399 741 b 41 359 197 741 41 627 b 376 -20 41 79 191 -20 b 667 216 542 -20 632 104 l 643 225 b 475 132 582 140 513 132 b 301 379 393 132 301 183 b 463 700 301 518 330 700 b 518 684 488 700 505 693 b 404 545 457 667 404 614 b 532 419 404 471 450 419 b 665 554 610 419 665 478 b 582 699 665 618 632 669 b 399 741 545 721 479 741 z "},"č":{"ha":699,"x_min":0,"x_max":0,"o":"m 624 1156 b 391 1072 535 1136 443 1103 b 102 1156 326 1103 212 1136 l 90 1136 b 350 842 196 1067 293 951 l 375 842 b 635 1136 435 953 530 1068 z m 399 741 b 41 359 197 741 41 627 b 376 -20 41 79 191 -20 b 667 216 542 -20 632 104 l 643 225 b 475 132 582 140 513 132 b 301 379 393 132 301 183 b 463 700 301 518 330 700 b 518 684 488 700 505 693 b 404 545 457 667 404 614 b 532 419 404 471 450 419 b 665 554 610 419 665 478 b 582 699 665 618 632 669 b 399 741 545 721 479 741 z "},"ç":{"ha":699,"x_min":0,"x_max":0,"o":"m 376 -20 b 667 216 542 -20 632 104 l 643 225 b 475 132 582 140 513 132 b 301 379 393 132 301 183 b 463 700 301 518 330 700 b 518 684 488 700 505 693 b 404 545 457 667 404 614 b 532 419 404 471 450 419 b 665 554 610 419 665 478 b 582 699 665 618 632 669 b 399 741 545 721 479 741 b 41 359 197 741 41 627 b 319 -16 41 109 161 3 l 281 -147 b 328 -138 294 -140 312 -138 b 366 -172 351 -138 366 -147 b 280 -225 366 -210 320 -225 b 214 -218 252 -225 226 -221 l 205 -243 b 330 -261 235 -254 280 -261 b 549 -143 456 -261 549 -224 b 447 -62 549 -97 516 -62 b 337 -83 405 -62 370 -69 l 355 -19 z "},"ĉ":{"ha":699,"x_min":0,"x_max":0,"o":"m 363 1156 b 104 861 304 1044 208 929 l 115 842 b 349 925 204 861 296 895 b 637 842 412 895 526 861 l 648 861 b 389 1156 543 930 446 1046 z m 399 741 b 41 359 197 741 41 627 b 376 -20 41 79 191 -20 b 667 216 542 -20 632 104 l 643 225 b 475 132 582 140 513 132 b 301 379 393 132 301 183 b 463 700 301 518 330 700 b 518 684 488 700 505 693 b 404 545 457 667 404 614 b 532 419 404 471 450 419 b 665 554 610 419 665 478 b 582 699 665 618 632 669 b 399 741 545 721 479 741 z "},"ċ":{"ha":699,"x_min":0,"x_max":0,"o":"m 376 1086 b 225 966 279 1086 225 1046 b 376 847 225 888 279 847 b 528 966 472 847 528 888 b 376 1086 528 1046 472 1086 z m 399 741 b 41 359 197 741 41 627 b 376 -20 41 79 191 -20 b 667 216 542 -20 632 104 l 643 225 b 475 132 582 140 513 132 b 301 379 393 132 301 183 b 463 700 301 518 330 700 b 518 684 488 700 505 693 b 404 545 457 667 404 614 b 532 419 404 471 450 419 b 665 554 610 419 665 478 b 582 699 665 618 632 669 b 399 741 545 721 479 741 z "},"d":{"ha":846,"x_min":0,"x_max":0,"o":"m 746 1086 b 504 1067 676 1072 597 1067 b 418 1071 476 1067 447 1068 l 418 1042 b 496 920 476 1042 496 1003 l 496 705 b 351 741 458 730 413 741 b 43 366 165 741 43 616 b 326 -20 43 93 167 -20 b 496 85 408 -20 458 14 l 496 -14 b 737 5 566 0 644 5 b 823 1 765 5 794 4 l 823 31 b 746 153 765 31 746 69 z m 396 53 b 302 361 345 53 302 115 b 431 694 302 586 345 694 b 496 676 451 694 475 689 l 496 153 b 396 53 496 94 447 53 z "},"ð":{"ha":799,"x_min":0,"x_max":0,"o":"m 648 1046 l 636 1071 l 435 973 b 189 1086 361 1021 277 1059 l 178 1063 b 355 934 252 1027 310 983 l 154 836 l 167 811 l 373 912 b 466 722 418 856 447 792 b 368 741 437 735 404 741 b 45 345 199 741 45 644 b 401 -22 45 71 189 -22 b 754 425 616 -22 754 115 b 462 956 754 655 636 834 z m 401 5 b 304 361 346 5 304 113 b 432 705 304 596 346 705 b 472 699 445 705 458 703 b 498 414 492 612 498 516 b 401 5 498 109 457 5 z "},"ď":{"ha":846,"x_min":0,"x_max":0,"o":"m 822 782 b 985 1032 921 901 985 978 b 978 1089 985 1048 982 1079 b 841 1073 938 1080 902 1073 b 803 1074 829 1073 817 1073 l 803 1044 b 831 989 826 1044 831 1025 b 803 787 831 964 825 913 z m 746 1086 b 504 1067 676 1072 597 1067 b 418 1071 476 1067 447 1068 l 418 1042 b 496 920 476 1042 496 1003 l 496 705 b 351 741 458 730 413 741 b 43 366 165 741 43 616 b 326 -20 43 93 167 -20 b 496 85 408 -20 458 14 l 496 -14 b 737 5 566 0 644 5 b 823 1 765 5 794 4 l 823 31 b 746 153 765 31 746 69 z m 396 53 b 302 361 345 53 302 115 b 431 694 302 586 345 694 b 496 676 451 694 475 689 l 496 153 b 396 53 496 94 447 53 z "},"đ":{"ha":846,"x_min":0,"x_max":0,"o":"m 746 844 l 838 844 l 838 872 l 746 872 l 746 1086 b 504 1067 676 1072 597 1067 b 418 1071 476 1067 447 1068 l 418 1042 b 496 920 476 1042 496 1003 l 496 872 l 277 872 l 277 844 l 496 844 l 496 705 b 351 741 458 730 413 741 b 43 366 165 741 43 616 b 326 -20 43 93 167 -20 b 496 85 408 -20 458 14 l 496 -14 b 737 5 566 0 644 5 b 823 1 765 5 794 4 l 823 31 b 746 153 765 31 746 69 z m 396 53 b 302 361 345 53 302 115 b 431 694 302 586 345 694 b 496 676 451 694 475 689 l 496 153 b 396 53 496 94 447 53 z "},"e":{"ha":699,"x_min":0,"x_max":0,"o":"m 463 132 b 302 379 387 132 302 183 b 304 429 302 396 302 413 l 663 429 b 400 741 663 653 562 741 b 43 359 199 741 43 627 b 364 -20 43 79 186 -20 b 654 216 529 -20 619 104 l 631 225 b 463 132 570 140 500 132 z m 390 708 b 460 456 441 708 461 591 l 299 456 b 390 708 309 640 341 708 z "},"é":{"ha":699,"x_min":0,"x_max":0,"o":"m 547 1013 b 570 1076 563 1031 570 1054 b 542 1139 570 1100 562 1123 b 481 1161 524 1154 502 1161 b 406 1128 452 1161 422 1148 b 288 844 355 1072 367 1002 l 302 832 b 547 1013 433 942 501 957 z m 463 132 b 302 379 387 132 302 183 b 304 429 302 396 302 413 l 663 429 b 400 741 663 653 562 741 b 43 359 199 741 43 627 b 364 -20 43 79 186 -20 b 654 216 529 -20 619 104 l 631 225 b 463 132 570 140 500 132 z m 390 708 b 460 456 441 708 461 591 l 299 456 b 390 708 309 640 341 708 z "},"ĕ":{"ha":699,"x_min":0,"x_max":0,"o":"m 386 851 b 663 1082 555 851 632 975 l 639 1095 b 386 1017 596 1060 519 1017 b 134 1095 253 1017 176 1060 l 110 1082 b 386 851 140 975 216 851 z m 663 429 b 400 741 663 653 562 741 b 43 359 199 741 43 627 b 364 -20 43 79 186 -20 b 654 216 529 -20 619 104 l 631 225 b 463 132 570 140 500 132 b 302 379 387 132 302 183 b 304 429 302 396 302 413 z m 390 708 b 460 456 441 708 461 591 l 299 456 b 390 708 309 640 341 708 z "},"ě":{"ha":699,"x_min":0,"x_max":0,"o":"m 386 842 b 646 1136 446 953 541 1068 l 635 1156 b 401 1072 546 1136 454 1103 b 113 1156 337 1103 223 1136 l 101 1136 b 361 842 207 1067 304 951 z m 463 132 b 302 379 387 132 302 183 b 304 429 302 396 302 413 l 663 429 b 400 741 663 653 562 741 b 43 359 199 741 43 627 b 364 -20 43 79 186 -20 b 654 216 529 -20 619 104 l 631 225 b 463 132 570 140 500 132 z m 390 708 b 460 456 441 708 461 591 l 299 456 b 390 708 309 640 341 708 z "},"ê":{"ha":699,"x_min":0,"x_max":0,"o":"m 359 925 b 648 842 423 895 537 861 l 659 861 b 399 1156 553 930 456 1046 l 374 1156 b 115 861 315 1044 219 929 l 126 842 b 359 925 215 861 307 895 z m 463 132 b 302 379 387 132 302 183 b 304 429 302 396 302 413 l 663 429 b 400 741 663 653 562 741 b 43 359 199 741 43 627 b 364 -20 43 79 186 -20 b 654 216 529 -20 619 104 l 631 225 b 463 132 570 140 500 132 z m 390 708 b 460 456 441 708 461 591 l 299 456 b 390 708 309 640 341 708 z "},"ë":{"ha":699,"x_min":0,"x_max":0,"o":"m 224 831 b 345 951 288 831 345 885 b 224 1072 345 1015 288 1072 b 102 951 157 1072 102 1015 b 224 831 102 885 157 831 z m 554 831 b 675 951 618 831 675 885 b 554 1072 675 1015 618 1072 b 433 951 488 1072 433 1015 b 554 831 433 885 488 831 z m 663 429 b 400 741 663 653 562 741 b 43 359 199 741 43 627 b 364 -20 43 79 186 -20 b 654 216 529 -20 619 104 l 631 225 b 463 132 570 140 500 132 b 302 379 387 132 302 183 b 304 429 302 396 302 413 z m 390 708 b 460 456 441 708 461 591 l 299 456 b 390 708 309 640 341 708 z "},"ė":{"ha":699,"x_min":0,"x_max":0,"o":"m 387 847 b 538 966 483 847 538 888 b 387 1086 538 1046 483 1086 b 236 966 290 1086 236 1046 b 387 847 236 888 290 847 z m 463 132 b 302 379 387 132 302 183 b 304 429 302 396 302 413 l 663 429 b 400 741 663 653 562 741 b 43 359 199 741 43 627 b 364 -20 43 79 186 -20 b 654 216 529 -20 619 104 l 631 225 b 463 132 570 140 500 132 z m 390 708 b 460 456 441 708 461 591 l 299 456 b 390 708 309 640 341 708 z "},"è":{"ha":699,"x_min":0,"x_max":0,"o":"m 465 844 b 347 1128 386 1002 397 1072 b 271 1162 330 1147 300 1162 b 211 1139 250 1162 229 1155 b 182 1076 191 1122 182 1099 b 205 1013 182 1054 190 1031 b 450 832 251 957 319 942 z m 463 132 b 302 379 387 132 302 183 b 304 429 302 396 302 413 l 663 429 b 400 741 663 653 562 741 b 43 359 199 741 43 627 b 364 -20 43 79 186 -20 b 654 216 529 -20 619 104 l 631 225 b 463 132 570 140 500 132 z m 390 708 b 460 456 441 708 461 591 l 299 456 b 390 708 309 640 341 708 z "},"ē":{"ha":699,"x_min":0,"x_max":0,"o":"m 627 954 l 627 989 l 138 989 l 138 954 z m 463 132 b 302 379 387 132 302 183 b 304 429 302 396 302 413 l 663 429 b 400 741 663 653 562 741 b 43 359 199 741 43 627 b 364 -20 43 79 186 -20 b 654 216 529 -20 619 104 l 631 225 b 463 132 570 140 500 132 z m 390 708 b 460 456 441 708 461 591 l 299 456 b 390 708 309 640 341 708 z "},"ę":{"ha":699,"x_min":0,"x_max":0,"o":"m 463 132 b 302 379 387 132 302 183 b 304 429 302 396 302 413 l 663 429 b 400 741 663 653 562 741 b 43 359 199 741 43 627 b 338 -19 43 93 172 -9 b 183 -163 239 -51 183 -100 b 321 -261 183 -225 231 -261 b 533 -167 418 -261 479 -233 l 515 -146 b 424 -178 494 -164 454 -178 b 368 -125 387 -178 368 -163 b 463 -5 368 -89 390 -41 b 481 5 471 -1 477 2 b 654 216 574 46 629 135 l 631 225 b 463 132 570 140 500 132 z m 390 708 b 460 456 441 708 461 591 l 299 456 b 390 708 309 640 341 708 z "},"f":{"ha":507,"x_min":0,"x_max":0,"o":"m 411 1086 b 204 1017 326 1086 248 1054 b 106 720 132 954 106 884 l 22 720 l 22 692 l 106 692 l 106 129 b 28 29 106 52 85 29 l 28 0 b 220 5 65 1 144 5 b 475 0 322 5 424 1 l 475 29 b 355 143 400 29 355 53 l 355 692 l 504 692 l 504 720 l 355 720 l 355 905 b 382 1032 355 979 366 1011 b 447 1059 396 1048 415 1059 b 485 1046 467 1059 479 1053 b 389 922 419 1025 389 975 b 514 807 389 850 437 807 b 629 920 582 807 629 863 b 578 1035 629 974 604 1014 b 411 1086 536 1067 485 1086 z "},"g":{"ha":778,"x_min":0,"x_max":0,"o":"m 245 195 b 196 240 215 195 196 208 b 250 309 196 270 216 286 b 382 296 290 300 334 296 b 708 518 570 296 708 366 b 495 731 708 638 623 707 b 493 764 494 742 493 753 b 503 836 493 791 496 817 b 627 764 526 790 561 764 b 741 854 690 764 741 802 b 621 947 741 914 686 947 b 464 764 510 947 464 867 b 465 735 464 754 465 745 b 382 741 439 739 411 741 b 56 518 195 741 56 671 b 224 316 56 413 122 347 b 45 109 92 253 45 199 b 211 -36 45 -14 155 -36 l 256 -36 b 28 -146 200 -104 28 -45 b 354 -261 28 -200 98 -261 b 765 32 635 -261 765 -109 b 561 195 765 155 671 195 z m 382 715 b 453 518 427 715 453 667 b 382 321 453 370 427 321 b 311 518 338 321 311 370 b 382 715 311 667 338 715 z m 392 -237 b 267 -126 309 -237 267 -196 b 284 -36 267 -110 270 -66 l 509 -36 b 572 -81 557 -36 572 -53 b 392 -237 572 -174 500 -237 z "},"ǵ":{"ha":778,"x_min":0,"x_max":0,"o":"m 542 1013 b 565 1076 557 1031 565 1054 b 536 1139 565 1100 556 1123 b 475 1161 518 1154 496 1161 b 400 1128 446 1161 417 1148 b 282 844 350 1072 361 1002 l 297 832 b 542 1013 428 942 496 957 z m 245 195 b 196 240 215 195 196 208 b 250 309 196 270 216 286 b 382 296 290 300 334 296 b 708 518 570 296 708 366 b 495 731 708 638 623 707 b 493 764 494 742 493 753 b 503 836 493 791 496 817 b 627 764 526 790 561 764 b 741 854 690 764 741 802 b 621 947 741 914 686 947 b 464 764 510 947 464 867 b 465 735 464 754 465 745 b 382 741 439 739 411 741 b 56 518 195 741 56 671 b 224 316 56 413 122 347 b 45 109 92 253 45 199 b 211 -36 45 -14 155 -36 l 256 -36 b 28 -146 200 -104 28 -45 b 354 -261 28 -200 98 -261 b 765 32 635 -261 765 -109 b 561 195 765 155 671 195 z m 382 715 b 453 518 427 715 453 667 b 382 321 453 370 427 321 b 311 518 338 321 311 370 b 382 715 311 667 338 715 z m 392 -237 b 267 -126 309 -237 267 -196 b 284 -36 267 -110 270 -66 l 509 -36 b 572 -81 557 -36 572 -53 b 392 -237 572 -174 500 -237 z "},"ğ":{"ha":778,"x_min":0,"x_max":0,"o":"m 408 851 b 685 1082 578 851 654 975 l 661 1095 b 408 1017 618 1060 542 1017 b 156 1095 275 1017 199 1060 l 132 1082 b 408 851 163 975 239 851 z m 608 811 b 710 732 621 774 652 732 b 810 822 765 732 810 770 b 704 916 810 885 761 916 b 561 746 621 916 561 840 b 564 711 561 734 562 723 b 382 741 513 731 451 741 b 56 518 195 741 56 671 b 224 316 56 413 122 347 b 45 109 92 253 45 199 b 211 -36 45 -14 155 -36 l 256 -36 b 28 -146 200 -104 28 -45 b 354 -261 28 -200 98 -261 b 765 32 635 -261 765 -109 b 561 195 765 155 671 195 l 245 195 b 196 240 215 195 196 208 b 250 309 196 270 216 286 b 382 296 290 300 334 296 b 708 518 570 296 708 366 b 597 697 708 602 666 661 b 590 746 593 713 590 730 b 608 811 590 775 596 793 z m 382 321 b 311 518 338 321 311 370 b 382 715 311 667 338 715 b 453 518 427 715 453 667 b 382 321 453 370 427 321 z m 572 -81 b 392 -237 572 -174 500 -237 b 267 -126 309 -237 267 -196 b 284 -36 267 -110 270 -66 l 509 -36 b 572 -81 557 -36 572 -53 z "},"ĝ":{"ha":778,"x_min":0,"x_max":0,"o":"m 382 925 b 582 857 429 901 503 876 l 596 876 b 422 1156 519 954 464 1055 l 397 1156 b 138 861 338 1044 241 929 l 149 842 b 382 925 237 861 329 895 z m 608 783 b 710 718 621 753 652 718 b 810 794 765 718 810 750 b 704 873 810 847 761 873 b 561 713 612 873 564 804 b 382 741 511 732 450 741 b 56 518 195 741 56 671 b 224 316 56 413 122 347 b 45 109 92 253 45 199 b 211 -36 45 -14 155 -36 l 256 -36 b 28 -146 200 -104 28 -45 b 354 -261 28 -200 98 -261 b 765 32 635 -261 765 -109 b 561 195 765 155 671 195 l 245 195 b 196 240 215 195 196 208 b 250 309 196 270 216 286 b 382 296 290 300 334 296 b 708 518 570 296 708 366 b 590 701 708 605 663 665 l 590 704 b 608 783 590 741 596 761 z m 382 321 b 311 518 338 321 311 370 b 382 715 311 667 338 715 b 453 518 427 715 453 667 b 382 321 453 370 427 321 z m 572 -81 b 392 -237 572 -174 500 -237 b 267 -126 309 -237 267 -196 b 284 -36 267 -110 270 -66 l 509 -36 b 572 -81 557 -36 572 -53 z "},"ģ":{"ha":778,"x_min":0,"x_max":0,"o":"m 395 861 b 518 963 475 861 518 897 b 401 1059 518 1027 475 1059 b 328 1038 363 1059 342 1050 b 456 1107 339 1078 376 1097 l 453 1138 b 266 975 330 1135 266 1068 b 395 861 266 901 321 861 z m 555 819 b 679 747 579 774 614 747 b 793 838 743 747 793 785 b 673 930 793 897 739 930 b 517 747 562 930 517 850 b 517 726 517 740 517 733 b 382 741 477 736 431 741 b 56 518 195 741 56 671 b 224 316 56 413 122 347 b 45 109 92 253 45 199 b 211 -36 45 -14 155 -36 l 256 -36 b 28 -146 200 -104 28 -45 b 354 -261 28 -200 98 -261 b 765 32 635 -261 765 -109 b 561 195 765 155 671 195 l 245 195 b 196 240 215 195 196 208 b 250 309 196 270 216 286 b 382 296 290 300 334 296 b 708 518 570 296 708 366 b 547 718 708 621 646 686 b 546 747 547 728 546 738 b 555 819 546 775 549 800 z m 382 321 b 311 518 338 321 311 370 b 382 715 311 667 338 715 b 453 518 427 715 453 667 b 382 321 453 370 427 321 z m 572 -81 b 392 -237 572 -174 500 -237 b 267 -126 309 -237 267 -196 b 284 -36 267 -110 270 -66 l 509 -36 b 572 -81 557 -36 572 -53 z "},"ġ":{"ha":778,"x_min":0,"x_max":0,"o":"m 396 847 b 547 966 492 847 547 888 b 396 1086 547 1046 492 1086 b 245 966 298 1086 245 1046 b 396 847 245 888 298 847 z m 558 829 b 682 736 571 761 624 736 b 796 840 746 736 796 779 b 676 947 796 908 742 947 b 519 764 572 947 519 863 b 522 725 519 750 521 737 b 382 741 480 735 433 741 b 56 518 195 741 56 671 b 224 316 56 413 122 347 b 45 109 92 253 45 199 b 211 -36 45 -14 155 -36 l 256 -36 b 28 -146 200 -104 28 -45 b 354 -261 28 -200 98 -261 b 765 32 635 -261 765 -109 b 561 195 765 155 671 195 l 245 195 b 196 240 215 195 196 208 b 250 309 196 270 216 286 b 382 296 290 300 334 296 b 708 518 570 296 708 366 b 554 715 708 618 648 683 b 549 764 551 732 549 749 b 558 829 549 791 551 810 z m 382 321 b 311 518 338 321 311 370 b 382 715 311 667 338 715 b 453 518 427 715 453 667 b 382 321 453 370 427 321 z m 572 -81 b 392 -237 572 -174 500 -237 b 267 -126 309 -237 267 -196 b 284 -36 267 -110 270 -66 l 509 -36 b 572 -81 557 -36 572 -53 z "},"h":{"ha":864,"x_min":0,"x_max":0,"o":"m 353 1086 b 111 1067 283 1072 204 1067 b 25 1071 83 1067 54 1068 l 25 1042 b 103 920 83 1042 103 1003 l 103 129 b 25 29 103 52 82 29 l 25 0 b 233 5 65 1 155 5 b 416 0 306 5 382 1 l 416 29 b 353 129 370 29 353 52 l 353 568 b 453 668 353 627 401 668 b 521 581 501 668 521 639 l 521 129 b 457 29 521 52 504 29 l 457 0 b 654 5 494 1 576 5 b 848 0 726 5 811 1 l 848 29 b 771 129 791 29 771 52 l 771 505 b 730 685 771 600 758 652 b 574 741 704 717 659 741 b 353 636 473 741 397 710 z "},"ħ":{"ha":864,"x_min":0,"x_max":0,"o":"m 771 505 b 730 685 771 600 758 652 b 574 741 704 717 659 741 b 353 636 473 741 397 710 l 353 844 l 549 844 l 549 872 l 353 872 l 353 1086 b 111 1067 283 1072 204 1067 b 25 1071 83 1067 54 1068 l 25 1042 b 103 920 83 1042 103 1003 l 103 872 l 11 872 l 11 844 l 103 844 l 103 129 b 25 29 103 52 82 29 l 25 0 b 233 5 65 1 155 5 b 416 0 306 5 382 1 l 416 29 b 353 129 370 29 353 52 l 353 568 b 453 668 353 627 401 668 b 521 581 501 668 521 639 l 521 129 b 457 29 521 52 504 29 l 457 0 b 654 5 494 1 576 5 b 848 0 726 5 811 1 l 848 29 b 771 129 791 29 771 52 z "},"ĥ":{"ha":864,"x_min":0,"x_max":0,"o":"m 403 1417 b 101 1178 334 1328 222 1235 l 109 1157 b 387 1242 214 1177 326 1211 b 722 1157 460 1211 594 1177 l 729 1178 b 428 1417 607 1236 493 1329 z m 353 1086 b 111 1067 283 1072 204 1067 b 25 1071 83 1067 54 1068 l 25 1042 b 103 920 83 1042 103 1003 l 103 129 b 25 29 103 52 82 29 l 25 0 b 233 5 65 1 155 5 b 416 0 306 5 382 1 l 416 29 b 353 129 370 29 353 52 l 353 568 b 453 668 353 627 401 668 b 521 581 501 668 521 639 l 521 129 b 457 29 521 52 504 29 l 457 0 b 654 5 494 1 576 5 b 848 0 726 5 811 1 l 848 29 b 771 129 791 29 771 52 l 771 505 b 730 685 771 600 758 652 b 574 741 704 717 659 741 b 353 636 473 741 397 710 z "},"i":{"ha":458,"x_min":0,"x_max":0,"o":"m 224 1086 b 73 966 126 1086 73 1046 b 224 847 73 888 126 847 b 375 966 319 847 375 888 b 224 1086 375 1046 319 1086 z m 357 736 b 115 717 288 722 208 717 b 29 721 87 717 58 718 l 29 692 b 107 570 87 692 107 653 l 107 129 b 29 29 107 52 86 29 l 29 0 b 237 5 69 1 160 5 b 435 0 315 5 397 1 l 435 29 b 357 129 378 29 357 52 z "},"ı":{"ha":458,"x_min":0,"x_max":0,"o":"m 357 736 b 115 717 288 722 208 717 b 29 721 87 717 58 718 l 29 692 b 107 570 87 692 107 653 l 107 129 b 29 29 107 52 86 29 l 29 0 b 237 5 69 1 160 5 b 435 0 315 5 397 1 l 435 29 b 357 129 378 29 357 52 z "},"í":{"ha":458,"x_min":0,"x_max":0,"o":"m 388 1139 b 327 1161 370 1154 348 1161 b 252 1128 298 1161 269 1148 b 134 844 201 1072 213 1002 l 149 832 b 393 1013 279 942 347 957 b 416 1076 409 1031 416 1054 b 388 1139 416 1100 408 1123 z m 357 736 b 115 717 288 722 208 717 b 29 721 87 717 58 718 l 29 692 b 107 570 87 692 107 653 l 107 129 b 29 29 107 52 86 29 l 29 0 b 237 5 69 1 160 5 b 435 0 315 5 397 1 l 435 29 b 357 129 378 29 357 52 z "},"ĭ":{"ha":458,"x_min":0,"x_max":0,"o":"m 485 1095 b 232 1017 442 1060 366 1017 b -20 1095 99 1017 22 1060 l -44 1082 b 232 851 -14 975 62 851 b 509 1082 401 851 478 975 z m 357 736 b 115 717 288 722 208 717 b 29 721 87 717 58 718 l 29 692 b 107 570 87 692 107 653 l 107 129 b 29 29 107 52 86 29 l 29 0 b 237 5 69 1 160 5 b 435 0 315 5 397 1 l 435 29 b 357 129 378 29 357 52 z "},"î":{"ha":458,"x_min":0,"x_max":0,"o":"m 220 1156 b -39 861 161 1044 65 929 l -28 842 b 205 925 61 861 153 895 b 494 842 269 895 383 861 l 505 861 b 245 1156 399 930 302 1046 z m 357 736 b 115 717 288 722 208 717 b 29 721 87 717 58 718 l 29 692 b 107 570 87 692 107 653 l 107 129 b 29 29 107 52 86 29 l 29 0 b 237 5 69 1 160 5 b 435 0 315 5 397 1 l 435 29 b 357 129 378 29 357 52 z "},"ï":{"ha":458,"x_min":0,"x_max":0,"o":"m 70 1072 b -52 951 3 1072 -52 1015 b 70 831 -52 885 3 831 b 191 951 134 831 191 885 b 70 1072 191 1015 134 1072 z m 400 1072 b 279 951 334 1072 279 1015 b 400 831 279 885 334 831 b 521 951 464 831 521 885 b 400 1072 521 1015 464 1072 z m 357 736 b 115 717 288 722 208 717 b 29 721 87 717 58 718 l 29 692 b 107 570 87 692 107 653 l 107 129 b 29 29 107 52 86 29 l 29 0 b 237 5 69 1 160 5 b 435 0 315 5 397 1 l 435 29 b 357 129 378 29 357 52 z "},"ì":{"ha":458,"x_min":0,"x_max":0,"o":"m 57 1139 b 28 1076 37 1122 28 1099 b 52 1013 28 1054 36 1031 b 296 832 97 957 165 942 l 311 844 b 193 1128 232 1002 243 1072 b 117 1162 176 1147 146 1162 b 57 1139 96 1162 75 1155 z m 357 736 b 115 717 288 722 208 717 b 29 721 87 717 58 718 l 29 692 b 107 570 87 692 107 653 l 107 129 b 29 29 107 52 86 29 l 29 0 b 237 5 69 1 160 5 b 435 0 315 5 397 1 l 435 29 b 357 129 378 29 357 52 z "},"ĳ":{"ha":847,"x_min":0,"x_max":0,"o":"m 210 1086 b 58 966 112 1086 58 1046 b 210 847 58 888 112 847 b 361 966 305 847 361 888 b 210 1086 361 1046 305 1086 z m 629 1086 b 478 966 532 1086 478 1046 b 629 847 478 888 532 847 b 781 966 725 847 781 888 b 629 1086 781 1046 725 1086 z m 761 736 b 519 717 692 722 612 717 b 433 721 492 717 463 718 l 433 692 b 511 570 492 692 511 653 l 511 153 b 411 53 511 94 463 53 b 343 140 363 53 343 82 l 343 736 b 102 717 273 722 195 717 b 16 721 74 717 45 718 l 16 692 b 93 570 74 692 93 653 l 93 215 b 134 36 93 121 106 69 b 290 -20 160 4 205 -20 b 511 85 390 -20 467 11 l 511 -62 b 392 -235 511 -180 482 -235 b 358 -233 385 -235 375 -235 b 453 -142 412 -221 453 -189 b 309 -52 453 -82 389 -52 b 164 -147 212 -52 164 -97 b 379 -261 164 -232 261 -261 b 761 115 667 -261 761 -142 z "},"ī":{"ha":458,"x_min":0,"x_max":0,"o":"m 449 954 l 449 989 l -12 989 l -12 954 z m 357 736 b 115 717 288 722 208 717 b 29 721 87 717 58 718 l 29 692 b 107 570 87 692 107 653 l 107 129 b 29 29 107 52 86 29 l 29 0 b 237 5 69 1 160 5 b 435 0 315 5 397 1 l 435 29 b 357 129 378 29 357 52 z "},"į":{"ha":458,"x_min":0,"x_max":0,"o":"m 225 847 b 376 966 321 847 376 888 b 225 1086 376 1046 321 1086 b 74 966 127 1086 74 1046 b 225 847 74 888 127 847 z m 446 -146 b 355 -178 425 -164 385 -178 b 299 -125 318 -178 299 -163 b 393 -5 299 -89 321 -41 b 406 1 398 -3 403 -1 l 435 0 l 435 29 b 357 129 378 29 357 52 l 357 736 b 115 717 288 722 208 717 b 29 721 87 717 58 718 l 29 692 b 107 570 87 692 107 653 l 107 129 b 29 29 107 52 86 29 l 29 0 b 237 5 69 1 160 5 b 356 3 278 5 320 4 b 114 -163 203 -26 114 -83 b 252 -261 114 -225 161 -261 b 464 -167 349 -261 410 -233 z "},"ĩ":{"ha":458,"x_min":0,"x_max":0,"o":"m 115 1108 b -64 882 39 1108 -33 1043 l -45 872 b 62 947 -13 925 23 947 b 315 854 159 947 193 854 b 492 1080 390 854 460 920 l 473 1090 b 366 1017 441 1038 405 1017 b 115 1108 269 1017 236 1108 z m 357 736 b 115 717 288 722 208 717 b 29 721 87 717 58 718 l 29 692 b 107 570 87 692 107 653 l 107 129 b 29 29 107 52 86 29 l 29 0 b 237 5 69 1 160 5 b 435 0 315 5 397 1 l 435 29 b 357 129 378 29 357 52 z "},"j":{"ha":440,"x_min":0,"x_max":0,"o":"m 224 1086 b 72 966 126 1086 72 1046 b 224 847 72 888 126 847 b 375 966 319 847 375 888 b 224 1086 375 1046 319 1086 z m 353 736 b 111 717 283 722 204 717 b 25 721 83 717 54 718 l 25 692 b 103 570 83 692 103 653 l 103 111 b 78 -189 103 -74 103 -147 b -16 -233 60 -218 22 -233 b -53 -231 -26 -233 -40 -232 b 28 -126 4 -210 28 -167 b -97 -24 28 -58 -21 -24 b -233 -131 -179 -24 -233 -65 b -163 -233 -233 -175 -207 -214 b -8 -261 -110 -257 -57 -261 b 254 -192 127 -261 208 -232 b 353 111 326 -129 353 -53 z "},"ȷ":{"ha":440,"x_min":0,"x_max":0,"o":"m 353 736 b 111 717 283 722 204 717 b 25 721 83 717 54 718 l 25 692 b 103 570 83 692 103 653 l 103 111 b 78 -189 103 -74 103 -147 b -16 -233 60 -218 22 -233 b -53 -231 -26 -233 -40 -232 b 28 -126 4 -210 28 -167 b -97 -24 28 -58 -21 -24 b -233 -131 -179 -24 -233 -65 b -163 -233 -233 -175 -207 -214 b -8 -261 -110 -257 -57 -261 b 254 -192 127 -261 208 -232 b 353 111 326 -129 353 -53 z "},"ĵ":{"ha":440,"x_min":0,"x_max":0,"o":"m 199 1156 b -60 861 140 1044 44 929 l -49 842 b 184 925 40 861 132 895 b 473 842 248 895 362 861 l 484 861 b 224 1156 378 930 281 1046 z m 353 736 b 111 717 283 722 204 717 b 25 721 83 717 54 718 l 25 692 b 103 570 83 692 103 653 l 103 111 b 78 -189 103 -74 103 -147 b -16 -233 60 -218 22 -233 b -53 -231 -26 -233 -40 -232 b 28 -126 4 -210 28 -167 b -97 -24 28 -58 -21 -24 b -233 -131 -179 -24 -233 -65 b -163 -233 -233 -175 -207 -214 b -8 -261 -110 -257 -57 -261 b 254 -192 127 -261 208 -232 b 353 111 326 -129 353 -53 z "},"k":{"ha":846,"x_min":0,"x_max":0,"o":"m 572 522 l 608 557 b 814 693 677 627 747 675 l 814 721 b 624 717 778 718 681 717 b 457 721 579 717 510 718 l 457 693 b 568 603 521 688 568 652 b 519 513 568 576 553 545 l 412 412 b 353 392 396 396 375 393 l 353 1086 b 111 1067 283 1072 204 1067 b 25 1071 83 1067 54 1068 l 25 1042 b 103 920 83 1042 103 1003 l 103 129 b 25 29 103 52 82 29 l 25 0 b 233 5 65 1 155 5 b 431 0 311 5 393 1 l 431 29 b 353 129 374 29 353 52 l 353 366 b 397 335 372 364 386 357 l 519 77 b 525 55 523 68 525 62 b 485 29 525 39 512 29 l 485 0 b 681 5 522 1 606 5 b 848 0 745 5 817 1 l 848 29 b 793 102 822 43 808 74 z "},"ķ":{"ha":846,"x_min":0,"x_max":0,"o":"m 572 522 l 608 557 b 814 693 677 627 747 675 l 814 721 b 624 717 778 718 681 717 b 457 721 579 717 510 718 l 457 693 b 568 603 521 688 568 652 b 519 513 568 576 553 545 l 412 412 b 353 392 396 396 375 393 l 353 1086 b 111 1067 283 1072 204 1067 b 25 1071 83 1067 54 1068 l 25 1042 b 103 920 83 1042 103 1003 l 103 129 b 25 29 103 52 82 29 l 25 0 b 233 5 65 1 155 5 b 431 0 311 5 393 1 l 431 29 b 353 129 374 29 353 52 l 353 366 b 397 335 372 364 386 357 l 519 77 b 525 55 523 68 525 62 b 485 29 525 39 512 29 l 485 0 b 681 5 522 1 606 5 b 848 0 745 5 817 1 l 848 29 b 793 102 822 43 808 74 z m 482 -62 b 359 -164 401 -62 359 -98 b 475 -260 359 -228 401 -260 b 549 -239 514 -260 535 -252 b 421 -309 538 -279 500 -298 l 424 -339 b 611 -176 547 -336 611 -269 b 482 -62 611 -102 556 -62 z "},"ĸ":{"ha":846,"x_min":0,"x_max":0,"o":"m 571 497 l 675 625 b 818 693 708 667 743 685 l 818 721 b 669 717 782 718 726 717 b 526 721 629 717 575 718 l 526 693 b 615 633 585 690 615 666 b 593 581 615 617 608 599 l 488 457 b 357 385 452 412 418 388 l 357 736 b 115 717 288 722 208 717 b 29 721 87 717 58 718 l 29 692 b 107 570 87 692 107 653 l 107 129 b 29 29 107 52 86 29 l 29 0 b 237 5 69 1 160 5 b 435 0 315 5 397 1 l 435 29 b 357 129 378 29 357 52 l 357 358 b 401 328 376 357 390 350 l 538 77 b 543 56 541 68 543 62 b 503 29 543 39 530 29 l 503 0 b 685 5 538 1 615 5 b 852 0 749 5 821 1 l 852 29 b 783 102 822 35 804 58 z "},"l":{"ha":456,"x_min":0,"x_max":0,"o":"m 353 1086 b 111 1067 283 1072 204 1067 b 25 1071 83 1067 54 1068 l 25 1042 b 103 920 83 1042 103 1003 l 103 129 b 25 29 103 52 82 29 l 25 0 b 233 5 65 1 155 5 b 431 0 311 5 393 1 l 431 29 b 353 129 374 29 353 52 z "},"ĺ":{"ha":456,"x_min":0,"x_max":0,"o":"m 332 1393 b 113 1178 264 1361 248 1292 l 122 1161 b 418 1232 285 1211 354 1198 b 471 1314 451 1248 471 1280 b 463 1350 471 1326 468 1338 b 375 1402 445 1386 409 1402 b 332 1393 359 1402 345 1399 z m 353 1086 b 111 1067 283 1072 204 1067 b 25 1071 83 1067 54 1068 l 25 1042 b 103 920 83 1042 103 1003 l 103 129 b 25 29 103 52 82 29 l 25 0 b 233 5 65 1 155 5 b 431 0 311 5 393 1 l 431 29 b 353 129 374 29 353 52 z "},"ľ":{"ha":456,"x_min":0,"x_max":0,"o":"m 587 1089 b 450 1073 547 1080 511 1073 b 412 1074 438 1073 425 1073 l 412 1044 b 439 989 435 1044 439 1025 b 412 787 439 964 433 913 l 431 782 b 593 1032 530 901 593 978 b 587 1089 593 1048 591 1079 z m 353 1086 b 111 1067 283 1072 204 1067 b 25 1071 83 1067 54 1068 l 25 1042 b 103 920 83 1042 103 1003 l 103 129 b 25 29 103 52 82 29 l 25 0 b 233 5 65 1 155 5 b 431 0 311 5 393 1 l 431 29 b 353 129 374 29 353 52 z "},"ļ":{"ha":456,"x_min":0,"x_max":0,"o":"m 353 1086 b 111 1067 283 1072 204 1067 b 25 1071 83 1067 54 1068 l 25 1042 b 103 920 83 1042 103 1003 l 103 129 b 25 29 103 52 82 29 l 25 0 b 233 5 65 1 155 5 b 431 0 311 5 393 1 l 431 29 b 353 129 374 29 353 52 z m 222 -62 b 99 -164 142 -62 99 -98 b 216 -260 99 -228 142 -260 b 289 -239 254 -260 275 -252 b 161 -309 278 -279 241 -298 l 164 -339 b 351 -176 288 -336 351 -269 b 222 -62 351 -102 296 -62 z "},"ŀ":{"ha":765,"x_min":0,"x_max":0,"o":"m 353 1086 b 111 1067 283 1072 204 1067 b 25 1071 83 1067 54 1068 l 25 1042 b 103 920 83 1042 103 1003 l 103 129 b 25 29 103 52 82 29 l 25 0 b 233 5 65 1 155 5 b 431 0 311 5 393 1 l 431 29 b 353 129 374 29 353 52 z m 614 560 b 476 440 525 560 476 519 b 614 321 476 361 525 321 b 751 440 701 321 751 361 b 614 560 751 519 701 560 z "},"ł":{"ha":456,"x_min":0,"x_max":0,"o":"m 353 586 l 472 692 l 472 733 l 353 628 l 353 1086 b 111 1067 283 1072 204 1067 b 25 1071 83 1067 54 1068 l 25 1042 b 103 920 83 1042 103 1003 l 103 481 l -17 378 l -17 336 l 103 440 l 103 129 b 25 29 103 52 82 29 l 25 0 b 233 5 65 1 155 5 b 431 0 311 5 393 1 l 431 29 b 353 129 374 29 353 52 z "},"m":{"ha":1272,"x_min":0,"x_max":0,"o":"m 1179 505 b 1139 685 1179 600 1166 652 b 982 741 1112 717 1067 741 b 751 620 883 741 802 713 b 721 685 745 648 734 669 b 564 741 694 717 648 741 b 357 636 471 741 399 710 l 357 736 b 115 717 288 722 208 717 b 29 721 87 717 58 718 l 29 692 b 107 570 87 692 107 653 l 107 129 b 29 29 107 52 86 29 l 29 0 b 237 5 69 1 160 5 b 407 0 304 5 375 1 l 407 29 b 357 129 370 29 357 52 l 357 568 b 457 668 357 627 406 668 b 511 581 496 668 511 639 l 511 129 b 461 29 511 52 497 29 l 461 0 b 644 5 496 1 572 5 b 825 0 711 5 790 1 l 825 29 b 761 129 777 29 761 52 l 761 505 b 759 566 761 528 760 548 b 861 668 766 620 813 668 b 929 581 909 668 929 639 l 929 129 b 879 29 929 52 917 29 l 879 0 b 1063 5 914 1 990 5 b 1257 0 1135 5 1219 1 l 1257 29 b 1179 129 1200 29 1179 52 z "},"n":{"ha":868,"x_min":0,"x_max":0,"o":"m 578 741 b 357 636 478 741 401 710 l 357 736 b 115 717 288 722 208 717 b 29 721 87 717 58 718 l 29 692 b 107 570 87 692 107 653 l 107 129 b 29 29 107 52 86 29 l 29 0 b 237 5 69 1 160 5 b 421 0 310 5 386 1 l 421 29 b 357 129 374 29 357 52 l 357 568 b 457 668 357 627 406 668 b 525 581 505 668 525 639 l 525 129 b 461 29 525 52 509 29 l 461 0 b 659 5 498 1 581 5 b 852 0 730 5 815 1 l 852 29 b 775 129 796 29 775 52 l 775 505 b 734 685 775 600 762 652 b 578 741 708 717 663 741 z "},"ń":{"ha":868,"x_min":0,"x_max":0,"o":"m 596 1139 b 535 1161 578 1154 556 1161 b 460 1128 506 1161 477 1148 b 342 844 410 1072 421 1002 l 357 832 b 602 1013 488 942 555 957 b 625 1076 617 1031 625 1054 b 596 1139 625 1100 616 1123 z m 578 741 b 357 636 478 741 401 710 l 357 736 b 115 717 288 722 208 717 b 29 721 87 717 58 718 l 29 692 b 107 570 87 692 107 653 l 107 129 b 29 29 107 52 86 29 l 29 0 b 237 5 69 1 160 5 b 421 0 310 5 386 1 l 421 29 b 357 129 374 29 357 52 l 357 568 b 457 668 357 627 406 668 b 525 581 505 668 525 639 l 525 129 b 461 29 525 52 509 29 l 461 0 b 659 5 498 1 581 5 b 852 0 730 5 815 1 l 852 29 b 775 129 796 29 775 52 l 775 505 b 734 685 775 600 762 652 b 578 741 708 717 663 741 z "},"ŉ":{"ha":868,"x_min":0,"x_max":0,"o":"m 775 505 b 734 685 775 600 762 652 b 578 741 708 717 663 741 b 357 636 478 741 401 710 l 357 736 b 115 717 288 722 208 717 b 62 718 98 717 80 718 b 142 903 117 767 142 833 b 108 1035 142 960 127 1008 b -2 1086 86 1068 47 1086 b -132 966 -79 1086 -132 1039 b -10 847 -132 890 -83 847 b 92 890 33 847 68 863 b 95 860 94 880 95 870 b 87 814 95 845 92 829 b -17 700 73 768 32 722 l -5 675 b 29 693 7 680 18 686 l 29 692 b 107 570 87 692 107 653 l 107 129 b 29 29 107 52 86 29 l 29 0 b 237 5 69 1 160 5 b 421 0 310 5 386 1 l 421 29 b 357 129 374 29 357 52 l 357 568 b 457 668 357 627 406 668 b 525 581 505 668 525 639 l 525 129 b 461 29 525 52 509 29 l 461 0 b 659 5 498 1 581 5 b 852 0 730 5 815 1 l 852 29 b 775 129 796 29 775 52 z "},"ň":{"ha":868,"x_min":0,"x_max":0,"o":"m 689 1156 b 456 1072 600 1136 508 1103 b 167 1156 391 1103 277 1136 l 155 1136 b 415 842 261 1067 358 951 l 440 842 b 700 1136 500 953 595 1068 z m 578 741 b 357 636 478 741 401 710 l 357 736 b 115 717 288 722 208 717 b 29 721 87 717 58 718 l 29 692 b 107 570 87 692 107 653 l 107 129 b 29 29 107 52 86 29 l 29 0 b 237 5 69 1 160 5 b 421 0 310 5 386 1 l 421 29 b 357 129 374 29 357 52 l 357 568 b 457 668 357 627 406 668 b 525 581 505 668 525 639 l 525 129 b 461 29 525 52 509 29 l 461 0 b 659 5 498 1 581 5 b 852 0 730 5 815 1 l 852 29 b 775 129 796 29 775 52 l 775 505 b 734 685 775 600 762 652 b 578 741 708 717 663 741 z "},"ņ":{"ha":868,"x_min":0,"x_max":0,"o":"m 578 741 b 357 636 478 741 401 710 l 357 736 b 115 717 288 722 208 717 b 29 721 87 717 58 718 l 29 692 b 107 570 87 692 107 653 l 107 129 b 29 29 107 52 86 29 l 29 0 b 237 5 69 1 160 5 b 421 0 310 5 386 1 l 421 29 b 357 129 374 29 357 52 l 357 568 b 457 668 357 627 406 668 b 525 581 505 668 525 639 l 525 129 b 461 29 525 52 509 29 l 461 0 b 659 5 498 1 581 5 b 852 0 730 5 815 1 l 852 29 b 775 129 796 29 775 52 l 775 505 b 734 685 775 600 762 652 b 578 741 708 717 663 741 z m 453 -62 b 330 -164 372 -62 330 -98 b 446 -260 330 -228 372 -260 b 519 -239 485 -260 506 -252 b 392 -309 509 -279 471 -298 l 395 -339 b 582 -176 518 -336 582 -269 b 453 -62 582 -102 527 -62 z "},"ŋ":{"ha":854,"x_min":0,"x_max":0,"o":"m 578 741 b 357 636 478 741 401 710 l 357 736 b 115 717 288 722 208 717 b 29 721 87 717 58 718 l 29 692 b 107 570 87 692 107 653 l 107 129 b 29 29 107 52 86 29 l 29 0 b 237 5 69 1 160 5 b 421 0 310 5 386 1 l 421 29 b 357 129 374 29 357 52 l 357 568 b 457 668 357 627 406 668 b 525 581 505 668 525 639 l 525 111 b 525 45 525 91 525 68 b 509 -164 525 -36 524 -128 b 415 -232 492 -204 463 -232 b 374 -229 406 -232 390 -232 b 467 -142 428 -216 467 -189 b 322 -52 467 -82 403 -52 b 178 -153 227 -52 178 -104 b 410 -261 178 -250 346 -261 b 676 -192 570 -261 635 -231 b 775 111 746 -126 775 -53 l 775 505 b 734 685 775 600 762 652 b 578 741 708 717 663 741 z "},"ñ":{"ha":868,"x_min":0,"x_max":0,"o":"m 323 1108 b 144 882 247 1108 176 1043 l 163 872 b 271 947 195 925 231 947 b 523 854 368 947 401 854 b 701 1080 598 854 669 920 l 682 1090 b 574 1017 650 1038 613 1017 b 323 1108 477 1017 444 1108 z m 578 741 b 357 636 478 741 401 710 l 357 736 b 115 717 288 722 208 717 b 29 721 87 717 58 718 l 29 692 b 107 570 87 692 107 653 l 107 129 b 29 29 107 52 86 29 l 29 0 b 237 5 69 1 160 5 b 421 0 310 5 386 1 l 421 29 b 357 129 374 29 357 52 l 357 568 b 457 668 357 627 406 668 b 525 581 505 668 525 639 l 525 129 b 461 29 525 52 509 29 l 461 0 b 659 5 498 1 581 5 b 852 0 730 5 815 1 l 852 29 b 775 129 796 29 775 52 l 775 505 b 734 685 775 600 762 652 b 578 741 708 717 663 741 z "},"o":{"ha":800,"x_min":0,"x_max":0,"o":"m 400 741 b 43 359 184 741 43 640 b 400 -20 43 79 184 -20 b 757 359 615 -20 757 79 b 400 741 757 640 615 741 z m 400 713 b 497 359 456 713 497 608 b 400 8 497 111 456 8 b 302 359 345 8 302 111 b 400 713 302 608 345 713 z "},"ó":{"ha":800,"x_min":0,"x_max":0,"o":"m 555 1139 b 494 1161 536 1154 515 1161 b 418 1128 465 1161 435 1148 b 300 844 368 1072 380 1002 l 315 832 b 560 1013 446 942 514 957 b 583 1076 576 1031 583 1054 b 555 1139 583 1100 574 1123 z m 400 741 b 43 359 184 741 43 640 b 400 -20 43 79 184 -20 b 757 359 615 -20 757 79 b 400 741 757 640 615 741 z m 400 713 b 497 359 456 713 497 608 b 400 8 497 111 456 8 b 302 359 345 8 302 111 b 400 713 302 608 345 713 z "},"ŏ":{"ha":800,"x_min":0,"x_max":0,"o":"m 652 1095 b 399 1017 609 1060 532 1017 b 146 1095 266 1017 189 1060 l 123 1082 b 399 851 153 975 229 851 b 675 1082 568 851 645 975 z m 400 741 b 43 359 184 741 43 640 b 400 -20 43 79 184 -20 b 757 359 615 -20 757 79 b 400 741 757 640 615 741 z m 400 713 b 497 359 456 713 497 608 b 400 8 497 111 456 8 b 302 359 345 8 302 111 b 400 713 302 608 345 713 z "},"ô":{"ha":800,"x_min":0,"x_max":0,"o":"m 387 1156 b 127 861 328 1044 232 929 l 139 842 b 372 925 228 861 319 895 b 661 842 436 895 550 861 l 672 861 b 412 1156 566 930 469 1046 z m 400 741 b 43 359 184 741 43 640 b 400 -20 43 79 184 -20 b 757 359 615 -20 757 79 b 400 741 757 640 615 741 z m 400 713 b 497 359 456 713 497 608 b 400 8 497 111 456 8 b 302 359 345 8 302 111 b 400 713 302 608 345 713 z "},"ö":{"ha":800,"x_min":0,"x_max":0,"o":"m 237 1072 b 115 951 170 1072 115 1015 b 237 831 115 885 170 831 b 357 951 300 831 357 885 b 237 1072 357 1015 300 1072 z m 567 1072 b 446 951 500 1072 446 1015 b 567 831 446 885 500 831 b 688 951 631 831 688 885 b 567 1072 688 1015 631 1072 z m 400 741 b 43 359 184 741 43 640 b 400 -20 43 79 184 -20 b 757 359 615 -20 757 79 b 400 741 757 640 615 741 z m 400 713 b 497 359 456 713 497 608 b 400 8 497 111 456 8 b 302 359 345 8 302 111 b 400 713 302 608 345 713 z "},"ò":{"ha":800,"x_min":0,"x_max":0,"o":"m 224 1139 b 195 1076 204 1122 195 1099 b 218 1013 195 1054 203 1031 b 463 832 264 957 332 942 l 478 844 b 360 1128 399 1002 410 1072 b 283 1162 343 1147 313 1162 b 224 1139 262 1162 241 1155 z m 400 741 b 43 359 184 741 43 640 b 400 -20 43 79 184 -20 b 757 359 615 -20 757 79 b 400 741 757 640 615 741 z m 400 713 b 497 359 456 713 497 608 b 400 8 497 111 456 8 b 302 359 345 8 302 111 b 400 713 302 608 345 713 z "},"ő":{"ha":800,"x_min":0,"x_max":0,"o":"m 435 1135 b 381 1151 418 1145 399 1151 b 301 1107 349 1151 318 1135 b 239 839 271 1055 279 981 l 257 831 b 455 1010 358 929 423 961 b 473 1065 467 1027 473 1047 b 435 1135 473 1092 460 1117 z m 680 1135 b 627 1151 663 1145 645 1151 b 547 1107 595 1151 564 1135 b 484 839 517 1055 525 981 l 503 831 b 701 1010 604 929 669 961 b 719 1065 713 1027 719 1046 b 680 1135 719 1092 706 1117 z m 400 741 b 43 359 184 741 43 640 b 400 -20 43 79 184 -20 b 757 359 615 -20 757 79 b 400 741 757 640 615 741 z m 400 713 b 497 359 456 713 497 608 b 400 8 497 111 456 8 b 302 359 345 8 302 111 b 400 713 302 608 345 713 z "},"ō":{"ha":800,"x_min":0,"x_max":0,"o":"m 640 954 l 640 989 l 151 989 l 151 954 z m 400 741 b 43 359 184 741 43 640 b 400 -20 43 79 184 -20 b 757 359 615 -20 757 79 b 400 741 757 640 615 741 z m 400 713 b 497 359 456 713 497 608 b 400 8 497 111 456 8 b 302 359 345 8 302 111 b 400 713 302 608 345 713 z "},"ø":{"ha":800,"x_min":0,"x_max":0,"o":"m 724 804 l 697 822 l 608 694 b 400 741 551 726 481 741 b 43 359 184 741 43 640 b 168 42 43 200 89 99 l 82 -83 l 109 -102 l 196 24 b 400 -20 252 -6 321 -20 b 757 359 615 -20 757 79 b 635 675 757 517 712 618 z m 400 713 b 487 544 439 713 471 661 l 308 224 b 302 359 304 263 302 308 b 400 713 302 608 345 713 z m 400 8 b 314 168 362 8 330 57 l 492 488 b 497 359 496 450 497 408 b 400 8 497 111 456 8 z "},"õ":{"ha":800,"x_min":0,"x_max":0,"o":"m 281 1108 b 102 882 205 1108 134 1043 l 122 872 b 229 947 154 925 190 947 b 481 854 326 947 359 854 b 659 1080 557 854 627 920 l 640 1090 b 533 1017 608 1038 572 1017 b 281 1108 436 1017 403 1108 z m 400 741 b 43 359 184 741 43 640 b 400 -20 43 79 184 -20 b 757 359 615 -20 757 79 b 400 741 757 640 615 741 z m 400 713 b 497 359 456 713 497 608 b 400 8 497 111 456 8 b 302 359 345 8 302 111 b 400 713 302 608 345 713 z "},"œ":{"ha":1111,"x_min":0,"x_max":0,"o":"m 903 132 b 743 379 828 132 743 183 b 744 429 743 396 743 413 l 1075 429 b 812 741 1075 653 975 741 b 604 644 730 741 656 710 b 386 741 553 712 478 741 b 43 359 179 741 43 640 b 386 -20 43 79 179 -20 b 601 72 476 -20 550 7 b 804 -20 652 7 724 -20 b 1067 216 953 -20 1035 104 l 1043 225 b 903 132 993 140 935 132 z m 386 8 b 302 359 339 8 302 111 b 386 713 302 608 339 713 b 484 357 441 713 484 608 b 386 8 484 111 441 8 z m 803 708 b 872 456 854 708 873 591 l 739 456 b 803 708 745 640 769 708 z "},"p":{"ha":850,"x_min":0,"x_max":0,"o":"m 564 741 b 353 636 469 741 396 707 l 353 734 b 111 715 283 721 204 715 b 25 720 83 715 54 717 l 25 690 b 103 568 83 690 103 652 l 103 -122 b 25 -222 103 -200 82 -222 l 25 -252 b 216 -245 62 -250 142 -245 b 472 -252 319 -245 421 -250 l 472 -222 b 353 -109 397 -222 353 -199 l 353 7 b 482 -20 388 -13 435 -20 b 806 392 656 -20 806 77 b 564 741 806 628 701 741 z m 401 22 b 353 34 385 22 367 25 l 353 568 b 453 668 353 627 401 668 b 546 359 504 668 546 606 b 401 22 546 135 504 22 z "},"þ":{"ha":835,"x_min":0,"x_max":0,"o":"m 549 741 b 338 636 454 741 380 707 l 338 1086 b 96 1067 268 1072 189 1067 b 9 1071 68 1067 39 1068 l 9 1042 b 87 920 68 1042 87 1003 l 87 -122 b 9 -222 87 -200 66 -222 l 9 -252 b 201 -245 47 -250 126 -245 b 457 -252 304 -245 406 -250 l 457 -222 b 338 -109 382 -222 338 -199 l 338 7 b 467 -20 373 -13 419 -20 b 790 392 640 -20 790 77 b 549 741 790 628 686 741 z m 386 22 b 338 34 370 22 352 25 l 338 568 b 437 668 338 627 386 668 b 530 359 489 668 530 606 b 386 22 530 135 489 22 z "},"q":{"ha":833,"x_min":0,"x_max":0,"o":"m 746 653 b 755 729 746 679 747 704 l 736 743 b 600 703 711 720 659 703 b 508 718 570 703 538 707 b 351 741 460 738 410 741 b 43 366 165 741 43 616 b 326 -20 43 93 167 -20 b 496 85 408 -20 458 14 l 496 -109 b 376 -222 496 -199 452 -222 l 376 -252 b 632 -245 428 -250 529 -245 b 823 -252 707 -245 786 -250 l 823 -222 b 746 -122 766 -222 746 -200 z m 396 53 b 302 361 345 53 302 115 b 431 713 302 596 345 713 b 496 697 451 713 475 708 l 496 153 b 396 53 496 94 447 53 z "},"r":{"ha":668,"x_min":0,"x_max":0,"o":"m 536 741 b 357 636 456 741 393 707 l 357 736 b 115 717 288 722 208 717 b 29 721 87 717 58 718 l 29 692 b 107 570 87 692 107 653 l 107 129 b 29 29 107 52 86 29 l 29 0 b 252 5 72 1 168 5 b 476 0 340 5 433 1 l 476 29 b 357 143 392 29 357 54 l 357 559 b 439 684 357 615 393 664 b 484 693 453 690 468 693 b 412 564 441 665 412 627 b 536 464 412 504 454 464 b 664 600 612 464 664 517 b 536 741 664 664 636 741 z "},"ŕ":{"ha":668,"x_min":0,"x_max":0,"o":"m 486 1139 b 425 1161 468 1154 446 1161 b 350 1128 396 1161 367 1148 b 232 844 300 1072 311 1002 l 247 832 b 492 1013 378 942 446 957 b 515 1076 507 1031 515 1054 b 486 1139 515 1100 506 1123 z m 536 741 b 357 636 456 741 393 707 l 357 736 b 115 717 288 722 208 717 b 29 721 87 717 58 718 l 29 692 b 107 570 87 692 107 653 l 107 129 b 29 29 107 52 86 29 l 29 0 b 252 5 72 1 168 5 b 476 0 340 5 433 1 l 476 29 b 357 143 392 29 357 54 l 357 559 b 439 684 357 615 393 664 b 484 693 453 690 468 693 b 412 564 441 665 412 627 b 536 464 412 504 454 464 b 664 600 612 464 664 517 b 536 741 664 664 636 741 z "},"ř":{"ha":668,"x_min":0,"x_max":0,"o":"m 579 1156 b 346 1072 490 1136 398 1103 b 57 1156 281 1103 168 1136 l 45 1136 b 305 842 151 1067 248 951 l 330 842 b 590 1136 390 953 486 1068 z m 536 741 b 357 636 456 741 393 707 l 357 736 b 115 717 288 722 208 717 b 29 721 87 717 58 718 l 29 692 b 107 570 87 692 107 653 l 107 129 b 29 29 107 52 86 29 l 29 0 b 252 5 72 1 168 5 b 476 0 340 5 433 1 l 476 29 b 357 143 392 29 357 54 l 357 559 b 439 684 357 615 393 664 b 484 693 453 690 468 693 b 412 564 441 665 412 627 b 536 464 412 504 454 464 b 664 600 612 464 664 517 b 536 741 664 664 636 741 z "},"ŗ":{"ha":668,"x_min":0,"x_max":0,"o":"m 536 741 b 357 636 456 741 393 707 l 357 736 b 115 717 288 722 208 717 b 29 721 87 717 58 718 l 29 692 b 107 570 87 692 107 653 l 107 129 b 29 29 107 52 86 29 l 29 0 b 252 5 72 1 168 5 b 476 0 340 5 433 1 l 476 29 b 357 143 392 29 357 54 l 357 559 b 439 684 357 615 393 664 b 484 693 453 690 468 693 b 412 564 441 665 412 627 b 536 464 412 504 454 464 b 664 600 612 464 664 517 b 536 741 664 664 636 741 z m 239 -62 b 115 -164 158 -62 115 -98 b 232 -260 115 -228 158 -260 b 305 -239 271 -260 292 -252 b 178 -309 294 -279 257 -298 l 180 -339 b 368 -176 304 -336 368 -269 b 239 -62 368 -102 313 -62 z "},"s":{"ha":656,"x_min":0,"x_max":0,"o":"m 321 741 b 60 541 183 741 60 664 b 222 286 60 431 139 363 b 351 92 296 220 351 174 b 271 16 351 39 314 16 b 87 268 170 16 104 121 l 60 268 b 54 -9 60 127 58 50 l 82 -9 b 121 39 89 17 102 39 b 191 16 142 39 161 31 b 334 -20 220 -3 268 -20 b 614 195 488 -20 614 68 b 464 429 614 301 549 359 b 297 629 385 494 297 546 b 379 707 297 677 334 707 b 550 489 493 707 538 591 l 578 489 b 583 739 578 615 579 685 l 555 739 b 521 694 551 709 538 694 b 496 703 513 694 505 697 b 321 741 468 718 401 741 z "},"ś":{"ha":656,"x_min":0,"x_max":0,"o":"m 482 1139 b 421 1161 464 1154 442 1161 b 346 1128 392 1161 363 1148 b 228 844 296 1072 307 1002 l 243 832 b 488 1013 374 942 441 957 b 511 1076 503 1031 511 1054 b 482 1139 511 1100 502 1123 z m 321 741 b 60 541 183 741 60 664 b 222 286 60 431 139 363 b 351 92 296 220 351 174 b 271 16 351 39 314 16 b 87 268 170 16 104 121 l 60 268 b 54 -9 60 127 58 50 l 82 -9 b 121 39 89 17 102 39 b 191 16 142 39 161 31 b 334 -20 220 -3 268 -20 b 614 195 488 -20 614 68 b 464 429 614 301 549 359 b 297 629 385 494 297 546 b 379 707 297 677 334 707 b 550 489 493 707 538 591 l 578 489 b 583 739 578 615 579 685 l 555 739 b 521 694 551 709 538 694 b 496 703 513 694 505 697 b 321 741 468 718 401 741 z "},"š":{"ha":656,"x_min":0,"x_max":0,"o":"m 575 1156 b 342 1072 486 1136 394 1103 b 53 1156 277 1103 163 1136 l 41 1136 b 301 842 147 1067 244 951 l 326 842 b 586 1136 386 953 481 1068 z m 321 741 b 60 541 183 741 60 664 b 222 286 60 431 139 363 b 351 92 296 220 351 174 b 271 16 351 39 314 16 b 87 268 170 16 104 121 l 60 268 b 54 -9 60 127 58 50 l 82 -9 b 121 39 89 17 102 39 b 191 16 142 39 161 31 b 334 -20 220 -3 268 -20 b 614 195 488 -20 614 68 b 464 429 614 301 549 359 b 297 629 385 494 297 546 b 379 707 297 677 334 707 b 550 489 493 707 538 591 l 578 489 b 583 739 578 615 579 685 l 555 739 b 521 694 551 709 538 694 b 496 703 513 694 505 697 b 321 741 468 718 401 741 z "},"ş":{"ha":656,"x_min":0,"x_max":0,"o":"m 334 -20 b 614 195 488 -20 614 68 b 464 429 614 301 549 359 b 297 629 385 494 297 546 b 379 707 297 677 334 707 b 550 489 493 707 538 591 l 578 489 b 583 739 578 615 579 685 l 555 739 b 521 694 551 709 538 694 b 496 703 513 694 505 697 b 321 741 468 718 401 741 b 60 541 183 741 60 664 b 222 286 60 431 139 363 b 351 92 296 220 351 174 b 271 16 351 39 314 16 b 87 268 170 16 104 121 l 60 268 b 54 -9 60 127 58 50 l 82 -9 b 121 39 89 17 102 39 b 191 16 142 39 161 31 b 266 -13 208 4 233 -6 l 227 -147 b 273 -138 239 -140 258 -138 b 312 -172 296 -138 312 -147 b 226 -225 312 -210 266 -225 b 159 -218 198 -225 172 -221 l 151 -243 b 276 -261 181 -254 226 -261 b 495 -143 402 -261 495 -224 b 393 -62 495 -97 462 -62 b 283 -83 351 -62 316 -69 l 301 -18 b 334 -20 311 -19 322 -20 z "},"ŝ":{"ha":656,"x_min":0,"x_max":0,"o":"m 315 1156 b 55 861 255 1044 159 929 l 66 842 b 300 925 155 861 247 895 b 589 842 363 895 477 861 l 600 861 b 340 1156 494 930 397 1046 z m 321 741 b 60 541 183 741 60 664 b 222 286 60 431 139 363 b 351 92 296 220 351 174 b 271 16 351 39 314 16 b 87 268 170 16 104 121 l 60 268 b 54 -9 60 127 58 50 l 82 -9 b 121 39 89 17 102 39 b 191 16 142 39 161 31 b 334 -20 220 -3 268 -20 b 614 195 488 -20 614 68 b 464 429 614 301 549 359 b 297 629 385 494 297 546 b 379 707 297 677 334 707 b 550 489 493 707 538 591 l 578 489 b 583 739 578 615 579 685 l 555 739 b 521 694 551 709 538 694 b 496 703 513 694 505 697 b 321 741 468 718 401 741 z "},"ș":{"ha":656,"x_min":0,"x_max":0,"o":"m 321 741 b 60 541 183 741 60 664 b 222 286 60 431 139 363 b 351 92 296 220 351 174 b 271 16 351 39 314 16 b 87 268 170 16 104 121 l 60 268 b 54 -9 60 127 58 50 l 82 -9 b 121 39 89 17 102 39 b 191 16 142 39 161 31 b 334 -20 220 -3 268 -20 b 614 195 488 -20 614 68 b 464 429 614 301 549 359 b 297 629 385 494 297 546 b 379 707 297 677 334 707 b 550 489 493 707 538 591 l 578 489 b 583 739 578 615 579 685 l 555 739 b 521 694 551 709 538 694 b 496 703 513 694 505 697 b 321 741 468 718 401 741 z m 325 -62 b 201 -164 244 -62 201 -98 b 318 -260 201 -228 244 -260 b 391 -239 357 -260 378 -252 b 264 -309 380 -279 343 -298 l 267 -339 b 454 -176 390 -336 454 -269 b 325 -62 454 -102 399 -62 z "},"ß":{"ha":979,"x_min":0,"x_max":0,"o":"m 493 1086 b 103 711 236 1086 103 956 l 103 129 b 25 29 103 52 82 29 l 25 0 b 130 5 75 3 102 5 b 160 4 140 5 149 5 b 353 -16 233 3 296 -4 l 353 741 b 465 1065 353 975 358 1065 b 581 856 542 1065 581 999 b 460 606 581 737 554 667 b 415 615 450 610 429 615 b 385 590 396 615 385 606 b 412 568 385 575 399 568 b 460 583 425 568 443 575 b 694 237 545 551 694 494 b 561 5 694 111 659 5 b 521 14 545 5 532 8 b 625 160 571 36 625 86 b 514 273 625 227 582 273 b 397 139 440 273 397 218 b 611 -20 397 18 490 -20 b 957 254 790 -20 957 74 b 484 602 957 425 806 566 b 817 876 672 637 817 739 b 493 1086 817 993 703 1086 z "},"t":{"ha":486,"x_min":0,"x_max":0,"o":"m 350 720 l 350 946 b 100 885 277 903 199 885 l 100 720 l -5 720 l -5 692 l 100 692 l 100 221 b 147 28 100 125 107 68 b 290 -20 179 -4 229 -20 b 488 90 386 -20 449 24 l 467 107 b 392 66 441 77 411 66 b 350 117 361 66 350 81 l 350 692 l 486 692 l 486 720 z "},"ŧ":{"ha":490,"x_min":0,"x_max":0,"o":"m 469 107 b 395 66 444 77 414 66 b 353 117 363 66 353 81 l 353 557 l 489 557 l 489 585 l 353 585 l 353 692 l 489 692 l 489 720 l 353 720 l 353 946 b 102 885 279 903 201 885 l 102 720 l -3 720 l -3 692 l 102 692 l 102 585 l -3 585 l -3 557 l 102 557 l 102 221 b 150 28 102 125 110 68 b 293 -20 182 -4 232 -20 b 490 90 389 -20 452 24 z "},"ť":{"ha":486,"x_min":0,"x_max":0,"o":"m 592 1088 b 455 1072 552 1079 516 1072 b 417 1072 444 1072 431 1072 l 417 1043 b 445 987 440 1043 445 1023 b 417 786 445 962 439 911 l 436 781 b 599 1031 535 900 599 977 b 592 1088 599 1047 596 1078 z m 350 720 l 350 946 b 100 885 277 903 199 885 l 100 720 l -5 720 l -5 692 l 100 692 l 100 221 b 147 28 100 125 107 68 b 290 -20 179 -4 229 -20 b 488 90 386 -20 449 24 l 467 107 b 392 66 441 77 411 66 b 350 117 361 66 350 81 l 350 692 l 486 692 l 486 720 z "},"ţ":{"ha":486,"x_min":0,"x_max":0,"o":"m 365 -62 b 255 -83 323 -62 288 -69 l 273 -19 l 290 -20 b 488 90 386 -20 449 24 l 467 107 b 392 66 441 77 411 66 b 350 117 361 66 350 81 l 350 692 l 486 692 l 486 720 l 350 720 l 350 946 b 100 885 277 903 199 885 l 100 720 l -5 720 l -5 692 l 100 692 l 100 221 b 147 28 100 125 107 68 b 237 -15 170 5 200 -9 l 199 -147 b 245 -138 212 -140 230 -138 b 284 -172 269 -138 284 -147 b 198 -225 284 -210 238 -225 b 132 -218 170 -225 144 -221 l 123 -243 b 248 -261 153 -254 198 -261 b 467 -143 374 -261 467 -224 b 365 -62 467 -97 434 -62 z "},"ț":{"ha":486,"x_min":0,"x_max":0,"o":"m 350 720 l 350 946 b 100 885 277 903 199 885 l 100 720 l -5 720 l -5 692 l 100 692 l 100 221 b 147 28 100 125 107 68 b 290 -20 179 -4 229 -20 b 488 90 386 -20 449 24 l 467 107 b 392 66 441 77 411 66 b 350 117 361 66 350 81 l 350 692 l 486 692 l 486 720 z m 297 -62 b 174 -164 216 -62 174 -98 b 290 -260 174 -228 216 -260 b 363 -239 329 -260 350 -252 b 236 -309 353 -279 315 -298 l 239 -339 b 426 -176 362 -336 426 -269 b 297 -62 426 -102 371 -62 z "},"u":{"ha":864,"x_min":0,"x_max":0,"o":"m 761 736 b 519 717 692 722 612 717 b 433 721 492 717 463 718 l 433 692 b 511 570 492 692 511 653 l 511 153 b 411 53 511 94 463 53 b 343 140 363 53 343 82 l 343 736 b 102 717 273 722 195 717 b 16 721 74 717 45 718 l 16 692 b 93 570 74 692 93 653 l 93 215 b 134 36 93 121 106 69 b 290 -20 160 4 205 -20 b 511 85 390 -20 467 11 l 511 -16 b 753 4 581 -1 660 4 b 839 0 781 4 810 3 l 839 29 b 761 151 781 29 761 68 z "},"ú":{"ha":864,"x_min":0,"x_max":0,"o":"m 564 1139 b 503 1161 546 1154 524 1161 b 428 1128 474 1161 445 1148 b 310 844 378 1072 389 1002 l 325 832 b 570 1013 456 942 524 957 b 593 1076 585 1031 593 1054 b 564 1139 593 1100 584 1123 z m 761 736 b 519 717 692 722 612 717 b 433 721 492 717 463 718 l 433 692 b 511 570 492 692 511 653 l 511 153 b 411 53 511 94 463 53 b 343 140 363 53 343 82 l 343 736 b 102 717 273 722 195 717 b 16 721 74 717 45 718 l 16 692 b 93 570 74 692 93 653 l 93 215 b 134 36 93 121 106 69 b 290 -20 160 4 205 -20 b 511 85 390 -20 467 11 l 511 -16 b 753 4 581 -1 660 4 b 839 0 781 4 810 3 l 839 29 b 761 151 781 29 761 68 z "},"ŭ":{"ha":864,"x_min":0,"x_max":0,"o":"m 661 1095 b 408 1017 618 1060 542 1017 b 156 1095 275 1017 199 1060 l 132 1082 b 408 851 163 975 239 851 b 685 1082 578 851 654 975 z m 761 736 b 519 717 692 722 612 717 b 433 721 492 717 463 718 l 433 692 b 511 570 492 692 511 653 l 511 153 b 411 53 511 94 463 53 b 343 140 363 53 343 82 l 343 736 b 102 717 273 722 195 717 b 16 721 74 717 45 718 l 16 692 b 93 570 74 692 93 653 l 93 215 b 134 36 93 121 106 69 b 290 -20 160 4 205 -20 b 511 85 390 -20 467 11 l 511 -16 b 753 4 581 -1 660 4 b 839 0 781 4 810 3 l 839 29 b 761 151 781 29 761 68 z "},"û":{"ha":864,"x_min":0,"x_max":0,"o":"m 397 1156 b 137 861 337 1044 241 929 l 149 842 b 382 925 237 861 329 895 b 671 842 446 895 559 861 l 682 861 b 422 1156 576 930 479 1046 z m 761 736 b 519 717 692 722 612 717 b 433 721 492 717 463 718 l 433 692 b 511 570 492 692 511 653 l 511 153 b 411 53 511 94 463 53 b 343 140 363 53 343 82 l 343 736 b 102 717 273 722 195 717 b 16 721 74 717 45 718 l 16 692 b 93 570 74 692 93 653 l 93 215 b 134 36 93 121 106 69 b 290 -20 160 4 205 -20 b 511 85 390 -20 467 11 l 511 -16 b 753 4 581 -1 660 4 b 839 0 781 4 810 3 l 839 29 b 761 151 781 29 761 68 z "},"ü":{"ha":864,"x_min":0,"x_max":0,"o":"m 246 1072 b 125 951 179 1072 125 1015 b 246 831 125 885 179 831 b 367 951 310 831 367 885 b 246 1072 367 1015 310 1072 z m 576 1072 b 456 951 510 1072 456 1015 b 576 831 456 885 510 831 b 697 951 640 831 697 885 b 576 1072 697 1015 640 1072 z m 761 736 b 519 717 692 722 612 717 b 433 721 492 717 463 718 l 433 692 b 511 570 492 692 511 653 l 511 153 b 411 53 511 94 463 53 b 343 140 363 53 343 82 l 343 736 b 102 717 273 722 195 717 b 16 721 74 717 45 718 l 16 692 b 93 570 74 692 93 653 l 93 215 b 134 36 93 121 106 69 b 290 -20 160 4 205 -20 b 511 85 390 -20 467 11 l 511 -16 b 753 4 581 -1 660 4 b 839 0 781 4 810 3 l 839 29 b 761 151 781 29 761 68 z "},"ù":{"ha":864,"x_min":0,"x_max":0,"o":"m 233 1139 b 205 1076 214 1122 205 1099 b 228 1013 205 1054 212 1031 b 472 832 273 957 342 942 l 488 844 b 370 1128 408 1002 419 1072 b 293 1162 353 1147 323 1162 b 233 1139 272 1162 251 1155 z m 761 736 b 519 717 692 722 612 717 b 433 721 492 717 463 718 l 433 692 b 511 570 492 692 511 653 l 511 153 b 411 53 511 94 463 53 b 343 140 363 53 343 82 l 343 736 b 102 717 273 722 195 717 b 16 721 74 717 45 718 l 16 692 b 93 570 74 692 93 653 l 93 215 b 134 36 93 121 106 69 b 290 -20 160 4 205 -20 b 511 85 390 -20 467 11 l 511 -16 b 753 4 581 -1 660 4 b 839 0 781 4 810 3 l 839 29 b 761 151 781 29 761 68 z "},"ű":{"ha":864,"x_min":0,"x_max":0,"o":"m 444 1135 b 391 1151 427 1145 408 1151 b 311 1107 358 1151 328 1135 b 248 839 280 1055 288 981 l 267 831 b 465 1010 368 929 433 961 b 482 1065 476 1027 482 1047 b 444 1135 482 1092 469 1117 z m 690 1135 b 636 1151 673 1145 654 1151 b 557 1107 604 1151 574 1135 b 494 839 526 1055 534 981 l 512 831 b 711 1010 614 929 679 961 b 728 1065 722 1027 728 1046 b 690 1135 728 1092 715 1117 z m 761 736 b 519 717 692 722 612 717 b 433 721 492 717 463 718 l 433 692 b 511 570 492 692 511 653 l 511 153 b 411 53 511 94 463 53 b 343 140 363 53 343 82 l 343 736 b 102 717 273 722 195 717 b 16 721 74 717 45 718 l 16 692 b 93 570 74 692 93 653 l 93 215 b 134 36 93 121 106 69 b 290 -20 160 4 205 -20 b 511 85 390 -20 467 11 l 511 -16 b 753 4 581 -1 660 4 b 839 0 781 4 810 3 l 839 29 b 761 151 781 29 761 68 z "},"ū":{"ha":864,"x_min":0,"x_max":0,"o":"m 650 954 l 650 989 l 161 989 l 161 954 z m 761 736 b 519 717 692 722 612 717 b 433 721 492 717 463 718 l 433 692 b 511 570 492 692 511 653 l 511 153 b 411 53 511 94 463 53 b 343 140 363 53 343 82 l 343 736 b 102 717 273 722 195 717 b 16 721 74 717 45 718 l 16 692 b 93 570 74 692 93 653 l 93 215 b 134 36 93 121 106 69 b 290 -20 160 4 205 -20 b 511 85 390 -20 467 11 l 511 -16 b 753 4 581 -1 660 4 b 839 0 781 4 810 3 l 839 29 b 761 151 781 29 761 68 z "},"ų":{"ha":864,"x_min":0,"x_max":0,"o":"m 838 -146 b 747 -178 817 -164 777 -178 b 691 -125 710 -178 691 -163 b 785 -5 691 -89 713 -41 b 801 3 791 -2 797 0 b 839 0 814 2 826 1 l 839 29 b 761 151 781 29 761 68 l 761 736 b 519 717 692 722 612 717 b 433 721 492 717 463 718 l 433 692 b 511 570 492 692 511 653 l 511 153 b 411 53 511 94 463 53 b 343 140 363 53 343 82 l 343 736 b 102 717 273 722 195 717 b 16 721 74 717 45 718 l 16 692 b 93 570 74 692 93 653 l 93 215 b 134 36 93 121 106 69 b 290 -20 160 4 205 -20 b 511 85 390 -20 467 11 l 511 -16 b 753 4 581 -1 660 4 b 506 -163 597 -25 506 -82 b 644 -261 506 -225 553 -261 b 856 -167 741 -261 802 -233 z "},"ů":{"ha":864,"x_min":0,"x_max":0,"o":"m 410 1112 b 249 972 325 1112 249 1059 b 410 831 249 885 325 831 b 572 972 496 831 572 885 b 410 1112 572 1059 496 1112 z m 410 1083 b 534 971 469 1083 534 1043 b 410 860 534 896 469 860 b 288 971 351 860 288 896 b 410 1083 288 1043 351 1083 z m 761 736 b 519 717 692 722 612 717 b 433 721 492 717 463 718 l 433 692 b 511 570 492 692 511 653 l 511 153 b 411 53 511 94 463 53 b 343 140 363 53 343 82 l 343 736 b 102 717 273 722 195 717 b 16 721 74 717 45 718 l 16 692 b 93 570 74 692 93 653 l 93 215 b 134 36 93 121 106 69 b 290 -20 160 4 205 -20 b 511 85 390 -20 467 11 l 511 -16 b 753 4 581 -1 660 4 b 839 0 781 4 810 3 l 839 29 b 761 151 781 29 761 68 z "},"ũ":{"ha":864,"x_min":0,"x_max":0,"o":"m 291 1108 b 112 882 215 1108 144 1043 l 132 872 b 239 947 163 925 199 947 b 491 854 336 947 369 854 b 669 1080 566 854 637 920 l 650 1090 b 543 1017 618 1038 581 1017 b 291 1108 446 1017 412 1108 z m 761 736 b 519 717 692 722 612 717 b 433 721 492 717 463 718 l 433 692 b 511 570 492 692 511 653 l 511 153 b 411 53 511 94 463 53 b 343 140 363 53 343 82 l 343 736 b 102 717 273 722 195 717 b 16 721 74 717 45 718 l 16 692 b 93 570 74 692 93 653 l 93 215 b 134 36 93 121 106 69 b 290 -20 160 4 205 -20 b 511 85 390 -20 467 11 l 511 -16 b 753 4 581 -1 660 4 b 839 0 781 4 810 3 l 839 29 b 761 151 781 29 761 68 z "},"v":{"ha":722,"x_min":0,"x_max":0,"o":"m 616 715 b 471 721 583 715 510 717 l 471 692 b 572 552 528 688 572 643 b 546 410 572 513 565 466 l 481 218 l 330 639 b 328 656 329 646 328 651 b 408 692 328 693 364 692 l 408 721 b 228 713 353 717 285 713 b -20 721 131 713 54 715 l -20 692 b 61 614 0 692 33 685 l 302 0 b 370 3 325 2 348 3 b 437 0 393 3 416 2 l 625 557 b 724 692 656 647 689 679 l 724 721 b 616 715 703 717 650 715 z "},"w":{"ha":1108,"x_min":0,"x_max":0,"o":"m 1006 715 b 846 721 972 715 885 717 l 846 692 b 958 543 910 686 958 640 b 936 410 958 507 951 462 l 876 212 l 718 720 b 637 717 692 718 664 717 b 571 720 615 717 593 718 l 570 720 l 450 254 l 335 639 b 332 658 333 646 332 652 b 412 692 332 688 361 692 l 412 721 b 232 713 357 717 289 713 b -16 721 135 713 58 715 l -16 692 b 65 614 4 692 39 688 l 279 0 b 347 3 302 2 324 3 b 414 0 369 3 392 2 l 540 480 l 705 0 b 773 3 728 2 751 3 b 840 0 795 3 819 2 l 1014 557 b 1112 692 1043 648 1078 679 l 1112 721 b 1006 715 1092 717 1039 715 z "},"ẃ":{"ha":1108,"x_min":0,"x_max":0,"o":"m 731 1013 b 754 1076 747 1031 754 1054 b 726 1139 754 1100 745 1123 b 665 1161 707 1154 686 1161 b 589 1128 635 1161 606 1148 b 471 844 539 1072 551 1002 l 486 832 b 731 1013 617 942 685 957 z m 1006 715 b 846 721 972 715 885 717 l 846 692 b 958 543 910 686 958 640 b 936 410 958 507 951 462 l 876 212 l 718 720 b 637 717 692 718 664 717 b 571 720 615 717 593 718 l 570 720 l 450 254 l 335 639 b 332 658 333 646 332 652 b 412 692 332 688 361 692 l 412 721 b 232 713 357 717 289 713 b -16 721 135 713 58 715 l -16 692 b 65 614 4 692 39 688 l 279 0 b 347 3 302 2 324 3 b 414 0 369 3 392 2 l 540 480 l 705 0 b 773 3 728 2 751 3 b 840 0 795 3 819 2 l 1014 557 b 1112 692 1043 648 1078 679 l 1112 721 b 1006 715 1092 717 1039 715 z "},"ŵ":{"ha":1108,"x_min":0,"x_max":0,"o":"m 543 925 b 832 842 607 895 721 861 l 843 861 b 583 1156 737 930 640 1046 l 558 1156 b 298 861 498 1044 403 929 l 310 842 b 543 925 399 861 490 895 z m 1006 715 b 846 721 972 715 885 717 l 846 692 b 958 543 910 686 958 640 b 936 410 958 507 951 462 l 876 212 l 718 720 b 637 717 692 718 664 717 b 571 720 615 717 593 718 l 570 720 l 450 254 l 335 639 b 332 658 333 646 332 652 b 412 692 332 688 361 692 l 412 721 b 232 713 357 717 289 713 b -16 721 135 713 58 715 l -16 692 b 65 614 4 692 39 688 l 279 0 b 347 3 302 2 324 3 b 414 0 369 3 392 2 l 540 480 l 705 0 b 773 3 728 2 751 3 b 840 0 795 3 819 2 l 1014 557 b 1112 692 1043 648 1078 679 l 1112 721 b 1006 715 1092 717 1039 715 z "},"ẅ":{"ha":1108,"x_min":0,"x_max":0,"o":"m 408 831 b 528 951 471 831 528 885 b 408 1072 528 1015 471 1072 b 286 951 340 1072 286 1015 b 408 831 286 885 340 831 z m 738 831 b 859 951 802 831 859 885 b 738 1072 859 1015 802 1072 b 617 951 671 1072 617 1015 b 738 831 617 885 671 831 z m 1006 715 b 846 721 972 715 885 717 l 846 692 b 958 543 910 686 958 640 b 936 410 958 507 951 462 l 876 212 l 718 720 b 637 717 692 718 664 717 b 571 720 615 717 593 718 l 570 720 l 450 254 l 335 639 b 332 658 333 646 332 652 b 412 692 332 688 361 692 l 412 721 b 232 713 357 717 289 713 b -16 721 135 713 58 715 l -16 692 b 65 614 4 692 39 688 l 279 0 b 347 3 302 2 324 3 b 414 0 369 3 392 2 l 540 480 l 705 0 b 773 3 728 2 751 3 b 840 0 795 3 819 2 l 1014 557 b 1112 692 1043 648 1078 679 l 1112 721 b 1006 715 1092 717 1039 715 z "},"ẁ":{"ha":1108,"x_min":0,"x_max":0,"o":"m 649 844 b 531 1128 570 1002 581 1072 b 454 1162 514 1147 484 1162 b 395 1139 433 1162 412 1155 b 366 1076 375 1122 366 1099 b 389 1013 366 1054 374 1031 b 633 832 435 957 503 942 z m 1006 715 b 846 721 972 715 885 717 l 846 692 b 958 543 910 686 958 640 b 936 410 958 507 951 462 l 876 212 l 718 720 b 637 717 692 718 664 717 b 571 720 615 717 593 718 l 570 720 l 450 254 l 335 639 b 332 658 333 646 332 652 b 412 692 332 688 361 692 l 412 721 b 232 713 357 717 289 713 b -16 721 135 713 58 715 l -16 692 b 65 614 4 692 39 688 l 279 0 b 347 3 302 2 324 3 b 414 0 369 3 392 2 l 540 480 l 705 0 b 773 3 728 2 751 3 b 840 0 795 3 819 2 l 1014 557 b 1112 692 1043 648 1078 679 l 1112 721 b 1006 715 1092 717 1039 715 z "},"x":{"ha":760,"x_min":0,"x_max":0,"o":"m 473 440 l 593 579 b 724 693 639 635 682 675 l 724 721 b 631 717 699 718 671 717 b 446 721 582 717 503 718 l 446 693 b 534 608 503 688 534 655 b 482 490 534 574 517 533 l 458 462 l 338 644 b 330 667 332 652 330 660 b 372 692 330 682 346 692 l 372 721 b 208 715 340 720 272 715 b -1 721 127 715 39 720 l -1 692 b 71 623 26 686 45 663 l 283 303 l 143 142 b 12 28 97 86 60 52 l 12 0 b 106 4 37 3 65 4 b 332 0 154 4 275 3 l 332 28 b 233 137 272 33 233 77 b 285 267 233 176 249 220 l 297 282 l 433 77 b 441 54 439 68 441 61 b 399 29 441 39 425 29 l 399 0 b 590 5 436 1 515 5 b 772 0 660 5 737 1 l 772 29 b 700 98 742 35 717 75 z "},"y":{"ha":734,"x_min":0,"x_max":0,"o":"m 623 715 b 476 721 589 715 515 717 l 476 692 b 578 552 534 688 578 643 b 551 410 578 513 570 466 l 494 232 l 322 639 b 317 661 318 648 317 654 b 400 692 317 691 358 692 l 400 721 b 199 713 345 717 285 713 b -28 721 129 713 46 715 l -28 692 b 53 614 -8 692 21 685 l 377 -102 l 370 -125 b 237 -236 345 -201 297 -236 b 191 -233 227 -236 204 -236 b 281 -126 253 -214 281 -167 b 155 -24 281 -58 232 -24 b 20 -131 74 -24 20 -65 b 208 -261 20 -228 132 -261 b 338 -228 277 -261 313 -248 b 399 -127 364 -207 382 -175 l 457 40 l 631 557 b 729 692 661 647 694 679 l 729 721 b 623 715 708 717 656 715 z "},"ý":{"ha":734,"x_min":0,"x_max":0,"o":"m 521 1013 b 544 1076 536 1031 544 1054 b 515 1139 544 1100 535 1123 b 454 1161 497 1154 475 1161 b 379 1128 425 1161 396 1148 b 261 844 329 1072 340 1002 l 276 832 b 521 1013 407 942 475 957 z m 623 715 b 476 721 589 715 515 717 l 476 692 b 578 552 534 688 578 643 b 551 410 578 513 570 466 l 494 232 l 322 639 b 317 661 318 648 317 654 b 400 692 317 691 358 692 l 400 721 b 199 713 345 717 285 713 b -28 721 129 713 46 715 l -28 692 b 53 614 -8 692 21 685 l 377 -102 l 370 -125 b 237 -236 345 -201 297 -236 b 191 -233 227 -236 204 -236 b 281 -126 253 -214 281 -167 b 155 -24 281 -58 232 -24 b 20 -131 74 -24 20 -65 b 208 -261 20 -228 132 -261 b 338 -228 277 -261 313 -248 b 399 -127 364 -207 382 -175 l 457 40 l 631 557 b 729 692 661 647 694 679 l 729 721 b 623 715 708 717 656 715 z "},"ŷ":{"ha":734,"x_min":0,"x_max":0,"o":"m 333 925 b 622 842 397 895 511 861 l 633 861 b 373 1156 527 930 430 1046 l 348 1156 b 88 861 288 1044 193 929 l 100 842 b 333 925 189 861 280 895 z m 623 715 b 476 721 589 715 515 717 l 476 692 b 578 552 534 688 578 643 b 551 410 578 513 570 466 l 494 232 l 322 639 b 317 661 318 648 317 654 b 400 692 317 691 358 692 l 400 721 b 199 713 345 717 285 713 b -28 721 129 713 46 715 l -28 692 b 53 614 -8 692 21 685 l 377 -102 l 370 -125 b 237 -236 345 -201 297 -236 b 191 -233 227 -236 204 -236 b 281 -126 253 -214 281 -167 b 155 -24 281 -58 232 -24 b 20 -131 74 -24 20 -65 b 208 -261 20 -228 132 -261 b 338 -228 277 -261 313 -248 b 399 -127 364 -207 382 -175 l 457 40 l 631 557 b 729 692 661 647 694 679 l 729 721 b 623 715 708 717 656 715 z "},"ÿ":{"ha":734,"x_min":0,"x_max":0,"o":"m 197 831 b 318 951 261 831 318 885 b 197 1072 318 1015 261 1072 b 76 951 130 1072 76 1015 b 197 831 76 885 130 831 z m 528 831 b 648 951 591 831 648 885 b 528 1072 648 1015 591 1072 b 407 951 461 1072 407 1015 b 528 831 407 885 461 831 z m 623 715 b 476 721 589 715 515 717 l 476 692 b 578 552 534 688 578 643 b 551 410 578 513 570 466 l 494 232 l 322 639 b 317 661 318 648 317 654 b 400 692 317 691 358 692 l 400 721 b 199 713 345 717 285 713 b -28 721 129 713 46 715 l -28 692 b 53 614 -8 692 21 685 l 377 -102 l 370 -125 b 237 -236 345 -201 297 -236 b 191 -233 227 -236 204 -236 b 281 -126 253 -214 281 -167 b 155 -24 281 -58 232 -24 b 20 -131 74 -24 20 -65 b 208 -261 20 -228 132 -261 b 338 -228 277 -261 313 -248 b 399 -127 364 -207 382 -175 l 457 40 l 631 557 b 729 692 661 647 694 679 l 729 721 b 623 715 708 717 656 715 z "},"ỳ":{"ha":734,"x_min":0,"x_max":0,"o":"m 439 844 b 321 1128 359 1002 370 1072 b 244 1162 304 1147 274 1162 b 184 1139 223 1162 202 1155 b 156 1076 165 1122 156 1099 b 179 1013 156 1054 163 1031 b 423 832 224 957 293 942 z m 623 715 b 476 721 589 715 515 717 l 476 692 b 578 552 534 688 578 643 b 551 410 578 513 570 466 l 494 232 l 322 639 b 317 661 318 648 317 654 b 400 692 317 691 358 692 l 400 721 b 199 713 345 717 285 713 b -28 721 129 713 46 715 l -28 692 b 53 614 -8 692 21 685 l 377 -102 l 370 -125 b 237 -236 345 -201 297 -236 b 191 -233 227 -236 204 -236 b 281 -126 253 -214 281 -167 b 155 -24 281 -58 232 -24 b 20 -131 74 -24 20 -65 b 208 -261 20 -228 132 -261 b 338 -228 277 -261 313 -248 b 399 -127 364 -207 382 -175 l 457 40 l 631 557 b 729 692 661 647 694 679 l 729 721 b 623 715 708 717 656 715 z "},"z":{"ha":656,"x_min":0,"x_max":0,"o":"m 310 21 l 621 726 b 326 720 528 722 424 720 b 54 725 235 720 140 721 b 60 433 58 663 60 581 l 87 433 b 319 699 103 639 215 699 l 347 699 l 36 -7 b 330 0 129 -3 233 0 b 603 -5 422 0 517 -1 b 597 286 599 57 597 139 l 570 286 b 329 21 554 81 433 21 z "},"ź":{"ha":656,"x_min":0,"x_max":0,"o":"m 505 1139 b 444 1161 486 1154 465 1161 b 368 1128 414 1161 385 1148 b 250 844 318 1072 330 1002 l 265 832 b 510 1013 396 942 464 957 b 533 1076 526 1031 533 1054 b 505 1139 533 1100 524 1123 z m 310 21 l 621 726 b 326 720 528 722 424 720 b 54 725 235 720 140 721 b 60 433 58 663 60 581 l 87 433 b 319 699 103 639 215 699 l 347 699 l 36 -7 b 330 0 129 -3 233 0 b 603 -5 422 0 517 -1 b 597 286 599 57 597 139 l 570 286 b 329 21 554 81 433 21 z "},"ž":{"ha":656,"x_min":0,"x_max":0,"o":"m 597 1156 b 364 1072 509 1136 416 1103 b 75 1156 300 1103 186 1136 l 64 1136 b 323 842 170 1067 267 951 l 349 842 b 608 1136 408 953 504 1068 z m 310 21 l 621 726 b 326 720 528 722 424 720 b 54 725 235 720 140 721 b 60 433 58 663 60 581 l 87 433 b 319 699 103 639 215 699 l 347 699 l 36 -7 b 330 0 129 -3 233 0 b 603 -5 422 0 517 -1 b 597 286 599 57 597 139 l 570 286 b 329 21 554 81 433 21 z "},"ż":{"ha":656,"x_min":0,"x_max":0,"o":"m 350 1086 b 199 966 252 1086 199 1046 b 350 847 199 888 252 847 b 501 966 446 847 501 888 b 350 1086 501 1046 446 1086 z m 310 21 l 621 726 b 326 720 528 722 424 720 b 54 725 235 720 140 721 b 60 433 58 663 60 581 l 87 433 b 319 699 103 639 215 699 l 347 699 l 36 -7 b 330 0 129 -3 233 0 b 603 -5 422 0 517 -1 b 597 286 599 57 597 139 l 570 286 b 329 21 554 81 433 21 z "},"ﬁ":{"ha":933,"x_min":0,"x_max":0,"o":"m 533 1086 b 229 990 425 1086 302 1060 b 113 720 155 921 113 833 l 16 720 l 16 692 l 113 692 l 113 129 b 21 29 113 52 87 29 l 21 0 b 244 5 64 1 153 5 b 468 0 330 5 422 1 l 468 29 b 363 129 401 29 363 50 l 363 692 l 489 692 b 581 570 558 692 581 653 l 581 129 b 503 29 581 52 559 29 l 503 0 b 713 5 543 1 632 5 b 922 0 793 5 882 1 l 922 29 b 831 129 856 29 831 52 l 831 736 b 489 720 736 722 654 720 l 363 720 b 400 958 363 854 374 911 b 566 1059 433 1019 485 1059 b 647 1043 600 1059 633 1050 b 525 922 570 1025 525 982 b 684 807 525 848 579 807 b 842 925 791 807 842 848 b 779 1031 842 970 811 1011 b 533 1086 726 1063 673 1086 z "},"ﬂ":{"ha":939,"x_min":0,"x_max":0,"o":"m 831 1089 b 677 1079 782 1084 721 1079 b 478 1086 603 1079 539 1086 b 221 1003 390 1086 293 1064 b 113 720 154 946 113 860 l 16 720 l 16 692 l 113 692 l 113 129 b 21 29 113 52 87 29 l 21 0 b 244 5 64 1 153 5 b 468 0 330 5 422 1 l 468 29 b 363 129 401 29 363 50 l 363 692 l 489 692 l 489 720 l 363 720 l 363 760 b 401 1008 363 904 367 965 b 510 1059 429 1043 457 1059 b 561 1038 536 1059 553 1047 b 581 964 574 1023 581 1004 l 581 129 b 503 29 581 52 559 29 l 503 0 b 713 5 543 1 632 5 b 922 0 793 5 882 1 l 922 29 b 831 129 856 29 831 52 z "},"ª":{"ha":688,"x_min":0,"x_max":0,"o":"m 349 1003 b 154 971 267 1003 208 994 b 74 869 109 951 74 917 b 182 779 74 815 117 779 b 297 872 241 779 297 811 b 228 961 297 905 277 947 b 285 977 244 972 264 977 b 366 863 336 977 366 946 l 366 838 b 254 760 366 802 307 775 b 53 610 111 720 53 686 b 196 500 53 533 113 500 b 366 566 256 500 318 519 b 472 500 368 525 393 500 b 653 551 550 500 611 522 l 637 572 b 608 562 629 566 619 562 b 587 587 593 562 587 570 l 587 827 b 349 1003 587 950 517 1003 z m 366 590 b 323 576 351 579 340 576 b 285 637 302 576 285 600 b 323 742 285 676 296 711 b 366 798 346 766 359 782 z "},"º":{"ha":664,"x_min":0,"x_max":0,"o":"m 332 1003 b 45 751 161 1003 45 917 b 332 500 45 586 161 500 b 619 751 503 500 619 586 b 332 1003 619 917 503 1003 z m 332 978 b 387 751 366 978 387 913 b 332 525 387 590 366 525 b 277 751 298 525 277 590 b 332 978 277 913 298 978 z "},"А":{"ha":961,"x_min":0,"x_max":0,"o":"m 553 983 b 480 981 531 981 505 981 b 407 983 455 981 429 981 l 98 191 b -29 28 54 75 14 35 l -29 0 b 78 4 -1 3 41 4 b 260 0 142 4 191 3 l 260 28 b 134 129 186 31 134 47 b 179 310 134 170 148 229 l 203 372 l 483 372 l 566 144 b 583 79 576 116 583 95 b 485 28 583 41 551 31 l 485 0 b 718 4 534 3 624 4 b 971 0 810 4 904 3 l 971 28 b 889 117 946 29 914 53 z m 473 400 l 214 400 l 347 747 z "},"Б":{"ha":949,"x_min":0,"x_max":0,"o":"m 419 586 l 419 864 b 504 951 419 940 432 951 l 522 951 b 778 650 623 951 729 880 l 810 650 b 806 750 807 673 806 711 b 815 983 806 796 808 890 b 525 979 729 979 610 979 b 39 983 425 979 200 979 l 39 956 b 138 836 123 951 138 937 l 138 147 b 39 28 138 46 122 32 l 39 0 b 269 4 92 3 192 4 b 503 1 379 4 460 1 b 920 290 783 1 920 121 b 471 586 920 431 825 586 z m 490 28 b 419 147 432 28 419 56 l 419 558 l 457 558 b 628 282 600 558 628 432 b 490 28 628 114 593 28 z "},"В":{"ha":978,"x_min":0,"x_max":0,"o":"m 557 518 b 878 764 777 546 878 665 b 501 982 878 892 754 982 b 278 979 465 982 371 979 b 39 983 189 979 92 981 l 39 956 b 138 836 122 951 138 937 l 138 147 b 39 28 138 46 123 32 l 39 0 b 281 4 92 3 187 4 b 533 0 401 4 489 0 b 950 269 791 0 950 83 b 557 515 950 382 843 501 z m 494 956 b 591 749 566 956 591 885 b 457 522 591 628 566 522 l 419 522 l 419 836 b 494 956 419 932 432 956 z m 510 32 b 419 147 435 32 419 50 l 419 498 l 439 498 b 659 275 596 498 659 416 b 510 32 659 119 614 32 z "},"Г":{"ha":836,"x_min":0,"x_max":0,"o":"m 815 983 b 525 979 729 979 610 979 b 39 983 425 979 200 979 l 39 956 b 138 836 123 951 138 937 l 138 147 b 39 28 138 46 122 32 l 39 0 b 286 4 92 3 186 4 b 532 0 378 4 475 3 l 532 28 b 419 147 437 32 419 46 l 419 864 b 504 951 419 940 432 951 l 522 951 b 778 650 623 951 729 880 l 810 650 b 806 750 807 673 806 711 b 815 983 806 796 808 890 z "},"Ѓ":{"ha":836,"x_min":0,"x_max":0,"o":"m 507 1304 b 288 1089 439 1272 422 1203 l 297 1072 b 593 1143 460 1122 529 1109 b 646 1225 626 1159 646 1192 b 637 1261 646 1237 643 1249 b 550 1314 620 1297 584 1314 b 507 1304 534 1314 519 1310 z m 815 983 b 525 979 729 979 610 979 b 39 983 425 979 200 979 l 39 956 b 138 836 123 951 138 937 l 138 147 b 39 28 138 46 122 32 l 39 0 b 286 4 92 3 186 4 b 532 0 378 4 475 3 l 532 28 b 419 147 437 32 419 46 l 419 864 b 504 951 419 940 432 951 l 522 951 b 778 650 623 951 729 880 l 810 650 b 806 750 807 673 806 711 b 815 983 806 796 808 890 z "},"Ґ":{"ha":793,"x_min":0,"x_max":0,"o":"m 747 1203 b 464 983 711 1074 581 983 b 305 978 427 983 368 978 b 39 983 215 978 120 982 l 39 956 b 138 836 123 951 138 937 l 138 147 b 39 28 138 46 122 32 l 39 0 b 286 4 92 3 186 4 b 532 0 378 4 475 3 l 532 28 b 419 147 437 32 419 46 l 419 836 b 532 951 419 937 437 951 b 785 947 618 951 715 951 b 775 1103 775 1006 775 1074 b 779 1203 775 1141 777 1178 z "},"Д":{"ha":928,"x_min":0,"x_max":0,"o":"m 871 28 b 772 147 787 28 772 46 l 772 836 b 885 956 772 937 790 951 l 885 983 b 636 979 829 981 715 979 b 437 983 557 979 509 983 b 315 979 397 983 357 979 b 172 983 271 979 211 981 l 172 956 b 286 867 260 952 286 937 b 285 836 286 857 286 847 b 26 28 261 467 240 28 l 1 28 b 11 -164 8 -49 11 -126 b 7 -257 11 -203 9 -233 l 39 -257 b 309 0 75 -60 189 0 l 606 0 b 875 -257 725 0 839 -60 l 907 -257 b 903 -164 904 -233 903 -203 b 913 28 903 -126 905 -49 z m 490 147 b 378 28 490 46 472 28 l 120 28 b 317 836 292 138 292 564 b 387 956 322 935 354 956 l 406 956 b 490 836 461 956 490 937 z "},"Е":{"ha":903,"x_min":0,"x_max":0,"o":"m 833 233 b 838 361 833 283 835 328 l 806 361 b 550 32 761 110 642 32 l 504 32 b 419 119 432 32 419 43 l 419 481 l 433 481 b 627 297 538 481 610 400 l 659 297 b 650 494 652 403 650 449 b 649 557 650 514 649 533 b 654 692 649 589 650 631 l 623 692 b 433 509 606 611 538 509 l 419 509 l 419 864 b 504 951 419 940 432 951 l 522 951 b 778 650 636 951 743 880 l 810 650 b 806 750 807 673 806 711 b 815 983 806 796 808 890 b 525 979 729 979 610 979 b 39 983 425 979 200 979 l 39 956 b 138 836 122 951 138 937 l 138 147 b 39 28 138 46 123 32 l 39 0 b 525 4 200 4 425 4 b 843 0 618 4 749 4 b 833 233 833 92 833 187 z "},"Ё":{"ha":903,"x_min":0,"x_max":0,"o":"m 265 1059 b 386 1179 329 1059 386 1112 b 265 1300 386 1243 329 1300 b 144 1179 199 1300 144 1243 b 265 1059 144 1112 199 1059 z m 623 1059 b 744 1179 687 1059 744 1112 b 623 1300 744 1243 687 1300 b 503 1179 557 1300 503 1243 b 623 1059 503 1112 557 1059 z m 833 233 b 838 361 833 283 835 328 l 806 361 b 550 32 761 110 642 32 l 504 32 b 419 119 432 32 419 43 l 419 481 l 433 481 b 627 297 538 481 610 400 l 659 297 b 650 494 652 403 650 449 b 649 557 650 514 649 533 b 654 692 649 589 650 631 l 623 692 b 433 509 606 611 538 509 l 419 509 l 419 864 b 504 951 419 940 432 951 l 522 951 b 778 650 636 951 743 880 l 810 650 b 806 750 807 673 806 711 b 815 983 806 796 808 890 b 525 979 729 979 610 979 b 39 983 425 979 200 979 l 39 956 b 138 836 122 951 138 937 l 138 147 b 39 28 138 46 123 32 l 39 0 b 525 4 200 4 425 4 b 843 0 618 4 749 4 b 833 233 833 92 833 187 z "},"Ж":{"ha":1471,"x_min":0,"x_max":0,"o":"m 1475 74 b 1434 56 1463 61 1450 56 b 1369 146 1400 56 1382 77 l 1329 339 b 1002 523 1303 464 1196 511 l 1247 804 b 1475 957 1335 903 1413 940 l 1475 983 b 1335 979 1438 981 1394 979 b 1100 983 1231 979 1178 981 l 1100 957 b 1215 865 1165 954 1215 921 b 1153 741 1215 831 1196 789 l 1105 688 b 876 527 1006 576 953 532 l 876 836 b 975 956 876 937 892 951 l 975 983 b 728 979 922 981 828 979 b 496 983 642 979 550 981 l 496 956 b 595 836 581 951 595 937 l 595 527 b 366 688 518 532 465 576 l 318 741 b 256 865 275 789 256 831 b 371 957 256 921 306 954 l 371 983 b 136 979 293 981 240 979 b -4 983 77 979 33 981 l -4 957 b 224 804 58 940 136 903 l 469 523 b 142 339 275 511 169 464 l 102 146 b 37 56 89 77 71 56 b -4 74 21 56 8 61 l -22 56 b 186 -20 35 -1 102 -20 b 400 131 310 -20 383 18 l 436 370 b 595 503 453 467 490 499 l 595 147 b 496 28 595 46 579 32 l 496 0 b 728 4 550 3 642 4 b 975 0 828 4 922 3 l 975 28 b 876 147 890 32 876 46 l 876 503 b 1035 370 981 499 1018 467 l 1071 131 b 1284 -20 1088 18 1161 -20 b 1493 56 1369 -20 1436 -1 z "},"З":{"ha":885,"x_min":0,"x_max":0,"o":"m 463 1003 b 191 913 319 1003 260 962 b 164 900 179 904 172 900 b 127 983 142 900 134 928 l 96 983 b 102 636 100 909 102 811 l 134 636 b 387 954 144 815 221 954 b 542 760 479 954 542 905 b 433 528 542 677 522 570 b 376 536 414 532 393 536 b 343 514 353 536 343 528 b 374 490 343 497 357 490 b 432 509 393 490 414 498 b 596 268 551 503 596 385 b 349 16 596 92 494 16 b 167 61 264 16 208 35 b 304 208 253 83 304 140 b 172 343 304 298 254 343 b 25 203 94 343 25 293 b 109 57 25 139 68 87 b 389 -20 189 -4 298 -20 b 859 264 619 -20 859 81 b 454 521 859 439 643 518 b 806 793 604 551 806 639 b 463 1003 806 924 664 1003 z "},"И":{"ha":1179,"x_min":0,"x_max":0,"o":"m 1140 983 b 893 979 1088 981 993 979 b 661 983 807 979 715 981 l 661 956 b 760 854 739 951 758 939 l 419 193 l 419 836 b 518 956 419 937 435 951 l 518 983 b 286 979 464 981 372 979 b 39 983 186 979 92 981 l 39 956 b 138 836 122 951 138 937 l 138 147 b 39 28 138 46 122 32 l 39 0 b 286 4 92 3 186 4 b 518 0 372 4 464 3 l 518 28 b 419 125 441 32 422 44 l 760 786 l 760 147 b 661 28 760 46 745 32 l 661 0 b 893 4 715 3 807 4 b 1140 0 993 4 1088 3 l 1140 28 b 1042 147 1057 32 1042 46 l 1042 836 b 1140 956 1042 937 1057 951 z "},"Й":{"ha":1179,"x_min":0,"x_max":0,"o":"m 326 1104 b 590 1059 382 1079 473 1059 b 852 1104 705 1059 797 1079 b 947 1213 905 1128 947 1164 b 812 1315 947 1270 890 1315 b 677 1210 733 1315 677 1270 b 778 1108 677 1158 718 1124 b 590 1086 718 1093 644 1086 b 401 1107 534 1086 461 1093 b 504 1210 456 1121 504 1154 b 368 1315 504 1271 446 1315 b 235 1213 288 1315 235 1268 b 326 1104 235 1162 276 1126 z m 1140 983 b 893 979 1088 981 993 979 b 661 983 807 979 715 981 l 661 956 b 760 854 739 951 758 939 l 419 193 l 419 836 b 518 956 419 937 435 951 l 518 983 b 286 979 464 981 372 979 b 39 983 186 979 92 981 l 39 956 b 138 836 122 951 138 937 l 138 147 b 39 28 138 46 122 32 l 39 0 b 286 4 92 3 186 4 b 518 0 372 4 464 3 l 518 28 b 419 125 441 32 422 44 l 760 786 l 760 147 b 661 28 760 46 745 32 l 661 0 b 893 4 715 3 807 4 b 1140 0 993 4 1088 3 l 1140 28 b 1042 147 1057 32 1042 46 l 1042 836 b 1140 956 1042 937 1057 951 z "},"Ѝ":{"ha":1179,"x_min":0,"x_max":0,"o":"m 378 1143 b 673 1072 441 1109 511 1122 l 683 1089 b 464 1304 549 1203 532 1272 b 421 1314 451 1310 436 1314 b 333 1261 387 1314 351 1297 b 325 1225 328 1249 325 1237 b 378 1143 325 1192 345 1160 z m 1140 983 b 893 979 1088 981 993 979 b 661 983 807 979 715 981 l 661 956 b 760 854 739 951 758 939 l 419 193 l 419 836 b 518 956 419 937 435 951 l 518 983 b 286 979 464 981 372 979 b 39 983 186 979 92 981 l 39 956 b 138 836 122 951 138 937 l 138 147 b 39 28 138 46 122 32 l 39 0 b 286 4 92 3 186 4 b 518 0 372 4 464 3 l 518 28 b 419 125 441 32 422 44 l 760 786 l 760 147 b 661 28 760 46 745 32 l 661 0 b 893 4 715 3 807 4 b 1140 0 993 4 1088 3 l 1140 28 b 1042 147 1057 32 1042 46 l 1042 836 b 1140 956 1042 937 1057 951 z "},"К":{"ha":1042,"x_min":0,"x_max":0,"o":"m 1018 74 b 977 56 1006 61 993 56 b 913 146 943 56 925 77 l 872 339 b 545 523 846 464 739 511 l 799 804 b 1026 957 888 901 964 940 l 1026 983 b 886 979 989 981 946 979 b 652 983 782 979 729 981 l 652 957 b 766 865 716 954 766 921 b 704 741 766 831 747 789 l 657 688 b 419 527 557 576 496 532 l 419 836 b 518 956 419 937 433 951 l 518 983 b 286 979 464 981 372 979 b 39 983 186 979 92 981 l 39 956 b 138 836 122 951 138 937 l 138 147 b 39 28 138 46 123 32 l 39 0 b 286 4 92 3 186 4 b 518 0 372 4 464 3 l 518 28 b 419 147 435 32 419 46 l 419 503 b 578 370 524 499 561 467 l 614 131 b 828 -20 631 18 704 -20 b 1036 56 913 -20 979 -1 z "},"Ќ":{"ha":1042,"x_min":0,"x_max":0,"o":"m 792 1143 b 844 1225 825 1159 844 1192 b 836 1261 844 1237 842 1249 b 749 1314 819 1297 783 1314 b 706 1304 733 1314 718 1310 b 486 1089 637 1272 621 1203 l 496 1072 b 792 1143 659 1122 728 1109 z m 1018 74 b 977 56 1006 61 993 56 b 913 146 943 56 925 77 l 872 339 b 545 523 846 464 739 511 l 799 804 b 1026 957 888 901 964 940 l 1026 983 b 886 979 989 981 946 979 b 652 983 782 979 729 981 l 652 957 b 766 865 716 954 766 921 b 704 741 766 831 747 789 l 657 688 b 419 527 557 576 496 532 l 419 836 b 518 956 419 937 433 951 l 518 983 b 286 979 464 981 372 979 b 39 983 186 979 92 981 l 39 956 b 138 836 122 951 138 937 l 138 147 b 39 28 138 46 123 32 l 39 0 b 286 4 92 3 186 4 b 518 0 372 4 464 3 l 518 28 b 419 147 435 32 419 46 l 419 503 b 578 370 524 499 561 467 l 614 131 b 828 -20 631 18 704 -20 b 1036 56 913 -20 979 -1 z "},"Л":{"ha":1029,"x_min":0,"x_max":0,"o":"m 999 983 b 750 979 943 981 829 979 b 551 983 671 979 623 983 b 429 979 511 983 471 979 b 286 983 385 979 325 981 l 286 956 b 400 867 374 952 400 937 b 399 836 400 857 399 847 b 140 7 376 453 354 7 b 106 18 125 7 113 11 b 250 175 187 32 250 92 b 126 278 250 240 201 278 b -29 132 40 278 -29 221 b 140 -20 -29 49 41 -20 b 431 836 407 -20 401 510 b 515 956 437 935 469 956 l 519 956 b 604 836 575 956 604 937 l 604 147 b 492 28 604 46 586 32 l 492 0 b 741 4 549 3 644 4 b 999 0 842 4 943 3 l 999 28 b 886 147 904 32 886 46 l 886 836 b 999 956 886 937 904 951 z "},"М":{"ha":1340,"x_min":0,"x_max":0,"o":"m 1301 983 b 1055 979 1244 981 1147 979 l 935 979 l 707 393 l 444 983 b 157 979 364 981 264 979 b 41 983 115 979 69 981 l 41 956 b 140 836 125 951 140 937 l 140 244 b 41 28 140 87 126 46 l 41 0 b 157 4 69 3 115 4 b 313 0 208 4 275 3 l 313 28 b 172 272 180 46 172 86 l 172 893 l 564 1 l 586 1 l 921 859 l 921 147 b 808 28 921 46 903 32 l 808 0 b 1055 4 861 3 956 4 b 1301 0 1147 4 1244 3 l 1301 28 b 1203 147 1218 32 1203 46 l 1203 836 b 1301 956 1203 937 1217 951 z "},"Н":{"ha":1152,"x_min":0,"x_max":0,"o":"m 1112 983 b 879 979 1063 981 974 979 b 633 983 787 979 690 981 l 633 956 b 732 836 717 951 732 937 l 732 509 l 419 509 l 419 836 b 518 956 419 937 433 951 l 518 983 b 286 979 464 981 372 979 b 39 983 186 979 92 981 l 39 956 b 138 836 122 951 138 937 l 138 147 b 39 28 138 46 123 32 l 39 0 b 286 4 92 3 186 4 b 518 0 372 4 464 3 l 518 28 b 419 147 435 32 419 46 l 419 481 l 732 481 l 732 147 b 633 28 732 46 718 32 l 633 0 b 879 4 690 3 787 4 b 1112 0 974 4 1063 3 l 1112 28 b 1014 147 1029 32 1014 46 l 1014 836 b 1112 956 1014 937 1028 951 z "},"О":{"ha":1149,"x_min":0,"x_max":0,"o":"m 575 1003 b 50 484 267 1003 50 794 b 574 -20 50 165 260 -20 b 1099 500 882 -20 1099 189 b 575 1003 1099 818 889 1003 z m 570 978 b 807 494 700 978 807 790 b 579 5 807 207 718 5 b 342 489 449 5 342 193 b 570 978 342 777 431 978 z "},"П":{"ha":1152,"x_min":0,"x_max":0,"o":"m 1112 983 b 865 979 1060 981 965 979 b 578 983 757 979 643 983 b 286 979 513 983 395 979 b 39 983 186 979 92 981 l 39 956 b 138 836 122 951 138 937 l 138 147 b 39 28 138 46 122 32 l 39 0 b 286 4 92 3 186 4 b 518 0 372 4 464 3 l 518 28 b 419 147 435 32 419 46 l 419 836 b 532 956 419 937 437 956 l 619 956 b 732 836 714 956 732 937 l 732 147 b 633 28 732 46 717 32 l 633 0 b 865 4 688 3 779 4 b 1112 0 965 4 1060 3 l 1112 28 b 1014 147 1029 32 1014 46 l 1014 836 b 1112 956 1014 937 1029 951 z "},"Р":{"ha":942,"x_min":0,"x_max":0,"o":"m 419 397 l 471 397 b 920 708 825 397 920 574 b 501 982 920 869 783 982 b 278 979 465 982 371 979 b 39 983 189 979 92 981 l 39 956 b 138 836 122 951 138 937 l 138 147 b 39 28 138 46 123 32 l 39 0 b 288 4 114 1 203 4 b 574 0 403 4 511 1 l 574 32 b 419 161 446 32 419 47 z m 494 956 b 628 693 593 956 628 868 b 457 425 628 551 599 425 l 419 425 l 419 836 b 494 956 419 932 432 956 z "},"С":{"ha":996,"x_min":0,"x_max":0,"o":"m 575 1003 b 50 484 267 1003 50 794 b 574 -20 50 165 260 -20 b 831 71 693 -20 762 22 b 859 82 842 78 852 82 b 893 0 879 82 888 57 l 925 0 b 920 361 921 77 920 179 l 888 361 b 760 60 875 210 852 117 b 631 18 721 35 676 18 b 370 489 418 18 370 281 b 631 960 370 697 418 960 b 760 918 676 960 721 943 b 888 636 852 857 875 770 l 920 636 b 925 983 920 811 921 909 l 893 983 b 858 901 888 926 877 901 b 831 913 850 901 841 905 b 575 1003 770 960 697 1003 z "},"Т":{"ha":971,"x_min":0,"x_max":0,"o":"m 939 983 b 486 979 807 979 616 979 b 32 983 355 979 164 979 b 41 708 39 873 41 762 b 37 608 41 669 40 632 l 69 608 b 343 951 135 871 241 951 l 345 951 l 345 157 b 191 28 345 43 318 28 l 191 0 b 476 4 253 1 361 4 b 781 0 597 4 715 1 l 781 28 b 627 157 653 28 627 43 l 627 951 l 628 951 b 901 608 728 951 836 869 l 933 608 b 929 708 930 632 929 669 b 939 983 929 762 932 873 z "},"У":{"ha":928,"x_min":0,"x_max":0,"o":"m 847 979 b 665 983 783 979 734 981 l 665 956 b 781 850 733 953 781 924 b 717 646 781 802 762 736 l 627 465 l 407 839 b 390 903 395 865 390 886 b 444 956 390 939 415 953 l 444 983 b 204 979 403 981 271 979 b -21 983 142 979 17 981 l -21 956 b 78 867 11 950 45 922 l 484 176 l 454 117 b 325 8 421 47 382 8 b 285 16 307 8 292 9 b 414 147 357 35 414 78 b 262 250 414 212 354 250 b 107 118 178 250 107 199 b 298 -20 107 43 176 -20 b 422 21 347 -20 393 -8 b 484 114 441 40 460 65 l 549 245 l 808 771 b 954 956 869 880 911 935 l 954 983 b 847 979 926 981 884 979 z "},"Ў":{"ha":928,"x_min":0,"x_max":0,"o":"m 214 1104 b 478 1059 270 1079 361 1059 b 741 1104 593 1059 685 1079 b 836 1213 793 1128 836 1164 b 701 1315 836 1270 779 1315 b 566 1210 621 1315 566 1270 b 666 1108 566 1158 606 1124 b 478 1086 606 1093 532 1086 b 290 1107 422 1086 349 1093 b 392 1210 344 1121 392 1154 b 256 1315 392 1271 334 1315 b 123 1213 176 1315 123 1268 b 214 1104 123 1162 164 1126 z m 847 979 b 665 983 783 979 734 981 l 665 956 b 781 850 733 953 781 924 b 717 646 781 802 762 736 l 627 465 l 407 839 b 390 903 395 865 390 886 b 444 956 390 939 415 953 l 444 983 b 204 979 403 981 271 979 b -21 983 142 979 17 981 l -21 956 b 78 867 11 950 45 922 l 484 176 l 454 117 b 325 8 421 47 382 8 b 285 16 307 8 292 9 b 414 147 357 35 414 78 b 262 250 414 212 354 250 b 107 118 178 250 107 199 b 298 -20 107 43 176 -20 b 422 21 347 -20 393 -8 b 484 114 441 40 460 65 l 549 245 l 808 771 b 954 956 869 880 911 935 l 954 983 b 847 979 926 981 884 979 z "},"Ф":{"ha":1352,"x_min":0,"x_max":0,"o":"m 1339 500 b 817 887 1339 735 1163 861 l 817 939 b 916 1059 817 1040 831 1054 l 916 1086 b 684 1082 861 1083 770 1082 b 436 1086 583 1082 489 1083 l 436 1059 b 534 939 519 1054 534 1040 l 534 886 b 12 497 193 857 12 718 b 534 96 12 254 189 123 l 534 45 b 436 -75 534 -57 521 -71 l 436 -103 b 684 -98 489 -100 583 -98 b 916 -103 770 -98 861 -100 l 916 -75 b 817 45 832 -71 817 -57 l 817 98 b 1339 500 1158 127 1339 271 z m 304 503 b 534 865 304 734 355 836 l 534 121 b 304 503 365 153 304 257 z m 1047 494 b 817 119 1047 256 997 149 l 817 863 b 1047 494 986 833 1047 734 z "},"Х":{"ha":1013,"x_min":0,"x_max":0,"o":"m 610 596 l 775 799 b 962 956 827 863 899 932 l 962 983 b 828 979 932 981 885 979 b 643 983 783 979 696 981 l 643 956 b 741 865 705 950 741 916 b 671 720 741 825 718 774 l 591 622 l 390 908 b 380 932 383 918 380 926 b 467 956 380 950 408 956 l 467 985 b 243 979 424 983 329 979 b -8 985 146 979 40 983 l -8 956 b 78 886 28 953 40 939 l 395 434 l 228 225 b -3 28 146 123 66 57 l -3 0 b 132 4 28 3 75 4 b 372 0 176 4 319 3 l 372 28 b 256 138 300 33 256 75 b 328 301 256 184 278 240 l 413 408 l 644 77 b 654 53 651 67 654 59 b 568 29 654 35 626 29 l 568 0 b 810 5 614 1 718 5 b 1047 0 901 5 1002 1 l 1047 29 b 961 98 1011 32 999 46 z "},"Ч":{"ha":1114,"x_min":0,"x_max":0,"o":"m 1075 983 b 843 979 1021 981 929 979 b 596 983 743 979 648 981 l 596 956 b 694 836 679 951 694 937 l 694 441 b 510 408 647 422 574 408 b 387 568 406 408 387 446 l 387 836 b 486 956 387 937 403 951 l 486 983 b 249 979 432 981 342 979 b 7 983 155 979 60 981 l 7 956 b 106 836 92 951 106 937 l 106 612 b 200 412 106 514 127 454 b 424 364 256 380 335 364 b 694 414 545 364 646 395 l 694 161 b 541 32 694 47 668 32 l 541 0 b 827 4 603 1 711 4 b 1075 0 911 4 1000 1 l 1075 28 b 977 147 990 32 977 46 l 977 836 b 1075 956 977 937 990 951 z "},"Ц":{"ha":1165,"x_min":0,"x_max":0,"o":"m 1112 983 b 865 979 1060 981 965 979 b 633 983 779 979 688 981 l 633 956 b 732 836 717 951 732 937 l 732 147 b 619 28 732 46 714 28 l 532 28 b 419 147 437 28 419 46 l 419 836 b 518 956 419 937 435 951 l 518 983 b 286 979 464 981 372 979 b 39 983 186 979 92 981 l 39 956 b 138 836 122 951 138 937 l 138 147 b 39 28 138 46 122 32 l 39 0 b 286 4 92 3 186 4 b 574 0 395 4 509 0 l 847 0 b 1117 -257 966 0 1080 -60 l 1149 -257 b 1145 -164 1146 -233 1145 -203 b 1154 28 1145 -126 1147 -49 l 1112 28 b 1014 147 1029 28 1014 46 l 1014 836 b 1112 956 1014 937 1029 951 z "},"Ш":{"ha":1662,"x_min":0,"x_max":0,"o":"m 1624 983 b 1377 979 1571 981 1476 979 b 1158 983 1296 979 1210 981 l 1158 956 b 1243 836 1231 951 1243 937 l 1243 147 b 1131 28 1243 46 1225 28 l 1084 28 b 972 147 1000 32 972 46 l 972 836 b 1057 956 972 937 985 951 l 1057 983 b 823 979 1007 981 918 979 b 606 983 743 979 657 981 l 606 956 b 690 836 677 951 690 937 l 690 147 b 578 28 690 46 672 28 l 532 28 b 419 147 437 28 419 46 l 419 836 b 504 956 419 937 432 951 l 504 983 b 286 979 453 981 367 979 b 39 983 186 979 92 981 l 39 956 b 138 836 122 951 138 937 l 138 147 b 39 28 138 46 122 32 l 39 0 b 272 4 89 3 178 4 b 550 0 375 4 488 0 b 838 4 615 0 729 4 b 1117 0 937 4 1064 0 b 1390 4 1179 0 1287 4 b 1624 0 1485 4 1573 3 l 1624 28 b 1525 147 1539 32 1525 46 l 1525 836 b 1624 956 1525 937 1539 951 z "},"Щ":{"ha":1676,"x_min":0,"x_max":0,"o":"m 1624 983 b 1377 979 1571 981 1476 979 b 1158 983 1296 979 1210 981 l 1158 956 b 1243 836 1231 951 1243 937 l 1243 147 b 1131 28 1243 46 1225 28 l 1084 28 b 972 147 1000 28 972 46 l 972 836 b 1057 956 972 937 985 951 l 1057 983 b 823 979 1007 981 918 979 b 606 983 743 979 657 981 l 606 956 b 690 836 677 951 690 937 l 690 147 b 578 28 690 46 672 28 l 532 28 b 419 147 437 28 419 46 l 419 836 b 504 956 419 937 432 951 l 504 983 b 286 979 453 981 367 979 b 39 983 186 979 92 981 l 39 956 b 138 836 122 951 138 937 l 138 147 b 39 28 138 46 122 32 l 39 0 b 272 4 89 3 178 4 b 550 0 375 4 488 0 b 838 4 615 0 729 4 b 1117 0 937 4 1064 0 l 1358 0 b 1628 -257 1478 0 1592 -60 l 1659 -257 b 1655 -164 1657 -233 1655 -203 b 1666 28 1655 -126 1658 -49 l 1624 28 b 1525 147 1540 28 1525 46 l 1525 836 b 1624 956 1525 937 1539 951 z "},"Џ":{"ha":1152,"x_min":0,"x_max":0,"o":"m 1112 983 b 865 979 1060 981 965 979 b 633 983 779 979 688 981 l 633 956 b 732 836 717 951 732 937 l 732 147 b 619 28 732 46 714 28 l 532 28 b 419 147 437 28 419 46 l 419 836 b 518 956 419 937 435 951 l 518 983 b 286 979 464 981 372 979 b 39 983 186 979 92 981 l 39 956 b 138 836 122 951 138 937 l 138 147 b 39 28 138 46 122 32 l 39 0 b 286 4 92 3 186 4 l 292 4 b 559 -257 411 3 538 -60 l 591 -257 b 860 4 614 -60 741 3 l 865 4 b 1112 0 965 4 1060 3 l 1112 28 b 1014 147 1029 32 1014 46 l 1014 836 b 1112 956 1014 937 1029 951 z "},"Я":{"ha":1010,"x_min":0,"x_max":0,"o":"m 971 983 b 732 979 918 981 821 979 b 509 982 639 979 545 982 b 90 726 227 982 90 900 b 428 471 90 598 164 493 l 427 471 b 118 290 244 450 140 410 l 92 146 b 29 56 79 77 61 56 b -14 74 11 56 -1 61 l -32 56 b 171 -20 21 -1 89 -20 b 382 131 289 -20 366 17 l 403 269 b 514 467 419 383 443 467 l 590 467 l 590 147 b 492 28 590 46 575 32 l 492 0 b 724 4 546 3 637 4 b 971 0 823 4 918 3 l 971 28 b 872 147 886 32 872 46 l 872 836 b 971 956 872 937 888 951 z m 515 956 b 590 836 578 956 590 932 l 590 494 l 553 494 b 382 725 411 494 382 597 b 515 956 382 871 416 956 z "},"Ь":{"ha":945,"x_min":0,"x_max":0,"o":"m 419 586 l 419 836 b 518 956 419 937 433 951 l 518 983 b 286 979 464 981 372 979 b 39 983 186 979 92 981 l 39 956 b 138 836 122 951 138 937 l 138 147 b 39 28 138 46 122 32 l 39 0 b 269 4 92 3 192 4 b 503 1 379 4 460 1 b 920 304 783 1 920 126 b 471 586 920 452 825 586 z m 490 28 b 419 147 432 28 419 56 l 419 558 l 457 558 b 628 282 600 558 628 432 b 490 28 628 114 593 28 z "},"Ъ":{"ha":1156,"x_min":0,"x_max":0,"o":"m 631 586 l 631 836 b 729 956 631 937 644 951 l 729 983 b 313 979 589 979 399 979 b 22 983 228 979 109 979 b 32 778 32 903 32 818 b 28 650 32 728 31 684 l 60 650 b 329 951 87 879 235 951 l 349 951 l 349 147 b 250 28 349 46 334 32 l 250 0 b 481 4 302 3 403 4 b 714 1 590 4 671 1 b 1131 290 994 1 1131 121 b 682 586 1131 431 1036 586 z m 701 28 b 631 147 643 28 631 56 l 631 558 l 668 558 b 839 282 811 558 839 432 b 701 28 839 114 804 28 z "},"Ы":{"ha":1501,"x_min":0,"x_max":0,"o":"m 419 586 l 419 836 b 518 956 419 937 433 951 l 518 983 b 286 979 464 981 372 979 b 39 983 186 979 92 981 l 39 956 b 138 836 122 951 138 937 l 138 147 b 39 28 138 46 122 32 l 39 0 b 269 4 92 3 192 4 b 503 1 379 4 460 1 b 920 304 783 1 920 126 b 471 586 920 452 825 586 z m 1463 983 b 1231 979 1409 981 1317 979 b 983 983 1131 979 1036 981 l 983 956 b 1082 836 1067 951 1082 937 l 1082 147 b 983 28 1082 46 1068 32 l 983 0 b 1231 4 1036 3 1131 4 b 1463 0 1317 4 1409 3 l 1463 28 b 1364 147 1379 32 1364 46 l 1364 836 b 1463 956 1364 937 1378 951 z m 490 28 b 419 147 432 28 419 56 l 419 558 l 457 558 b 628 282 600 558 628 432 b 490 28 628 114 593 28 z "},"Љ":{"ha":1417,"x_min":0,"x_max":0,"o":"m 1386 304 b 937 586 1386 452 1292 586 l 886 586 l 886 836 b 999 956 886 937 904 951 l 999 983 b 750 979 943 981 829 979 b 551 983 671 979 623 983 b 429 979 511 983 471 979 b 286 983 385 979 325 981 l 286 956 b 400 867 374 952 400 937 b 399 836 400 857 399 847 b 140 7 376 453 354 7 b 106 18 125 7 113 11 b 250 175 187 32 250 92 b 126 278 250 240 201 278 b -29 132 40 278 -29 221 b 140 -20 -29 49 41 -20 b 431 836 407 -20 401 510 b 515 956 437 935 469 956 l 519 956 b 604 836 575 956 604 937 l 604 147 b 492 28 604 46 586 32 l 492 0 b 741 4 549 3 644 4 l 794 4 b 970 0 854 0 943 0 b 993 0 977 0 985 0 l 999 0 b 1386 304 1259 9 1386 132 z m 985 28 b 886 147 902 33 886 52 l 886 558 l 924 558 b 1095 282 1067 558 1095 432 b 985 28 1095 123 1067 37 z "},"Њ":{"ha":1536,"x_min":0,"x_max":0,"o":"m 1514 264 b 1065 509 1514 390 1419 509 l 1014 509 l 1014 836 b 1112 956 1014 937 1028 951 l 1112 983 b 879 979 1063 981 974 979 b 633 983 787 979 690 981 l 633 956 b 732 836 717 951 732 937 l 732 509 l 419 509 l 419 836 b 518 956 419 937 433 951 l 518 983 b 286 979 464 981 372 979 b 39 983 186 979 92 981 l 39 956 b 138 836 122 951 138 937 l 138 147 b 39 28 138 46 123 32 l 39 0 b 286 4 92 3 186 4 b 518 0 372 4 464 3 l 518 28 b 419 147 435 32 419 46 l 419 481 l 732 481 l 732 147 b 633 28 732 46 718 32 l 633 0 b 879 4 690 3 787 4 l 922 4 b 1097 0 982 0 1069 0 b 1111 0 1102 0 1106 0 l 1112 0 b 1514 264 1383 4 1514 114 z m 1107 28 b 1014 147 1029 33 1014 48 l 1014 481 l 1038 481 b 1222 245 1192 481 1222 374 b 1107 28 1222 112 1194 33 z "},"Ѕ":{"ha":851,"x_min":0,"x_max":0,"o":"m 419 1003 b 75 741 240 1003 75 922 b 322 419 75 587 191 507 b 525 158 440 340 525 273 b 358 22 525 72 460 22 b 106 393 180 22 117 197 l 74 393 b 68 -9 74 155 72 61 l 100 -9 b 131 52 106 31 113 52 b 178 32 142 52 155 46 b 424 -20 229 7 297 -20 b 802 256 627 -20 802 68 b 576 570 802 407 700 484 b 332 836 401 692 332 733 b 473 965 332 920 392 965 b 715 650 618 965 705 803 l 747 650 b 754 989 747 859 750 929 l 722 989 b 692 928 717 949 710 928 b 644 947 679 928 667 935 b 419 1003 597 974 539 1003 z "},"Є":{"ha":999,"x_min":0,"x_max":0,"o":"m 888 361 b 760 60 875 210 852 117 b 631 18 721 35 676 18 b 375 372 456 18 393 194 b 479 440 399 419 442 440 b 689 349 558 440 604 349 b 844 623 760 349 822 439 l 821 627 b 737 538 806 555 762 538 b 530 629 667 538 615 629 b 372 421 469 629 403 562 b 370 489 370 444 370 467 b 631 960 370 697 418 960 b 760 918 676 960 722 945 b 888 720 843 860 863 814 l 920 720 b 925 983 920 852 921 926 l 893 983 b 858 901 888 926 877 901 b 831 913 850 901 841 905 b 575 1003 770 960 697 1003 b 50 484 267 1003 50 794 b 574 -20 50 165 260 -20 b 831 71 693 -20 762 22 b 859 82 842 78 852 82 b 893 0 879 82 888 57 l 925 0 b 920 361 921 77 920 179 z "},"Э":{"ha":993,"x_min":0,"x_max":0,"o":"m 457 1003 b 172 913 338 1003 240 961 b 144 901 161 905 151 901 b 110 983 124 901 115 926 l 78 983 b 83 664 82 916 83 825 l 115 664 b 243 924 127 794 158 864 b 400 965 281 950 354 965 b 620 617 572 965 612 793 b 517 551 595 571 553 551 b 307 643 437 551 392 643 b 151 368 236 643 174 553 l 175 366 b 258 454 191 435 233 454 b 467 363 329 454 380 363 b 622 561 525 363 590 425 b 623 494 623 538 623 516 b 361 24 623 286 574 24 b 232 65 315 24 271 40 b 104 278 161 111 127 179 l 72 278 b 66 0 72 144 71 57 l 98 0 b 134 83 104 57 115 83 b 161 71 142 83 151 79 b 416 -20 222 24 294 -20 b 942 500 739 -20 942 189 b 457 1003 942 818 771 1003 z "},"І":{"ha":557,"x_min":0,"x_max":0,"o":"m 518 983 b 286 979 464 981 372 979 b 39 983 186 979 92 981 l 39 956 b 138 836 122 951 138 937 l 138 147 b 39 28 138 46 123 32 l 39 0 b 286 4 92 3 186 4 b 518 0 372 4 464 3 l 518 28 b 419 147 435 32 419 46 l 419 836 b 518 956 419 937 433 951 z "},"Ї":{"ha":557,"x_min":0,"x_max":0,"o":"m 107 1300 b -14 1179 41 1300 -14 1243 b 107 1059 -14 1112 41 1059 b 228 1179 171 1059 228 1112 b 107 1300 228 1243 171 1300 z m 465 1300 b 345 1179 399 1300 345 1243 b 465 1059 345 1112 399 1059 b 586 1179 529 1059 586 1112 b 465 1300 586 1243 529 1300 z m 518 983 b 286 979 464 981 372 979 b 39 983 186 979 92 981 l 39 956 b 138 836 122 951 138 937 l 138 147 b 39 28 138 46 123 32 l 39 0 b 286 4 92 3 186 4 b 518 0 372 4 464 3 l 518 28 b 419 147 435 32 419 46 l 419 836 b 518 956 419 937 433 951 z "},"Ј":{"ha":542,"x_min":0,"x_max":0,"o":"m 511 983 b 265 979 454 981 357 979 b 32 983 171 979 82 981 l 32 956 b 131 836 115 951 131 937 l 131 201 b 102 -144 131 9 131 -64 b -21 -232 83 -192 41 -232 b -46 -231 -29 -232 -37 -232 b 35 -126 11 -210 35 -167 b -90 -24 35 -58 -14 -24 b -227 -131 -172 -24 -227 -65 b -157 -235 -227 -175 -207 -210 b -1 -261 -114 -256 -50 -261 b 389 -35 205 -261 347 -163 b 413 214 410 32 413 125 b 412 328 413 253 412 292 l 412 836 b 511 956 412 937 427 951 z "},"Ћ":{"ha":1321,"x_min":0,"x_max":0,"o":"m 1215 273 b 1121 473 1215 372 1193 432 b 897 522 1065 505 986 522 b 627 472 777 522 675 492 l 627 951 l 628 951 b 901 608 728 951 836 869 l 933 608 b 929 708 930 632 929 669 b 939 983 929 762 932 873 b 486 979 807 979 616 979 b 32 983 355 979 164 979 b 41 708 39 873 41 762 b 37 608 41 669 40 632 l 69 608 b 343 951 135 871 241 951 l 345 951 l 345 157 b 191 28 345 43 318 28 l 191 0 b 476 4 253 1 361 4 b 781 0 597 4 715 1 l 781 28 b 627 157 653 28 627 43 l 627 444 b 811 478 673 464 747 478 b 933 318 916 478 933 440 l 933 147 b 835 28 933 46 918 32 l 835 0 b 1072 4 889 3 979 4 b 1314 0 1165 4 1261 3 l 1314 28 b 1215 147 1229 32 1215 46 z "},"Ю":{"ha":1563,"x_min":0,"x_max":0,"o":"m 1031 1003 b 548 509 755 1003 558 806 l 419 509 l 419 836 b 518 956 419 937 433 951 l 518 983 b 286 979 464 981 372 979 b 39 983 186 979 92 981 l 39 956 b 138 836 122 951 138 937 l 138 147 b 39 28 138 46 123 32 l 39 0 b 286 4 92 3 186 4 b 518 0 372 4 464 3 l 518 28 b 419 147 435 32 419 46 l 419 481 l 547 481 b 1029 -20 549 164 741 -20 b 1512 500 1312 -20 1512 189 b 1031 1003 1512 818 1320 1003 z m 1035 5 b 839 489 926 5 839 193 b 1025 978 839 777 911 978 b 1221 494 1133 978 1221 790 b 1035 5 1221 207 1149 5 z "},"Ђ":{"ha":1364,"x_min":0,"x_max":0,"o":"m 960 578 b 627 484 807 578 697 536 l 627 951 l 628 951 b 901 636 729 951 836 835 l 933 636 b 929 736 930 660 929 697 b 939 983 929 785 932 885 b 486 979 807 979 616 979 b 32 983 355 979 164 979 b 41 708 39 873 41 762 b 37 608 41 669 40 632 l 69 608 b 343 951 135 871 241 951 l 345 951 l 345 157 b 191 28 345 43 318 28 l 191 0 b 412 4 261 3 343 4 b 627 -16 494 4 566 -1 l 627 454 b 867 533 669 497 772 533 b 1083 269 1031 533 1083 422 b 924 16 1083 92 1011 16 b 835 33 895 16 859 24 b 972 187 917 56 972 104 b 843 315 972 267 922 315 b 693 178 762 315 693 265 b 964 -20 693 43 832 -20 b 1346 271 1174 -20 1346 77 b 960 578 1346 476 1175 578 z "},"а":{"ha":737,"x_min":0,"x_max":0,"o":"m 378 741 b 155 696 281 741 212 725 b 69 568 106 669 69 627 b 183 447 69 500 114 447 b 317 564 264 447 317 498 b 224 689 317 627 283 667 b 297 713 244 703 273 713 b 400 599 386 713 400 642 l 400 475 b 207 346 400 412 315 385 b 31 150 85 306 31 244 b 205 -9 31 54 94 -9 b 404 96 292 -9 366 32 b 547 -9 406 40 443 -9 b 728 41 627 -9 684 4 l 714 65 b 671 45 701 56 688 45 b 650 104 656 45 650 60 l 650 476 b 604 671 650 572 643 631 b 378 741 551 726 475 741 z m 400 125 b 349 102 383 107 368 102 b 278 200 309 102 278 127 b 346 357 278 268 304 317 b 400 418 366 376 389 399 z "},"б":{"ha":819,"x_min":0,"x_max":0,"o":"m 440 699 b 91 500 277 699 141 635 b 375 798 127 741 168 779 b 518 807 457 804 492 806 b 692 860 589 811 647 823 b 794 1086 733 893 774 961 l 774 1090 b 603 1013 737 1035 693 1017 b 387 1003 549 1010 479 1011 b 210 939 315 996 257 979 b 62 419 86 833 62 590 b 411 -20 62 158 118 -20 b 777 346 631 -20 777 79 b 440 699 777 615 628 699 z m 419 8 b 322 351 364 8 322 117 b 419 671 322 585 364 671 b 517 351 475 671 517 585 b 419 8 517 117 475 8 z "},"в":{"ha":821,"x_min":0,"x_max":0,"o":"m 479 374 b 757 558 670 388 757 464 b 469 720 757 652 685 720 b 224 714 408 720 318 714 b 29 720 151 714 66 718 l 29 690 b 107 590 86 690 107 668 l 107 129 b 29 29 107 52 86 29 l 29 0 b 237 5 69 1 160 5 b 500 0 338 5 440 0 b 782 186 711 0 782 71 b 479 374 782 306 705 369 z m 357 590 b 408 690 357 673 370 690 b 504 539 489 690 504 621 b 357 376 504 435 479 379 z m 412 29 b 357 129 371 29 357 45 l 357 349 l 371 349 b 526 184 484 349 526 300 b 412 29 526 107 507 29 z "},"г":{"ha":650,"x_min":0,"x_max":0,"o":"m 407 720 b 224 714 372 720 296 714 b 29 720 151 714 66 718 l 29 690 b 107 590 86 690 107 668 l 107 129 b 29 29 107 52 86 29 l 29 0 b 221 5 66 1 146 5 b 476 0 323 5 425 1 l 476 29 b 357 143 401 29 357 53 l 357 618 b 396 690 357 672 370 690 l 397 690 b 582 403 452 690 533 608 l 614 403 b 610 503 611 427 610 464 b 619 720 610 546 612 632 z "},"ѓ":{"ha":650,"x_min":0,"x_max":0,"o":"m 479 1139 b 418 1161 461 1154 439 1161 b 343 1128 389 1161 360 1148 b 225 844 293 1072 304 1002 l 240 832 b 485 1013 371 942 439 957 b 508 1076 500 1031 508 1054 b 479 1139 508 1100 499 1123 z m 407 720 b 224 714 372 720 296 714 b 29 720 151 714 66 718 l 29 690 b 107 590 86 690 107 668 l 107 129 b 29 29 107 52 86 29 l 29 0 b 221 5 66 1 146 5 b 476 0 323 5 425 1 l 476 29 b 357 143 401 29 357 53 l 357 618 b 396 690 357 672 370 690 l 397 690 b 582 403 452 690 533 608 l 614 403 b 610 503 611 427 610 464 b 619 720 610 546 612 632 z "},"ґ":{"ha":636,"x_min":0,"x_max":0,"o":"m 582 937 b 375 720 551 787 493 726 b 224 714 332 717 275 714 b 29 720 151 714 66 718 l 29 690 b 107 590 86 690 107 668 l 107 129 b 29 29 107 52 86 29 l 29 0 b 221 5 66 1 146 5 b 476 0 323 5 425 1 l 476 29 b 357 143 401 29 357 53 l 357 590 b 463 690 357 668 380 690 l 619 690 b 610 851 612 755 610 819 b 614 937 610 885 611 917 z "},"д":{"ha":783,"x_min":0,"x_max":0,"o":"m 764 29 b 659 129 688 29 659 52 l 659 591 b 722 690 659 669 673 690 l 722 720 b 546 714 688 718 607 714 b 355 720 493 714 441 720 b 224 717 286 720 257 717 b 134 720 183 717 149 718 l 134 690 b 243 605 204 690 243 671 b 243 590 243 600 243 595 b 165 132 231 427 220 252 b 35 29 140 75 96 29 l 8 29 b 18 -132 16 -36 18 -100 b 14 -218 18 -165 17 -197 l 46 -218 b 272 0 79 -54 144 0 l 500 0 b 726 -218 628 0 693 -54 l 758 -218 b 754 -132 755 -197 754 -165 b 764 29 754 -100 757 -36 z m 408 129 b 317 29 408 52 383 29 l 116 29 b 193 126 146 49 173 81 b 272 590 248 248 257 415 b 332 690 279 664 278 690 l 345 690 b 408 590 392 690 408 668 z "},"е":{"ha":699,"x_min":0,"x_max":0,"o":"m 463 132 b 302 379 387 132 302 183 b 304 429 302 396 302 413 l 663 429 b 400 741 663 653 562 741 b 43 359 199 741 43 627 b 364 -20 43 79 186 -20 b 654 216 529 -20 619 104 l 631 225 b 463 132 570 140 500 132 z m 390 708 b 460 456 441 708 461 591 l 299 456 b 390 708 309 640 341 708 z "},"ё":{"ha":699,"x_min":0,"x_max":0,"o":"m 224 831 b 345 951 288 831 345 885 b 224 1072 345 1015 288 1072 b 102 951 157 1072 102 1015 b 224 831 102 885 157 831 z m 554 831 b 675 951 618 831 675 885 b 554 1072 675 1015 618 1072 b 433 951 488 1072 433 1015 b 554 831 433 885 488 831 z m 663 429 b 400 741 663 653 562 741 b 43 359 199 741 43 627 b 364 -20 43 79 186 -20 b 654 216 529 -20 619 104 l 631 225 b 463 132 570 140 500 132 b 302 379 387 132 302 183 b 304 429 302 396 302 413 z m 390 708 b 460 456 441 708 461 591 l 299 456 b 390 708 309 640 341 708 z "},"ж":{"ha":1265,"x_min":0,"x_max":0,"o":"m 1182 106 b 1093 318 1145 199 1136 268 b 896 391 1044 374 970 391 b 829 387 873 391 850 389 b 908 521 872 410 890 447 b 1040 711 940 647 945 705 b 960 590 982 681 960 633 b 1095 479 960 509 1039 479 b 1218 607 1165 479 1218 525 b 1059 741 1218 685 1171 741 b 886 545 937 741 920 675 b 757 384 859 439 844 397 l 757 590 b 835 690 757 668 778 690 l 835 720 b 639 714 798 718 714 714 b 429 720 564 714 469 718 l 429 690 b 507 590 486 690 507 668 l 507 382 b 363 545 403 393 389 441 b 191 741 329 675 311 741 b 31 607 78 741 31 685 b 154 479 31 525 83 479 b 289 590 210 479 289 509 b 208 711 289 633 267 681 b 340 521 306 705 307 650 b 420 387 359 450 376 410 b 355 390 399 389 378 390 b 155 318 281 390 204 374 b 66 106 113 268 106 203 b -4 29 47 57 35 35 l -4 0 b 106 -8 35 -5 72 -8 b 334 144 233 -8 309 33 b 406 318 342 183 363 269 b 495 358 431 348 463 358 b 507 357 499 358 503 358 l 507 129 b 443 29 507 52 490 29 l 443 0 b 628 5 478 1 558 5 b 821 0 697 5 783 1 l 821 29 b 757 129 774 29 757 52 l 757 357 b 843 318 791 356 818 346 b 916 144 889 268 904 187 b 1141 -8 945 35 1007 -8 b 1253 0 1177 -8 1214 -5 l 1253 29 b 1182 106 1214 35 1202 57 z "},"з":{"ha":700,"x_min":0,"x_max":0,"o":"m 361 741 b 175 692 281 741 229 726 b 127 668 154 677 139 668 b 97 729 110 668 103 689 l 65 729 b 72 473 69 686 72 632 l 104 473 b 273 686 114 589 163 686 b 382 553 346 686 382 644 b 301 392 382 485 363 429 b 243 400 282 396 261 400 b 211 378 224 400 211 395 b 241 354 211 361 224 354 b 300 372 261 354 282 363 b 418 186 387 345 418 262 b 249 11 418 69 346 11 b 187 21 218 11 200 17 b 288 138 241 36 288 77 b 154 250 288 205 232 250 b 26 136 71 250 26 200 b 96 22 26 90 49 52 b 293 -20 147 -9 214 -20 b 671 204 536 -20 671 71 b 322 385 671 340 529 385 b 632 575 478 400 632 444 b 361 741 632 690 514 741 z "},"и":{"ha":937,"x_min":0,"x_max":0,"o":"m 908 720 b 700 714 868 718 778 714 b 517 720 628 714 551 718 l 517 690 b 581 605 560 690 578 671 l 357 168 l 357 590 b 421 690 357 668 374 690 l 421 720 b 224 714 383 718 301 714 b 29 720 151 714 66 718 l 29 690 b 107 590 86 690 107 668 l 107 129 b 29 29 107 52 86 29 l 29 0 b 237 5 69 1 160 5 b 421 0 310 5 386 1 l 421 29 b 357 107 378 29 360 47 l 581 547 l 581 129 b 517 29 581 52 564 29 l 517 0 b 714 5 554 1 636 5 b 908 0 786 5 871 1 l 908 29 b 831 129 851 29 831 52 l 831 590 b 908 690 831 668 851 690 z "},"й":{"ha":937,"x_min":0,"x_max":0,"o":"m 233 871 b 469 823 288 842 368 823 b 704 871 569 823 650 842 b 785 987 745 893 785 935 b 664 1108 785 1059 734 1108 b 543 987 593 1108 543 1059 b 629 873 543 932 578 892 b 469 851 578 859 515 851 b 308 872 422 851 359 859 b 397 987 359 890 397 930 b 276 1108 397 1059 344 1108 b 155 987 203 1108 155 1059 b 233 871 155 935 191 893 z m 908 720 b 700 714 868 718 778 714 b 517 720 628 714 551 718 l 517 690 b 581 605 560 690 578 671 l 357 168 l 357 590 b 421 690 357 668 374 690 l 421 720 b 224 714 383 718 301 714 b 29 720 151 714 66 718 l 29 690 b 107 590 86 690 107 668 l 107 129 b 29 29 107 52 86 29 l 29 0 b 237 5 69 1 160 5 b 421 0 310 5 386 1 l 421 29 b 357 107 378 29 360 47 l 581 547 l 581 129 b 517 29 581 52 564 29 l 517 0 b 714 5 554 1 636 5 b 908 0 786 5 871 1 l 908 29 b 831 129 851 29 831 52 l 831 590 b 908 690 831 668 851 690 z "},"ѝ":{"ha":937,"x_min":0,"x_max":0,"o":"m 547 844 b 429 1128 468 1002 479 1072 b 353 1162 412 1147 382 1162 b 293 1139 332 1162 311 1155 b 264 1076 273 1122 264 1099 b 288 1013 264 1054 272 1031 b 532 832 333 957 401 942 z m 908 720 b 700 714 868 718 778 714 b 517 720 628 714 551 718 l 517 690 b 581 605 560 690 578 671 l 357 168 l 357 590 b 421 690 357 668 374 690 l 421 720 b 224 714 383 718 301 714 b 29 720 151 714 66 718 l 29 690 b 107 590 86 690 107 668 l 107 129 b 29 29 107 52 86 29 l 29 0 b 237 5 69 1 160 5 b 421 0 310 5 386 1 l 421 29 b 357 107 378 29 360 47 l 581 547 l 581 129 b 517 29 581 52 564 29 l 517 0 b 714 5 554 1 636 5 b 908 0 786 5 871 1 l 908 29 b 831 129 851 29 831 52 l 831 590 b 908 690 831 668 851 690 z "},"к":{"ha":892,"x_min":0,"x_max":0,"o":"m 810 106 b 721 318 772 199 764 268 b 522 391 684 361 621 391 b 456 387 502 391 479 389 b 536 521 505 412 519 456 b 668 711 568 647 572 705 b 587 590 610 681 587 633 b 722 479 587 509 667 479 b 846 607 793 479 846 525 b 688 741 846 685 798 741 b 514 545 567 741 546 675 b 357 381 487 433 467 389 l 357 590 b 435 690 357 668 378 690 l 435 720 b 239 714 397 718 314 714 b 29 720 164 714 69 718 l 29 690 b 107 590 86 690 107 668 l 107 129 b 29 29 107 52 86 29 l 29 0 b 228 5 66 1 153 5 b 435 0 302 5 395 1 l 435 29 b 357 129 378 29 357 52 l 357 356 b 376 357 363 357 370 357 b 472 318 420 357 452 340 b 543 144 513 273 536 176 b 772 -8 570 28 650 -8 b 880 0 807 -8 843 -5 l 880 29 b 810 106 842 35 829 57 z "}}}
